<svg viewBox="0 0 205 207" fill="none" xmlns="http://www.w3.org/2000/svg">
    <path d="M9.23145 167.005H196.102" stroke="#373737" stroke-width="2.55" stroke-miterlimit="10" stroke-linecap="round"/>
    <path d="M139.147 115.784C167.843 118.137 177.4 150.405 178.601 167.005H26.7383C29.1403 147.975 32.7177 137.736 47.0531 126.023C61.414 114.31 103.245 112.862 139.121 115.784H139.147Z" fill="white" stroke="#373737" stroke-width="2.55"/>
    <path d="M169.272 79.5334C169.221 75.9911 166.461 73.0435 162.807 72.3195C162.756 71.88 162.73 71.4404 162.679 71.0009C165.669 69.8632 167.79 67.1483 167.738 63.9939C167.687 59.8569 163.957 56.5473 159.408 56.599C159.153 56.599 158.923 56.599 158.667 56.6507C158.156 55.5131 157.619 54.3754 157.006 53.2894C158.948 52.1 160.149 50.2901 160.124 48.2992C160.072 44.7569 156.188 41.9386 151.436 41.9903C150.541 41.9903 149.698 42.1196 148.906 42.3006C148.318 41.7059 147.73 41.137 147.117 40.5682C148.037 39.534 148.574 38.2929 148.548 36.9742C148.497 33.4319 144.613 30.6136 139.86 30.6653C137.867 30.6653 136.027 31.2341 134.545 32.1132C134.366 32.0357 134.187 31.9581 134.034 31.8805C134.238 31.3376 134.34 30.7687 134.315 30.1999C134.264 26.6576 130.38 23.8393 125.627 23.891C122.152 23.9427 119.162 25.5199 117.833 27.7436C117.603 27.7436 117.373 27.7177 117.143 27.6919C116.683 24.4598 112.978 21.9776 108.506 22.0294C103.753 22.0811 99.9203 25.0028 99.9714 28.5192C99.9714 28.9071 100.022 29.2949 100.125 29.6569C99.8692 29.7345 99.6136 29.8121 99.3581 29.8896C97.8505 27.9246 95.3463 26.6576 92.5098 26.6835C87.9614 26.7352 84.3073 30.1223 84.3584 34.2593C84.3584 35.3453 84.6395 36.3537 85.0994 37.2845C84.6395 37.6206 84.1795 37.9826 83.7451 38.3446C82.723 37.9309 81.5731 37.724 80.3721 37.724C75.8236 37.7757 72.1695 41.1629 72.2206 45.2999C72.2206 46.8254 72.7572 48.2475 73.626 49.411C73.0639 50.2384 72.5528 51.0658 72.0417 51.9449C71.6329 51.8932 71.224 51.8673 70.8152 51.8673C66.2667 51.919 62.6126 55.3062 62.6637 59.4432C62.6893 62.1064 64.2736 64.4334 66.5989 65.7262C66.3434 66.7863 66.139 67.8723 65.9856 68.9582C62.1782 69.6564 59.3418 72.7332 59.3674 76.379C59.4185 80.0247 62.1271 82.8171 65.7557 83.567C65.8323 84.0841 65.8834 84.6271 65.9601 85.1442C63.8392 86.5146 62.4593 88.764 62.4848 91.3238C62.536 95.2798 65.9345 98.4601 70.2019 98.6928C70.5597 99.4685 70.9685 100.244 71.3774 101.02C69.8697 102.39 68.9498 104.304 68.9754 106.398C69.0265 110.535 72.7572 113.844 77.3057 113.793C78.5067 113.793 79.631 113.534 80.6532 113.095C89.5457 121.575 101.53 126.747 114.716 126.592C125.755 126.462 135.925 122.636 144.025 116.249C145.303 116.947 146.759 117.335 148.344 117.309C152.892 117.257 156.546 113.87 156.495 109.733C156.495 107.898 155.728 106.243 154.502 104.95C154.809 104.459 155.141 103.993 155.447 103.502C156.086 103.657 156.776 103.735 157.492 103.709C162.04 103.657 165.694 100.27 165.643 96.133C165.618 93.3406 163.905 90.936 161.401 89.669C161.631 88.7899 161.836 87.8849 162.015 86.98C166.103 86.5146 169.272 83.3084 169.221 79.4558L169.272 79.5334Z" fill="#373737"/>
    <path d="M95.7815 133.857C95.0149 133.857 94.2228 133.831 93.4306 133.702C86.2246 132.719 81.4206 130.211 79.172 126.255C77.1533 122.687 77.281 118.136 79.5553 112.681C83.6693 102.804 101.199 87.3418 105.62 83.5409C104.24 81.9378 103.447 79.8693 103.447 77.6974C103.396 72.7072 107.357 68.5702 112.314 68.5185C115.969 68.4668 119.214 70.6387 120.645 73.9741C122.28 74 124.171 73.4311 126.266 72.2418L127.416 71.5954L128.004 72.7847C128.106 72.9657 130.508 77.594 136.232 77.3613C141.828 77.1803 142.978 73.7414 143.004 73.5863L143.285 72.6813H144.23C146.454 72.7072 150.644 73.7673 150.695 77.4906V77.8008C150.695 77.8008 147.987 88.8414 150.286 94.6849L150.644 95.564L149.903 96.1328C148.932 96.9085 147.143 97.8652 145.406 97.6583C144.154 102.752 138.558 119.3 118.677 119.533C118.473 119.533 118.268 119.533 118.064 119.533C116.071 122.248 106.948 133.676 95.8071 133.805L95.7815 133.857Z" fill="white" stroke="#373737" stroke-width="2.55" stroke-miterlimit="10"/>
    <path d="M53.8984 167.005H60.7467C60.7467 167.005 61.3089 177.916 74.5199 177.554C74.5199 177.554 76.9985 183.113 85.8399 179.752C85.8399 179.752 88.6763 182.829 93.327 183.061C97.7988 183.113 93.4292 173.132 93.4292 173.132C93.4292 173.132 97.3389 178.873 102.654 178.769C107.969 178.666 97.62 157.593 94.758 157.128C91.9216 156.662 88.4975 158.188 88.3953 160.67C88.3953 160.67 83.4635 153.689 78.0207 160.67C78.0207 160.67 74.9798 154.645 69.5626 160.773C69.5626 160.773 66.5217 155.602 62.2543 158.084C57.987 160.566 53.8984 167.005 53.8984 167.005Z" fill="white" stroke="#373737" stroke-width="2.55" stroke-miterlimit="10"/>
    <path d="M69.5371 160.773C69.5371 160.773 72.0158 168.711 74.4944 177.838" stroke="#373737" stroke-width="2.55" stroke-miterlimit="10"/>
    <path d="M85.8162 179.752L77.7158 160.179" stroke="#373737" stroke-width="2.55" stroke-miterlimit="10"/>
    <path d="M88.3711 160.67L93.7373 173.934" stroke="#373737" stroke-width="2.55" stroke-miterlimit="10"/>
    <path d="M113.182 73.5864C113.182 73.5864 108.991 74.4914 110.576 79.9729Z" fill="white"/>
    <path d="M113.182 73.5864C113.182 73.5864 108.991 74.4914 110.576 79.9729" stroke="#373737" stroke-width="2.55" stroke-miterlimit="10" stroke-linecap="round"/>
    <path d="M141.163 90.9357C142.338 90.9357 143.284 89.5912 143.258 87.9622C143.258 86.3333 142.262 85.0146 141.086 85.0146C139.911 85.0146 138.965 86.3592 138.991 87.9881C138.991 89.617 139.987 90.9357 141.163 90.9357Z" fill="#373737"/>
    <path d="M145.662 82.1449C145.662 82.1449 141.344 79.2231 137.511 82.7913Z" fill="#373737"/>
    <path d="M145.662 82.1449C145.662 82.1449 141.344 79.2231 137.511 82.7913" stroke="#373737" stroke-width="2.55" stroke-miterlimit="10" stroke-linecap="round"/>
    <path d="M107.332 88.7122C107.332 88.7122 98.3115 119.222 122.919 119.222" stroke="#373737" stroke-width="2.55" stroke-miterlimit="10" stroke-linecap="round"/>
    <path d="M126.086 96.4692C126.086 96.4692 122.508 104.148 132.96 101.977" stroke="#373737" stroke-width="2.55" stroke-miterlimit="10" stroke-linecap="round"/>
    </svg>
    