<svg viewBox="0 0 217 196" fill="none" xmlns="http://www.w3.org/2000/svg">
    <path d="M16.9668 159.925C16.7146 159.818 16.5669 159.686 16.5237 159.53C16.4938 159.373 16.5572 159.085 16.7141 158.667C16.8709 158.249 17.1173 157.601 17.4532 156.722C17.7083 156.093 17.8714 155.608 17.9426 155.266C18.0255 154.909 18.066 154.657 18.0639 154.51C18.0618 154.363 18.0587 154.27 18.0545 154.23C18.0155 154.114 18.019 154.019 18.065 153.948C18.1096 153.863 18.1887 153.787 18.3023 153.722C18.3615 153.649 18.5012 153.514 18.7214 153.317C18.9416 153.119 19.1054 152.895 19.2127 152.643C19.3027 152.352 19.4051 152.054 19.5201 151.747C19.6484 151.439 19.8153 151.053 20.0209 150.59C20.2251 150.114 20.5014 149.496 20.8499 148.736C21.066 148.245 21.3221 147.69 21.6183 147.07C21.9277 146.448 22.2361 145.88 22.5435 145.366C22.6696 145.166 22.8065 145.004 22.9542 144.881C23.102 144.759 23.2354 144.691 23.3545 144.679C23.6458 144.648 23.9453 144.697 24.2533 144.825C24.5598 144.94 24.8374 145.098 25.0861 145.3C25.3348 145.501 25.5093 145.697 25.6096 145.887C25.6869 145.986 25.7371 146.208 25.76 146.554C25.7829 146.9 25.8003 147.319 25.812 147.813C25.8238 148.307 25.8324 148.835 25.8379 149.397C25.8553 149.944 25.8632 150.592 25.8617 151.341C25.8601 152.091 25.8621 152.874 25.8676 153.69C25.8862 154.504 25.9154 155.291 25.955 156.05C25.9932 156.795 26.0613 157.444 26.1595 157.995C26.1853 158.113 26.1971 158.226 26.195 158.333C26.1929 158.44 26.1953 158.527 26.2022 158.593C26.1312 158.681 25.9626 158.732 25.6964 158.747C25.4317 158.775 25.1693 158.762 24.9095 158.709C24.6496 158.656 24.5002 158.571 24.4612 158.455C24.4173 158.42 24.3873 158.389 24.3713 158.364C24.3553 158.339 24.3421 158.213 24.3317 157.987C24.3199 157.747 24.2945 157.315 24.2556 156.69L24.0356 153.641L23.7795 153.688C23.6604 153.701 23.4433 153.737 23.1284 153.797C22.8267 153.855 22.4933 153.931 22.1283 154.023C21.775 154.1 21.4489 154.181 21.15 154.266C20.8497 154.338 20.6421 154.4 20.5271 154.452C20.408 154.464 20.2707 154.559 20.1153 154.736C19.9732 154.912 19.8425 155.133 19.7233 155.4C19.6899 155.59 19.6114 155.799 19.4881 156.027C19.3766 156.239 19.3243 156.378 19.3313 156.445C19.2456 156.521 19.1745 156.608 19.118 156.708C19.0748 156.806 19.0532 156.855 19.0532 156.855C19.0616 156.935 19.0229 157.139 18.9371 157.47C18.85 157.787 18.7405 158.146 18.6088 158.548C18.4757 158.937 18.331 159.28 18.1749 159.578L17.7181 160.388L16.9668 159.925ZM20.9946 152.596C20.9946 152.596 21.066 152.575 21.2088 152.533C21.3517 152.491 21.521 152.447 21.7167 152.399C21.9244 152.338 22.1076 152.298 22.2665 152.281C22.5626 152.17 22.8078 152.084 23.0022 152.023C23.2099 151.961 23.3799 151.924 23.5123 151.91C23.6432 151.882 23.7505 151.885 23.8341 151.916C23.894 151.977 23.9445 152.011 23.9857 152.02C24.04 152.028 24.0672 152.032 24.0672 152.032C24.0776 152.004 24.0895 151.862 24.1028 151.607C24.116 151.351 24.1297 151.035 24.1437 150.659C24.1577 150.283 24.1703 149.893 24.1815 149.49C24.1913 149.074 24.198 148.692 24.2015 148.344C24.2037 147.982 24.2009 147.702 24.1933 147.502C24.1801 147.249 24.1498 147.024 24.1025 146.829C24.0537 146.62 24.0294 146.515 24.0294 146.515C23.9499 146.523 23.813 146.685 23.6186 147C23.436 147.3 23.2241 147.704 22.983 148.211C22.7537 148.704 22.5286 149.236 22.3076 149.808C22.2017 150.073 22.0968 150.285 21.993 150.443C21.9024 150.6 21.824 150.682 21.7578 150.689C21.7341 150.718 21.6724 150.832 21.5727 151.029C21.4849 151.213 21.3867 151.424 21.2779 151.663C21.1811 151.887 21.096 152.097 21.0228 152.292C20.9615 152.472 20.9521 152.574 20.9946 152.596ZM28.2737 158.295C28.0292 158.388 27.7965 158.339 27.5756 158.148C27.3562 157.97 27.1859 157.687 27.0647 157.298C26.9436 156.909 26.9102 156.464 26.9646 155.963C27.0141 155.798 27.0511 155.64 27.0755 155.49C27.0985 155.327 27.1051 155.199 27.0954 155.107C27.108 154.971 27.1407 154.774 27.1937 154.514C27.2453 154.241 27.3028 153.96 27.3663 153.673C27.4297 153.385 27.49 153.131 27.5472 152.911C27.6162 152.676 27.6612 152.531 27.6821 152.475C27.735 152.47 27.7765 152.418 27.8065 152.322C27.8364 152.225 27.8466 152.13 27.8368 152.037C27.8257 151.931 27.833 151.81 27.8588 151.674C27.8979 151.536 27.9411 151.437 27.9885 151.379C27.9815 151.313 27.9871 151.239 28.0052 151.156C28.0352 151.06 28.0474 150.985 28.0418 150.932C28.0363 150.879 28.0439 150.824 28.0649 150.769C28.099 150.712 28.1133 150.656 28.1077 150.604C28.1823 150.422 28.2729 150.138 28.3796 149.752C28.4981 149.351 28.619 148.91 28.7424 148.429C28.8791 147.946 29.0031 147.471 29.1147 147.004C29.2262 146.538 29.3123 146.147 29.373 145.833C29.4455 145.504 29.4783 145.307 29.4713 145.24C29.4602 145.135 29.4895 145.031 29.5592 144.93C29.6289 144.829 29.7167 144.773 29.8226 144.762C29.8581 144.718 29.948 144.682 30.0922 144.653C30.235 144.611 30.3329 144.588 30.3859 144.582C30.3859 144.582 30.4151 144.606 30.4736 144.653C30.5322 144.701 30.6199 144.772 30.737 144.867C30.8526 144.948 30.963 145.044 31.0682 145.153C31.1866 145.261 31.2542 145.394 31.2709 145.553C31.289 145.725 31.2799 145.894 31.2436 146.058C31.2206 146.221 31.1642 146.448 31.0742 146.738C30.9829 147.016 30.8393 147.432 30.6435 147.988C30.5654 148.264 30.4793 148.527 30.3852 148.778C30.2897 149.016 30.2448 149.161 30.2503 149.214C30.2559 149.267 30.2378 149.349 30.1959 149.461C30.1674 149.571 30.1349 149.708 30.0987 149.872C30.0569 149.984 30.0008 150.15 29.9304 150.372C29.8586 150.58 29.7822 150.809 29.7014 151.058C29.6324 151.293 29.5738 151.5 29.5257 151.679C29.4762 151.845 29.4529 151.941 29.4556 151.968C29.4612 152.02 29.4602 152.074 29.4525 152.128C29.4581 152.181 29.4371 152.237 29.3898 152.296C29.3368 152.301 29.3079 152.344 29.303 152.425C29.31 152.491 29.3134 152.525 29.3134 152.525C29.3273 152.657 29.2583 153.019 29.1063 153.61C28.9711 154.361 28.8428 155.05 28.7214 155.678C28.6133 156.305 28.5788 156.804 28.6177 157.175C28.6511 157.493 28.6239 157.743 28.5361 157.926C28.4615 158.108 28.3741 158.231 28.2737 158.295ZM34.3394 157.035C33.966 157.302 33.5563 157.479 33.1104 157.566C32.6763 157.638 32.2597 157.622 31.8605 157.517C31.4599 157.398 31.1244 157.199 30.8542 156.92C30.7037 156.762 30.5494 156.504 30.3913 156.145C30.2318 155.774 30.1577 155.26 30.169 154.603C30.1844 153.986 30.305 153.351 30.5309 152.698C30.7699 152.044 31.0828 151.455 31.4696 150.933C31.8564 150.41 32.2988 150.036 32.797 149.81C32.9754 149.724 33.1558 149.658 33.3384 149.612C33.5328 149.551 33.7902 149.518 34.1107 149.511C34.4194 149.519 34.6991 149.569 34.9499 149.664C35.1993 149.744 35.3839 149.845 35.5037 149.967C35.7378 150.156 35.8983 150.347 35.9854 150.538C36.0725 150.73 36.1191 150.919 36.1254 151.106C36.1037 151.536 35.9597 152.013 35.6935 152.537C35.4405 153.058 35.0486 153.468 34.5176 153.764C34.3023 153.881 34.0438 153.968 33.7421 154.027C33.4405 154.085 33.0193 154.089 32.4787 154.039C32.154 154.006 31.9457 154.061 31.8537 154.205C31.7749 154.347 31.7623 154.609 31.8159 154.992C31.8674 155.227 31.9427 155.434 32.0416 155.611C32.1523 155.773 32.3303 155.875 32.5755 155.916C32.8856 155.937 33.1047 155.92 33.2329 155.867C33.3597 155.8 33.5175 155.71 33.7064 155.596C33.8053 155.519 33.8969 155.436 33.9813 155.346C34.0788 155.256 34.1697 155.166 34.2541 155.077C34.3516 154.986 34.4314 154.918 34.4934 154.871C34.554 154.811 34.6167 154.771 34.6815 154.751C34.7463 154.731 34.8118 154.717 34.878 154.71C35.025 154.708 35.1724 154.773 35.3201 154.905C35.4677 155.036 35.5684 155.166 35.622 155.294C35.6331 155.4 35.583 155.56 35.4715 155.772C35.3586 155.971 35.2007 156.189 34.9979 156.424C34.807 156.645 34.5875 156.849 34.3394 157.035ZM33.6159 152.634C33.7044 152.585 33.827 152.478 33.9838 152.315C34.1538 152.15 34.3033 151.98 34.4322 151.806C34.5598 151.618 34.6187 151.478 34.6089 151.386C34.5936 151.24 34.4811 151.125 34.2714 151.04C34.075 150.953 33.828 150.959 33.5305 151.057C33.4273 151.095 33.3092 151.181 33.1761 151.316C33.043 151.45 32.912 151.604 32.7831 151.778C32.6528 151.939 32.5424 152.098 32.4518 152.255C32.3598 152.398 32.2981 152.512 32.2667 152.596C32.3266 152.656 32.4381 152.698 32.6011 152.721C32.7642 152.744 32.9383 152.746 33.1237 152.726C33.3222 152.705 33.4863 152.675 33.6159 152.634ZM36.3529 157.285C36.1384 157.281 35.9715 157.158 35.8524 156.916C35.7452 156.66 35.8138 156.358 36.0584 156.011C36.1177 155.938 36.2288 155.786 36.3919 155.555C36.5549 155.324 36.7351 155.064 36.9323 154.775C37.1414 154.472 37.3327 154.191 37.5062 153.932L38.3759 152.656L39.1776 151.689L40.1957 150.297C40.5483 149.831 40.842 149.506 41.0769 149.321C41.3103 149.122 41.5137 149.02 41.6872 149.016C41.8607 149.011 42.0206 149.068 42.1669 149.186C42.2372 149.219 42.2867 149.307 42.3152 149.452C42.357 149.594 42.3807 149.692 42.3863 149.745C42.4225 149.835 42.3632 150.035 42.2085 150.346C42.0524 150.644 41.7019 151.129 41.1569 151.802C40.8378 152.076 40.5782 152.344 40.3782 152.606C40.1915 152.867 40.1075 153.023 40.1263 153.074C39.9395 153.335 39.781 153.546 39.6507 153.707C39.5336 153.866 39.4099 154.026 39.2796 154.187C39.1612 154.334 39.0197 154.516 38.8552 154.734C38.7026 154.937 38.4988 155.226 38.2437 155.601C37.9545 156.033 37.634 156.421 37.2821 156.766C36.9288 157.098 36.6191 157.271 36.3529 157.285ZM41.3682 157.441C41.2755 157.451 41.1689 157.455 41.0484 157.454C40.9279 157.454 40.7871 157.388 40.6262 157.258C40.4667 157.141 40.2636 156.928 40.0171 156.619L39.6587 156.075L39.6608 156.095C39.5486 155.919 39.4163 155.679 39.2638 155.373C39.1231 155.054 39.0332 154.836 38.9942 154.719C38.9914 154.693 38.974 154.654 38.942 154.604C38.9232 154.553 38.8623 154.419 38.7592 154.202C38.6561 153.985 38.4642 153.624 38.1835 153.118L37.773 152.077C37.6643 151.807 37.5504 151.552 37.4313 151.31C37.3109 151.055 37.2126 150.885 37.1367 150.799C37.026 150.637 37.0075 150.525 37.0814 150.463C37.1685 150.401 37.2382 150.3 37.2904 150.16L37.3281 150.136C37.4201 149.993 37.5723 149.85 37.7848 149.707C38.0106 149.563 38.1984 149.503 38.3482 149.527C38.461 149.582 38.5815 149.71 38.7097 149.911C38.8497 150.097 38.9786 150.304 39.0963 150.533C39.2258 150.747 39.3341 150.949 39.4212 151.141L39.4191 151.121L39.7325 151.811L40.1451 152.872C40.1256 152.941 40.1528 153.072 40.2266 153.265C40.3137 153.456 40.4181 153.686 40.54 153.954L40.7092 154.418C40.7747 154.532 40.8548 154.657 40.9495 154.795C41.0429 154.919 41.115 155.032 41.1658 155.133L41.1637 155.114C41.248 155.279 41.3309 155.431 41.4124 155.569C41.4939 155.708 41.5594 155.821 41.6088 155.91C41.6715 155.997 41.7095 156.04 41.7227 156.039C41.8077 156.083 41.8509 156.112 41.8523 156.125C41.8669 156.137 41.8822 156.156 41.8982 156.181C41.9157 156.219 41.9397 156.257 41.9703 156.294C42.0142 156.329 42.0449 156.366 42.0623 156.404C42.1117 156.493 42.0978 156.615 42.0204 156.77C41.9431 156.925 41.8378 157.07 41.7047 157.205C41.5849 157.338 41.4727 157.417 41.3682 157.441ZM47.8262 155.859C47.5357 155.769 47.3138 155.632 47.1605 155.447C47.0073 155.262 46.9537 155.007 46.9997 154.681C47.0576 154.34 47.2521 153.898 47.5831 153.355C47.9259 152.797 48.4409 152.093 49.128 151.245C49.4953 150.791 49.8005 150.385 50.0437 150.024C50.2987 149.65 50.4221 149.423 50.4138 149.343C49.7902 149.395 49.137 149.484 48.4542 149.609C47.9686 149.701 47.6453 149.681 47.4844 149.551C47.3235 149.42 47.2134 149.265 47.1542 149.083C47.0316 148.936 47.0163 148.79 47.1083 148.647C47.2135 148.502 47.3546 148.38 47.5316 148.281C47.7204 148.167 47.8744 148.104 47.9936 148.092C48.0423 148.047 48.1925 148.011 48.444 147.984C48.7088 147.956 49.0146 147.938 49.3616 147.928C49.7072 147.905 50.0277 147.898 50.3231 147.907C50.6171 147.903 50.8191 147.915 50.9292 147.944C51.0922 147.967 51.2845 148.014 51.506 148.084C51.7408 148.153 51.9453 148.252 52.1195 148.381C52.2936 148.51 52.3904 148.667 52.4099 148.852C52.4252 148.998 52.4004 149.208 52.3356 149.482C52.2826 149.742 52.191 149.953 52.0607 150.114C51.7554 150.52 51.4119 150.945 51.03 151.386C50.6482 151.828 50.2987 152.26 49.9816 152.681C49.7935 152.928 49.5935 153.19 49.3816 153.467C49.1684 153.73 49.0583 153.956 49.0513 154.144C49.0979 154.206 49.1544 154.234 49.2206 154.227C49.2868 154.22 49.4296 154.178 49.6491 154.101C49.8818 154.023 50.2653 153.916 50.7997 153.78C51.4407 153.511 51.8992 153.416 52.1751 153.494C52.4628 153.558 52.629 153.674 52.6735 153.844C52.6672 153.911 52.6401 154.034 52.592 154.214C52.5438 154.393 52.4679 154.561 52.364 154.719C52.2734 154.876 52.1355 154.964 51.9502 154.984C51.9502 154.984 51.8728 155.012 51.7181 155.068C51.5635 155.125 51.3764 155.191 51.1569 155.268C50.9507 155.343 50.7444 155.418 50.5382 155.493C49.9843 155.699 49.5512 155.845 49.2391 155.931C48.927 156.017 48.6695 156.051 48.4668 156.032C48.2773 156.012 48.0637 155.954 47.8262 155.859ZM55.5139 155.573C54.7858 155.649 54.201 155.497 53.7593 155.115C53.3309 154.731 53.0708 154.103 52.979 153.229C52.9289 152.753 52.96 152.221 53.0722 151.633C53.1977 151.045 53.3776 150.464 53.6117 149.89C53.8592 149.316 54.1407 148.811 54.4564 148.376C54.7707 147.928 55.0982 147.606 55.4389 147.41C55.5643 147.33 55.6985 147.269 55.8413 147.227C55.996 147.17 56.1461 147.135 56.2917 147.119C56.4506 147.103 56.6241 147.098 56.8122 147.105C57.0121 147.097 57.2016 147.117 57.3807 147.165C57.6949 147.226 57.9784 147.377 58.2313 147.618C58.4974 147.858 58.6569 148.229 58.7098 148.732C58.7237 148.865 58.7257 149.012 58.716 149.173C58.7048 149.322 58.6738 149.472 58.6229 149.625C58.4967 150.08 58.2758 150.524 57.9601 150.959C57.6577 151.392 57.3228 151.709 56.9556 151.908C56.8553 151.972 56.7536 152.023 56.6505 152.06C56.5592 152.083 56.4606 152.1 56.3547 152.112C56.0767 152.141 55.821 152.128 55.5876 152.072C55.3675 152.015 55.1578 151.93 54.9585 151.817L54.7851 151.694L54.7067 151.903C54.6404 152.165 54.5965 152.383 54.5749 152.56C54.5665 152.735 54.5665 152.862 54.5748 152.941C54.5915 153.1 54.6155 153.265 54.6468 153.435C54.6768 153.593 54.7304 153.721 54.8077 153.82C54.8676 153.881 54.9394 153.927 55.023 153.958C55.1198 153.988 55.2344 153.996 55.3668 153.982C55.4462 153.974 55.519 153.966 55.5852 153.959C55.6633 153.938 55.7281 153.917 55.7796 153.899C56.0123 153.821 56.1952 153.714 56.3283 153.58C56.4733 153.431 56.6269 153.301 56.7893 153.19L56.8645 153.142L56.8384 153.085C57.0509 152.942 57.1955 152.853 57.2722 152.818C57.3474 152.77 57.4035 152.731 57.4404 152.7C57.4878 152.642 57.5446 152.609 57.6108 152.602C57.7933 152.556 57.9776 152.59 58.1636 152.704C58.3615 152.804 58.4701 152.947 58.4896 153.132C58.498 153.211 58.4516 153.343 58.3506 153.528C58.2627 153.711 58.1418 153.898 57.9878 154.088C57.8457 154.264 57.6934 154.407 57.5311 154.518C57.4927 154.535 57.4551 154.559 57.4182 154.59C57.3799 154.607 57.3422 154.631 57.3053 154.662L57.3252 154.66C57.2227 154.831 57.1119 154.923 56.9928 154.935L56.8339 154.952C56.7907 155.05 56.6291 155.168 56.349 155.304C56.0703 155.454 55.7919 155.543 55.5139 155.573ZM56.0435 150.679C56.1626 150.666 56.2664 150.635 56.3549 150.586C56.4567 150.535 56.5511 150.478 56.6382 150.415C56.9322 150.157 57.1068 149.844 57.1619 149.477C57.217 149.11 57.1554 148.842 56.9771 148.673C56.9464 148.636 56.9105 148.613 56.8694 148.604C56.8269 148.582 56.7792 148.574 56.7262 148.579C56.5806 148.595 56.42 148.658 56.2444 148.77C56.0821 148.881 55.9239 149.032 55.7699 149.222C55.6159 149.412 55.4786 149.634 55.3581 149.888L55.1437 150.332C55.1688 150.316 55.188 150.307 55.2012 150.306C55.2263 150.29 55.2455 150.281 55.2587 150.279C55.3778 150.267 55.4614 150.298 55.5095 150.374C55.5576 150.449 55.6123 150.523 55.6735 150.597C55.7481 150.67 55.8714 150.697 56.0435 150.679ZM60.2522 154.051C60.1992 154.056 60.0825 154.029 59.9021 153.967C59.7217 153.906 59.6314 153.875 59.6314 153.875C59.6259 153.822 59.5991 153.758 59.551 153.683C59.5162 153.606 59.496 153.541 59.4904 153.488C59.3922 153.445 59.2905 153.369 59.1853 153.26C59.0801 153.15 59.0463 153.02 59.084 152.869C59.1481 152.715 59.231 152.485 59.3328 152.18C59.4464 151.86 59.5632 151.507 59.6831 151.119C59.8148 150.717 59.9347 150.33 60.0428 149.957C60.1508 149.585 60.2446 149.267 60.324 149.004C60.4021 148.728 60.445 148.563 60.4527 148.509C60.4471 148.456 60.444 148.363 60.4433 148.229C60.4559 148.094 60.5301 147.972 60.666 147.864C60.8255 147.727 61.0035 147.701 61.2 147.788C61.3965 147.874 61.5748 148.043 61.735 148.294C61.8938 148.531 61.9913 148.822 62.0275 149.166C62.0372 149.259 61.9961 149.504 61.904 149.902C61.8106 150.287 61.6785 150.749 61.5077 151.289C61.3502 151.827 61.1669 152.375 60.9578 152.933C60.7996 153.337 60.6759 153.625 60.5866 153.795C60.5093 153.95 60.3978 154.036 60.2522 154.051ZM62.1534 146.162C61.9945 146.179 61.7949 146.126 61.5546 146.004C61.3274 145.881 61.116 145.716 60.9203 145.509C60.7245 145.302 60.6134 145.072 60.587 144.821C60.5801 144.755 60.6271 144.629 60.7282 144.445C60.8278 144.247 60.9216 144.056 61.0094 143.873C61.1104 143.688 61.1596 143.583 61.1568 143.556C61.2627 143.545 61.3905 143.552 61.5403 143.576C61.6901 143.601 61.8141 143.635 61.9123 143.678C62.0927 143.993 62.3146 144.258 62.5779 144.471C62.8399 144.671 62.9861 144.917 63.0167 145.208C63.0473 145.499 62.9975 145.725 62.8672 145.886C62.7355 146.034 62.4975 146.126 62.1534 146.162ZM65.8871 158.136C65.5317 158.321 65.1384 158.335 64.7072 158.18C64.2906 158.036 63.9151 157.775 63.5807 157.395C63.5194 157.321 63.4247 157.184 63.2965 156.983C63.1697 156.796 63.0409 156.588 62.9099 156.361C62.7922 156.133 62.6979 155.935 62.6268 155.769C62.569 155.601 62.5586 155.501 62.5955 155.471C62.6332 155.32 62.7433 155.221 62.9258 155.175C63.1084 155.129 63.2944 155.116 63.4839 155.137C63.6748 155.17 63.7876 155.225 63.8225 155.302C63.8719 155.39 63.9214 155.479 63.9708 155.567C64.0217 155.669 64.0777 155.757 64.139 155.831C64.215 155.916 64.2829 155.989 64.3428 156.05C64.512 156.26 64.6869 156.395 64.8673 156.457C65.0492 156.531 65.1829 156.531 65.2686 156.455C65.4756 156.259 65.6195 156.036 65.7004 155.787C65.7959 155.549 65.9056 155.13 66.0298 154.528C66.1239 154.023 66.2051 153.586 66.2735 153.217C66.3418 152.849 66.4195 152.506 66.5067 152.189C66.5297 152.026 66.5621 151.889 66.6039 151.777C66.6576 151.651 66.7081 151.559 66.7555 151.5L66.8746 151.488C66.6029 151.704 66.3775 151.915 66.1984 152.121C66.0193 152.327 65.7653 152.521 65.4364 152.703C65.3668 152.804 65.1745 152.884 64.8595 152.944C64.5565 152.989 64.2544 152.981 63.9535 152.919C63.757 152.833 63.5936 152.743 63.4634 152.649C63.3449 152.541 63.2384 152.419 63.1436 152.281C63.0621 152.143 62.9712 151.978 62.8709 151.788C62.7574 151.599 62.7101 151.276 62.729 150.819C62.7479 150.362 62.8197 149.9 62.9445 149.431C63.0685 149.084 63.2626 148.702 63.5268 148.286C63.7909 147.87 64.079 147.492 64.3912 147.151C64.702 146.797 64.9922 146.566 65.2619 146.458C65.3622 146.393 65.5413 146.314 65.7991 146.22C66.0555 146.113 66.3063 146.08 66.5515 146.121C66.7793 146.124 66.957 146.159 67.0845 146.226C67.2106 146.279 67.4178 146.405 67.7062 146.602C67.8964 146.756 68.1319 146.959 68.4126 147.21C68.692 147.449 68.8745 147.657 68.9601 147.836C69.0737 148.024 69.1165 148.241 69.0886 148.485C69.0593 148.715 68.9875 148.923 68.8732 149.109C68.7721 149.294 68.6645 149.479 68.5502 149.665C68.4359 149.851 68.3617 150.1 68.3275 150.412C68.303 150.816 68.2246 151.279 68.0921 151.801C67.9583 152.311 67.8606 152.783 67.7993 153.217L67.611 154.482C67.3983 155.642 67.1198 156.494 66.7755 157.039C66.4327 157.597 66.1365 157.963 65.8871 158.136ZM64.7521 151.349C65.0155 151.308 65.2378 151.258 65.4189 151.199C65.6119 151.125 65.7861 151 65.9415 150.823C66.0955 150.633 66.2669 150.354 66.4558 149.986C66.6475 149.645 66.7757 149.337 66.8405 149.062C66.9054 148.788 66.9072 148.486 66.8459 148.158C66.8104 147.948 66.7362 147.815 66.6234 147.76C66.5105 147.705 66.3694 147.7 66.2001 147.744C65.9528 147.81 65.7389 147.94 65.5584 148.133C65.3765 148.313 65.1713 148.588 64.9427 148.96C64.772 149.246 64.6399 149.581 64.5465 149.966C64.4558 150.377 64.4297 150.701 64.4679 150.938C64.5195 151.173 64.6142 151.31 64.7521 151.349ZM72.6357 153.532C72.4448 153.499 72.2497 153.426 72.0505 153.313C71.8512 153.2 71.6433 153.068 71.4266 152.916C71.2455 152.721 71.1128 152.541 71.0285 152.376C70.9429 152.198 70.8809 151.99 70.8426 151.753C70.8162 151.502 70.7828 151.184 70.7424 150.8C70.7257 150.641 70.7286 150.413 70.7509 150.117C70.7865 149.818 70.8207 149.507 70.8535 149.182C70.8995 148.856 70.9431 148.571 70.9842 148.325C71.024 148.067 71.0463 147.897 71.0512 147.817C71.0728 147.64 70.9962 147.548 70.8213 147.54C70.6465 147.531 70.4538 147.545 70.2434 147.58C70.0448 147.601 69.9104 147.595 69.84 147.562C69.7857 147.555 69.7522 147.491 69.7397 147.372C69.7258 147.24 69.7188 147.174 69.7188 147.174C69.7133 147.121 69.6833 147.09 69.629 147.083C69.5733 147.062 69.5221 147.02 69.4754 146.958C69.4433 146.908 69.466 146.805 69.5434 146.65C69.6207 146.495 69.7308 146.396 69.8736 146.354C69.99 146.315 70.1666 146.277 70.4035 146.238C70.639 146.187 70.8724 146.115 71.1037 146.024C71.3469 145.918 71.5263 145.779 71.642 145.606C71.7305 145.303 71.8302 144.978 71.9411 144.631C72.0505 144.272 72.1582 143.959 72.2641 143.694C72.3687 143.415 72.444 143.24 72.49 143.168C72.7025 143.025 72.9293 142.955 73.1703 142.956C73.41 142.944 73.6071 143.037 73.7618 143.235C73.8377 143.321 73.8976 143.382 73.9415 143.417C73.9986 143.451 74.0248 143.509 74.0199 143.59C74.0282 143.669 73.9906 143.82 73.9069 144.043C73.8351 144.252 73.709 144.579 73.5285 145.027C73.4762 145.166 73.4291 145.291 73.3873 145.403C73.3441 145.501 73.3225 145.55 73.3225 145.55C73.3768 145.558 73.457 145.556 73.5629 145.545C73.6688 145.534 73.8004 145.513 73.9579 145.483C74.1007 145.442 74.2575 145.405 74.4282 145.374C74.5975 145.329 74.7497 145.313 74.8849 145.326C75.1894 145.294 75.4235 145.356 75.5872 145.513C75.7509 145.67 75.8532 145.88 75.8943 146.143C75.9361 146.286 75.8964 146.417 75.7751 146.537C75.6539 146.657 75.4145 146.736 75.0571 146.773C74.938 146.786 74.7666 146.81 74.5429 146.847C74.3193 146.884 74.089 146.922 73.8521 146.96C73.6152 146.998 73.4121 147.04 73.2428 147.084C73.0854 147.114 73.008 147.142 73.0108 147.169C72.9739 147.2 72.9188 147.312 72.8456 147.507C72.7843 147.688 72.7205 147.909 72.6543 148.17C72.6013 148.43 72.5535 148.676 72.511 148.908C72.4656 149.368 72.4454 149.811 72.4502 150.239C72.455 150.667 72.4873 151.038 72.5472 151.353C72.6189 151.654 72.7213 151.864 72.8543 151.983C72.986 152.09 73.1647 152.071 73.3905 151.927C73.6281 151.768 73.8437 151.592 74.0374 151.397C74.2549 151.174 74.4538 151.093 74.6342 151.154C74.8133 151.202 74.9345 151.337 74.9978 151.557C75.0731 151.764 75.0378 152.002 74.8922 152.271C74.7598 152.539 74.557 152.775 74.2838 152.978C74.0107 153.18 73.7254 153.331 73.4279 153.429C73.1317 153.54 72.8677 153.575 72.6357 153.532ZM85.7584 152.273C85.6183 152.342 85.4556 152.386 85.2703 152.405C85.0996 152.436 84.8927 152.378 84.6496 152.229C84.5019 152.098 84.3932 151.955 84.3236 151.802C84.2672 151.647 84.2216 151.404 84.1868 151.073C84.1924 150.872 84.2154 150.582 84.2559 150.203C84.295 149.811 84.3393 149.405 84.3888 148.984C84.4502 148.55 84.5032 148.163 84.5478 147.823C84.6043 147.469 84.6528 147.23 84.6932 147.105C84.7525 146.778 84.7515 146.577 84.6902 146.503C84.6289 146.43 84.4652 146.4 84.199 146.415C83.8931 146.433 83.5907 146.612 83.2918 146.952C82.9929 147.291 82.6664 147.814 82.3123 148.52C82.0461 149.043 81.8966 149.467 81.8638 149.792C81.8296 150.103 81.8452 150.316 81.9107 150.429C81.9428 150.48 81.9926 150.508 82.0602 150.514C82.1396 150.506 82.2302 150.476 82.3319 150.425C82.4469 150.373 82.567 150.307 82.6925 150.227C82.7796 150.164 82.8865 150.099 83.0133 150.032C83.152 149.951 83.2847 149.877 83.4115 149.81C83.491 149.801 83.5488 149.842 83.585 149.932C83.6345 150.021 83.6661 150.131 83.68 150.263C83.6856 150.316 83.7093 150.414 83.7511 150.557C83.8061 150.699 83.8827 150.791 83.9809 150.834C84.0395 150.881 83.9388 151.006 83.6789 151.207C83.4308 151.394 83.1075 151.629 82.7089 151.911C82.3215 152.046 82.0285 152.123 81.83 152.144C81.6447 152.164 81.4304 152.099 81.1873 151.951C80.793 151.765 80.5109 151.373 80.341 150.775C80.1843 150.176 80.1928 149.492 80.3664 148.725C80.5553 148.102 80.7797 147.564 81.0397 147.108C81.3114 146.638 81.6007 146.206 81.9073 145.812C81.9547 145.754 82.109 145.63 82.3703 145.442C82.6316 145.254 82.903 145.099 83.1845 144.975C83.5043 144.835 83.7781 144.766 84.0059 144.769C84.2456 144.757 84.479 144.812 84.7061 144.936C84.9499 144.964 85.1081 144.94 85.1806 144.866C85.2663 144.79 85.3527 144.594 85.4398 144.277C85.6085 143.59 85.7898 142.895 85.9836 142.192C86.176 141.476 86.381 140.751 86.5984 140.019C86.7044 139.754 86.7636 139.553 86.7762 139.418C86.8006 139.268 86.8365 139.164 86.8839 139.106L87.4211 138.869C87.5625 138.814 87.735 138.862 87.9384 139.015C88.155 139.166 88.2982 139.318 88.3678 139.472C88.3803 139.591 88.3552 139.861 88.2925 140.283C88.2283 140.691 88.1063 141.186 87.9264 141.767C87.7661 142.279 87.6065 142.797 87.4476 143.323C87.3005 143.833 87.1635 144.376 87.0366 144.952C86.9341 145.378 86.8365 145.722 86.7438 145.986C86.6511 146.251 86.5946 146.477 86.5744 146.667C86.5312 147.019 86.4646 147.341 86.3746 147.631C86.2966 147.907 86.2432 148.1 86.2147 148.21C86.0954 148.731 86.0069 149.162 85.949 149.503C85.8897 149.83 85.8594 150.115 85.858 150.356C85.8551 150.584 85.8722 150.809 85.9091 151.033C85.9446 151.243 85.9968 151.485 86.0657 151.759C86.0713 151.812 86.0399 151.896 85.9716 152.01C85.9152 152.11 85.8441 152.198 85.7584 152.273ZM88.2463 151.43C88.1293 151.335 88.0332 151.184 87.9579 150.978C87.896 150.771 87.8612 150.567 87.8535 150.367C87.8445 150.154 87.8609 149.991 87.9027 149.88C87.8916 149.774 87.8965 149.693 87.9174 149.637C87.9502 149.567 87.9571 149.506 87.9383 149.455C87.9195 149.403 87.923 149.309 87.9488 149.172C87.9746 149.036 88.0011 148.906 88.0283 148.783C88.0987 148.561 88.1761 148.279 88.2604 147.935C88.3434 147.578 88.4264 147.222 88.5093 146.865C88.5909 146.495 88.6582 146.18 88.7112 145.92C88.7628 145.647 88.7924 145.483 88.8001 145.429C88.7834 145.27 88.8803 145.173 89.0907 145.138C89.244 145.068 89.4429 145.114 89.6874 145.276C89.9319 145.437 90.1315 145.617 90.2861 145.815C90.4032 145.91 90.4575 146.045 90.4491 146.219C90.4407 146.394 90.3804 146.648 90.2682 146.981C90.2264 147.093 90.1789 147.278 90.126 147.538C90.0848 147.783 90.0594 147.987 90.0496 148.149C90.0078 148.26 89.9576 148.419 89.899 148.626C89.8523 148.818 89.8115 149.003 89.7766 149.181C89.7571 149.25 89.7439 149.379 89.7369 149.567C89.7285 149.741 89.7142 149.924 89.6939 150.113C89.6737 150.303 89.6361 150.454 89.581 150.567C89.5189 151.122 89.3405 151.462 89.0458 151.587C88.7643 151.71 88.4978 151.658 88.2463 151.43ZM89.5539 143.242C89.3972 143.151 89.2715 143.037 89.1767 142.9C89.0938 142.748 89.0395 142.613 89.0138 142.496C89.0012 142.376 89.0068 142.302 89.0305 142.273C89.1476 142.113 89.2399 141.91 89.3075 141.662C89.3884 141.412 89.478 141.182 89.5762 140.971C89.5985 140.928 89.6261 140.872 89.6588 140.802C89.7034 140.717 89.7515 140.665 89.8031 140.646C89.9508 140.523 90.1699 140.507 90.4604 140.597C90.7642 140.685 90.9934 140.829 91.148 141.027C91.2936 141.266 91.3538 141.52 91.3287 141.791C91.3168 142.059 91.207 142.352 90.9994 142.668C90.8286 142.954 90.5952 143.152 90.2991 143.264C90.0016 143.362 89.7532 143.355 89.5539 143.242ZM92.0437 150.83C91.9148 150.75 91.7699 150.644 91.609 150.514C91.4613 150.382 91.3934 150.182 91.4053 149.913C91.406 149.538 91.4249 149.209 91.4619 148.924C91.4974 148.625 91.5421 148.286 91.5958 147.906C91.6056 147.744 91.6432 147.466 91.7088 147.071C91.7876 146.674 91.8827 146.243 91.9943 145.776C92.1058 145.309 92.2268 144.868 92.3571 144.453C92.4861 144.024 92.6063 143.704 92.7178 143.492C92.8495 143.344 93.0544 143.255 93.3324 143.226C93.6236 143.196 93.8277 143.228 93.9448 143.322C94.1029 143.426 94.1715 143.633 94.1506 143.943C94.1282 144.24 93.9909 144.716 93.7386 145.372C93.6891 145.538 93.6211 145.719 93.5347 145.915C93.4601 146.097 93.4092 146.25 93.382 146.373C93.3535 146.483 93.3716 146.528 93.4364 146.508C93.5005 146.354 93.6287 146.173 93.821 145.965C94.012 145.745 94.2168 145.529 94.4356 145.319C94.6544 145.108 94.8621 144.919 95.0586 144.751C95.2551 144.583 95.391 144.475 95.4662 144.427C95.5652 144.35 95.6787 144.284 95.8069 144.231C95.947 144.163 96.0421 144.112 96.0923 144.08C96.3814 143.903 96.7068 143.815 97.0684 143.817C97.4418 143.805 97.6787 143.894 97.779 144.084C97.8034 144.188 97.8514 144.264 97.9232 144.31C98.0082 144.354 98.0507 144.376 98.0507 144.376C98.1036 144.371 98.1322 144.388 98.1364 144.428C98.1538 144.466 98.1625 144.485 98.1625 144.485C98.1722 144.578 98.0935 144.72 97.9262 144.912C97.7722 145.102 97.59 145.215 97.3796 145.25C97.2089 145.281 97.0602 145.33 96.9333 145.397C96.8065 145.464 96.6546 145.547 96.4776 145.646C96.0052 145.99 95.5757 146.296 95.1889 146.564C94.8155 146.831 94.4413 147.218 94.0664 147.726C93.9848 147.842 93.896 147.952 93.7998 148.055C93.7036 148.159 93.6117 148.303 93.5238 148.486C93.4646 148.559 93.4137 148.712 93.3712 148.944C93.3287 149.176 93.292 149.4 93.2614 149.618C93.2425 149.821 93.2352 149.942 93.2393 149.981C93.2393 149.981 93.2264 150.05 93.2006 150.186C93.1735 150.31 93.1198 150.436 93.0396 150.565C92.9031 150.793 92.7581 150.942 92.6048 151.012C92.4648 151.08 92.2777 151.019 92.0437 150.83ZM104.631 149.768C104.528 149.805 104.39 149.833 104.218 149.851C104.045 149.856 103.89 149.852 103.755 149.84C103.632 149.813 103.568 149.779 103.564 149.739C103.557 149.673 103.52 149.644 103.454 149.651C103.454 149.651 103.376 149.605 103.219 149.515C103.061 149.411 102.919 149.339 102.795 149.298C102.656 149.126 102.554 148.922 102.49 148.688C102.437 148.439 102.47 147.994 102.59 147.352C102.559 146.927 102.631 146.471 102.808 145.984C102.983 145.484 103.219 144.991 103.516 144.505C103.812 144.018 104.128 143.584 104.463 143.201C104.796 142.804 105.099 142.505 105.372 142.302C105.538 142.097 105.772 141.972 106.075 141.927C106.392 141.88 106.676 141.911 106.928 142.018C107.067 142.07 107.227 142.187 107.407 142.369C107.586 142.551 107.761 142.747 107.93 142.957C108.098 143.153 108.231 143.333 108.328 143.497C108.383 143.638 108.43 143.767 108.469 143.884C108.52 143.985 108.561 144.115 108.59 144.272C108.62 144.43 108.632 144.67 108.626 144.992C108.585 145.237 108.551 145.488 108.524 145.745C108.51 145.987 108.516 146.234 108.542 146.486C108.542 146.74 108.587 146.916 108.678 147.014C108.782 147.11 108.915 147.103 109.077 146.992C109.228 146.896 109.392 146.872 109.571 146.92C109.749 146.955 109.879 147.048 109.962 147.2C110.057 147.337 110.057 147.531 109.963 147.782C109.902 147.962 109.793 148.141 109.638 148.318C109.483 148.495 109.305 148.648 109.104 148.776C108.902 148.891 108.702 148.959 108.503 148.979C108.357 148.995 108.206 148.957 108.049 148.867C107.891 148.763 107.742 148.618 107.602 148.432C107.462 148.246 107.34 148.038 107.235 147.808L107.068 147.364L106.422 148.094C106.27 148.297 106.116 148.488 105.96 148.665C105.817 148.827 105.729 148.943 105.696 149.014C105.642 149.14 105.521 149.259 105.332 149.373C105.157 149.485 104.923 149.617 104.631 149.768ZM104.967 147.805C105.178 147.649 105.353 147.47 105.492 147.268C105.645 147.065 105.789 146.842 105.924 146.6C106.058 146.346 106.204 146.076 106.361 145.792C106.554 145.464 106.687 145.202 106.76 145.007C106.847 144.81 106.905 144.604 106.936 144.386C106.868 144.246 106.779 144.102 106.67 143.952C106.559 143.79 106.457 143.707 106.362 143.704C106.177 143.723 105.964 143.859 105.723 144.112C105.495 144.364 105.251 144.717 104.991 145.173C104.945 145.245 104.89 145.357 104.826 145.511C104.762 145.665 104.697 145.813 104.631 145.953C104.578 146.079 104.54 146.164 104.518 146.206C104.483 146.263 104.437 146.395 104.378 146.602C104.332 146.795 104.292 146.993 104.26 147.197C104.227 147.388 104.214 147.523 104.223 147.602C104.231 147.682 104.247 147.767 104.27 147.858C104.306 147.948 104.378 148.001 104.487 148.016C104.596 148.032 104.756 147.961 104.967 147.805ZM111.106 148.887C110.965 148.821 110.808 148.724 110.634 148.595C110.458 148.453 110.363 148.309 110.348 148.163C110.327 147.965 110.327 147.717 110.35 147.42C110.371 147.11 110.397 146.846 110.427 146.629C110.429 146.388 110.437 146.146 110.451 145.904C110.478 145.647 110.546 145.405 110.656 145.18C110.749 144.661 110.849 144.149 110.957 143.642C111.063 143.123 111.147 142.592 111.211 142.05C111.331 141.542 111.438 141.096 111.532 140.711C111.637 140.312 111.765 139.81 111.916 139.205C112 138.862 112.062 138.5 112.103 138.121C112.155 137.728 112.258 137.369 112.411 137.045C112.478 136.918 112.527 136.812 112.559 136.728C112.602 136.63 112.646 136.539 112.69 136.454C112.698 136.399 112.759 136.346 112.874 136.294C113.003 136.24 113.133 136.206 113.265 136.192C113.409 136.164 113.512 136.18 113.571 136.241C113.61 136.223 113.682 136.269 113.787 136.379C113.89 136.475 113.99 136.591 114.084 136.729C114.191 136.851 114.242 136.953 114.237 137.034C114.243 137.087 114.237 137.161 114.22 137.256C114.217 137.351 114.193 137.44 114.148 137.525C114.101 137.584 114.056 137.669 114.014 137.78C113.984 137.877 113.932 138.016 113.857 138.198C113.823 138.376 113.795 138.559 113.775 138.749C113.753 138.925 113.717 139.089 113.666 139.242C113.63 139.406 113.58 139.566 113.515 139.72C113.465 139.872 113.431 139.996 113.414 140.092C113.353 140.406 113.272 140.715 113.17 141.021C113.082 141.324 113.009 141.647 112.951 141.987C112.892 142.315 112.834 142.655 112.777 143.009C112.719 143.35 112.62 143.682 112.48 144.004C112.403 144.16 112.356 144.352 112.34 144.581C112.324 144.81 112.308 145.039 112.292 145.269C112.238 145.515 112.188 145.748 112.144 145.967C112.112 146.171 112.099 146.299 112.105 146.352C112.056 146.652 112.027 146.949 112.018 147.245C112.021 147.526 111.98 147.778 111.896 148C111.897 148.134 111.866 148.285 111.803 148.452C111.741 148.619 111.647 148.749 111.523 148.843C111.412 148.935 111.273 148.949 111.106 148.887ZM113.974 149.669C113.795 149.621 113.645 149.53 113.523 149.395C113.404 149.274 113.323 149.082 113.282 148.818C113.251 148.648 113.231 148.396 113.223 148.062C113.213 147.715 113.223 147.366 113.253 147.015C113.25 146.988 113.247 146.962 113.245 146.935C113.254 146.894 113.258 146.867 113.256 146.854C113.264 146.799 113.269 146.719 113.271 146.611C113.272 146.491 113.275 146.397 113.281 146.329C113.299 146.247 113.312 146.239 113.319 146.305L113.382 145.756C113.41 145.513 113.444 145.261 113.483 145.003C113.523 144.744 113.56 144.52 113.593 144.329C113.638 144.123 113.666 144.007 113.677 143.979C113.677 143.979 113.689 143.904 113.713 143.754C113.75 143.59 113.786 143.425 113.822 143.261C113.964 142.577 114.105 142.006 114.245 141.55C114.397 141.092 114.536 140.757 114.661 140.543C114.67 140.502 114.685 140.453 114.706 140.398C114.725 140.329 114.739 140.274 114.749 140.232C114.733 140.087 114.729 139.98 114.735 139.913C114.755 139.844 114.781 139.781 114.816 139.723C114.836 139.668 114.869 139.597 114.914 139.512C114.957 139.414 115.005 139.295 115.057 139.156L115.113 138.929C115.175 138.749 115.253 138.54 115.349 138.302C115.443 138.051 115.51 137.864 115.55 137.739C115.578 137.616 115.643 137.468 115.745 137.297C115.846 137.112 115.967 136.986 116.107 136.918L116.085 136.9C116.138 136.774 116.254 136.668 116.433 136.582C116.61 136.483 116.758 136.428 116.877 136.415C117.062 136.396 117.207 136.434 117.311 136.53C117.428 136.625 117.496 136.765 117.515 136.95C117.536 137.149 117.545 137.295 117.541 137.389C117.55 137.469 117.513 137.566 117.432 137.682L117.451 137.68C117.475 137.65 117.473 137.691 117.444 137.801C117.416 137.911 117.39 137.987 117.368 138.03C117.348 138.099 117.323 138.175 117.292 138.259C117.273 138.341 117.247 138.404 117.211 138.448C117.177 138.505 117.09 138.701 116.952 139.037C116.812 139.36 116.658 139.744 116.491 140.19C116.322 140.622 116.159 141.048 116.002 141.466C115.857 141.869 115.756 142.181 115.699 142.401L115.631 142.709C115.624 142.764 115.621 142.804 115.624 142.831C115.594 142.927 115.564 143.024 115.534 143.121C115.504 143.218 115.473 143.302 115.44 143.372L115.252 144.636L115.216 145.062L115.085 145.537L115.006 145.927C114.988 146.009 114.977 146.097 114.973 146.191C114.97 146.285 114.95 146.354 114.915 146.398C114.916 146.412 114.912 146.432 114.901 146.46C114.903 146.473 114.904 146.486 114.905 146.5C114.875 146.717 114.813 147.025 114.721 147.422C114.642 147.819 114.614 148.25 114.636 148.716C114.638 148.729 114.633 148.743 114.621 148.758C114.622 148.771 114.624 148.785 114.625 148.798C114.614 149.08 114.551 149.301 114.434 149.46C114.331 149.632 114.178 149.701 113.974 149.669ZM118.216 148.44C117.677 148.283 117.284 147.976 117.035 147.521C116.786 147.065 116.667 146.435 116.676 145.631C116.659 145.218 116.617 144.948 116.551 144.821C116.482 144.681 116.368 144.552 116.209 144.435C116.164 144.387 116.062 144.31 115.904 144.206C115.744 144.089 115.668 143.997 115.674 143.93C115.651 143.838 115.659 143.724 115.698 143.586C115.736 143.435 115.774 143.35 115.812 143.333C115.9 143.283 115.988 143.227 116.075 143.165C116.176 143.101 116.254 143.079 116.309 143.1C116.362 143.094 116.445 143.119 116.558 143.174C116.684 143.228 116.75 143.281 116.756 143.334C116.818 143.421 116.894 143.373 116.981 143.19C117.082 143.005 117.185 142.774 117.29 142.495C117.4 142.269 117.544 142.053 117.724 141.847C117.903 141.641 118.084 141.454 118.267 141.288C118.462 141.107 118.628 140.969 118.766 140.874C118.829 140.841 118.951 140.788 119.13 140.715C119.323 140.642 119.524 140.58 119.733 140.532C119.941 140.47 120.099 140.44 120.206 140.442C120.445 140.43 120.707 140.503 120.992 140.66C121.276 140.818 121.499 140.968 121.661 141.112C121.846 141.213 121.978 141.386 122.057 141.632C122.149 141.864 122.202 142.112 122.216 142.379C122.231 142.645 122.201 142.875 122.128 143.07C122.103 143.207 121.983 143.407 121.77 143.67C121.557 143.934 121.316 144.193 121.049 144.449C120.793 144.69 120.57 144.86 120.38 144.961C120.212 145.018 120.01 145.073 119.774 145.125C119.538 145.163 119.313 145.187 119.099 145.196C118.898 145.19 118.756 145.172 118.672 145.14C118.574 145.097 118.496 145.125 118.44 145.225C118.395 145.31 118.373 145.54 118.372 145.915C118.374 146.062 118.387 146.187 118.412 146.292C118.449 146.395 118.484 146.472 118.516 146.522C118.625 146.671 118.731 146.78 118.832 146.85C118.931 146.906 119.105 146.908 119.354 146.855C119.603 146.802 119.838 146.624 120.061 146.319C120.295 146 120.509 145.743 120.702 145.549C120.746 145.451 120.852 145.379 121.021 145.335C121.202 145.276 121.422 145.266 121.681 145.306C121.836 145.383 121.918 145.522 121.925 145.722C121.946 145.92 121.871 146.223 121.699 146.629C121.669 146.726 121.571 146.876 121.406 147.081C121.252 147.271 121.078 147.47 120.886 147.678C120.706 147.871 120.553 148.014 120.429 148.107C120.054 148.361 119.674 148.501 119.289 148.528C118.904 148.555 118.546 148.526 118.216 148.44ZM119.216 143.818C119.409 143.744 119.568 143.674 119.695 143.607C119.835 143.539 119.965 143.438 120.085 143.305C120.205 143.172 120.338 142.978 120.486 142.721C120.523 142.57 120.536 142.441 120.525 142.336C120.527 142.228 120.514 142.163 120.485 142.139C120.368 142.044 120.245 142.024 120.117 142.077C120 142.116 119.875 142.196 119.74 142.318C119.652 142.367 119.529 142.467 119.37 142.617C119.224 142.753 119.08 142.909 118.938 143.085C118.807 143.245 118.703 143.397 118.624 143.539C118.557 143.667 118.552 143.741 118.607 143.762C118.586 143.817 118.663 143.843 118.836 143.838C119.023 143.832 119.149 143.825 119.216 143.818ZM124.204 148.112C123.734 147.974 123.383 147.817 123.15 147.641C122.93 147.45 122.831 147.273 122.854 147.11C122.872 147.028 122.91 146.95 122.97 146.877C123.029 146.804 123.172 146.762 123.398 146.751C123.637 146.726 124.007 146.748 124.509 146.815C124.655 146.8 124.8 146.778 124.944 146.75C125.088 146.721 125.218 146.687 125.335 146.648C125.464 146.608 125.567 146.564 125.642 146.516C125.705 146.482 125.722 146.447 125.691 146.41C125.659 146.36 125.607 146.312 125.535 146.266C125.476 146.205 125.412 146.172 125.344 146.165C125.275 146.146 125.214 146.139 125.161 146.144C125.128 146.081 125.061 146.021 124.962 145.965C124.875 145.907 124.768 145.845 124.641 145.778C124.325 145.57 124.038 145.386 123.78 145.226C123.522 145.065 123.415 144.936 123.458 144.838C123.453 144.785 123.45 144.758 123.45 144.758C123.448 144.745 123.448 144.739 123.448 144.739C123.355 144.748 123.256 144.632 123.15 144.388C123.043 144.132 122.978 143.898 122.956 143.686C122.928 143.421 122.953 143.151 123.031 142.875C123.122 142.598 123.241 142.331 123.389 142.075C123.549 141.817 123.712 141.586 123.878 141.381C124.104 141.116 124.345 140.857 124.599 140.602C124.865 140.334 125.154 140.089 125.465 139.869C125.79 139.647 126.152 139.462 126.551 139.313C126.732 139.254 126.942 139.212 127.18 139.187C127.419 139.162 127.594 139.177 127.707 139.232C127.806 139.154 127.941 139.16 128.111 139.25C128.279 139.326 128.452 139.441 128.629 139.597C128.806 139.752 128.943 139.912 129.041 140.075C129.057 140.234 129.071 140.433 129.083 140.673C129.107 140.898 129.115 141.098 129.106 141.273C129.098 141.448 129.047 141.54 128.955 141.55C128.955 141.55 128.935 141.559 128.897 141.576C128.871 141.579 128.861 141.613 128.868 141.68C128.882 141.812 128.798 141.975 128.618 142.168C128.385 142.366 128.161 142.53 127.947 142.66C127.733 142.789 127.562 142.814 127.433 142.734C127.348 142.689 127.269 142.644 127.198 142.598C127.126 142.552 127.059 142.492 126.998 142.418C126.998 142.418 126.975 142.394 126.93 142.345C126.897 142.282 126.877 142.223 126.872 142.17C126.866 142.117 126.881 142.069 126.917 142.025C126.951 141.968 126.968 141.939 126.968 141.939C127.135 141.748 127.257 141.574 127.335 141.419C127.425 141.262 127.485 141.129 127.514 141.019C127.541 140.895 127.551 140.801 127.544 140.735C127.536 140.655 127.511 140.611 127.47 140.602C127.44 140.578 127.373 140.572 127.267 140.583C127.201 140.59 127.061 140.658 126.847 140.788C126.646 140.916 126.435 141.072 126.213 141.256C125.99 141.426 125.819 141.578 125.699 141.711C125.656 141.81 125.623 141.873 125.599 141.903C125.588 141.931 125.557 141.947 125.504 141.953C125.498 141.9 125.466 141.91 125.407 141.983C125.347 142.056 125.278 142.157 125.197 142.286C125.117 142.415 125.038 142.55 124.959 142.693C124.88 142.835 124.819 142.948 124.774 143.033C124.773 143.154 124.752 143.27 124.71 143.381C124.68 143.478 124.678 143.579 124.702 143.683C124.729 143.814 124.808 143.933 124.94 144.04C125.072 144.146 125.26 144.28 125.504 144.442C126.004 144.738 126.377 144.973 126.623 145.148C126.882 145.321 127.064 145.463 127.169 145.572C127.274 145.682 127.346 145.794 127.385 145.911C127.653 146.297 127.718 146.652 127.577 146.975C127.436 147.284 127.195 147.537 126.854 147.733C126.729 147.813 126.503 147.897 126.178 147.985C125.854 148.086 125.506 148.149 125.134 148.175C124.776 148.213 124.466 148.192 124.204 148.112ZM128.97 149.217C128.824 149.233 128.695 149.213 128.582 149.158C128.482 149.101 128.401 149.03 128.339 148.942C128.329 148.85 128.347 148.768 128.393 148.696C128.439 148.624 128.503 148.537 128.586 148.435C128.718 148.287 128.84 148.107 128.951 147.894C129.064 147.695 129.163 147.491 129.248 147.281C129.346 147.07 129.422 146.901 129.476 146.775C129.514 146.624 129.548 146.446 129.58 146.242C129.613 146.038 129.643 145.814 129.67 145.57C129.659 145.464 129.65 145.372 129.641 145.292C129.645 145.198 129.67 145.122 129.718 145.063C129.814 144.96 129.931 144.867 130.07 144.785C130.22 144.689 130.375 144.7 130.535 144.817C130.706 144.919 130.858 145.218 130.99 145.713C131.074 145.998 131.102 146.263 131.074 146.507C131.046 146.751 130.964 147.054 130.828 147.416C130.811 147.511 130.728 147.674 130.578 147.904C130.442 148.132 130.296 148.342 130.142 148.532C130.003 148.734 129.913 148.837 129.874 148.841C129.821 148.847 129.776 148.865 129.739 148.896C129.703 148.939 129.655 148.991 129.595 149.051C129.547 149.11 129.471 149.145 129.365 149.156C129.26 149.18 129.129 149.201 128.97 149.217ZM138.962 145.838C138.764 145.859 138.55 145.734 138.321 145.464C138.09 145.18 137.892 144.826 137.727 144.402C137.575 143.976 137.49 143.55 137.472 143.124C137.428 142.7 137.412 142.361 137.426 142.105C137.451 141.835 137.477 141.571 137.503 141.314C137.534 141.23 137.547 141.162 137.542 141.109C137.549 141.055 137.554 140.967 137.554 140.847C137.568 140.725 137.594 140.521 137.631 140.237C137.66 140.006 137.693 139.815 137.731 139.664C137.782 139.511 137.825 139.406 137.859 139.349C137.995 139.121 138.161 138.976 138.355 138.916C138.548 138.842 138.729 138.843 138.898 138.919C139.079 138.993 139.193 139.122 139.239 139.305C139.326 139.362 139.381 139.51 139.406 139.749C139.443 139.972 139.455 140.212 139.442 140.468C139.427 140.71 139.386 140.889 139.317 141.003C139.298 141.072 139.283 141.247 139.272 141.53C139.275 141.81 139.273 142.105 139.265 142.414C139.27 142.721 139.263 142.969 139.243 143.159C139.228 143.401 139.257 143.552 139.33 143.611C139.415 143.656 139.542 143.582 139.709 143.391C139.888 143.185 140.112 142.833 140.381 142.336C140.604 141.912 140.763 141.58 140.859 141.343C140.967 141.104 141.045 140.888 141.092 140.696C141.152 140.502 141.215 140.275 141.281 140.013C141.325 139.795 141.367 139.616 141.406 139.478C141.458 139.339 141.508 139.24 141.555 139.182C141.678 138.955 141.861 138.848 142.104 138.863C142.358 138.863 142.57 138.908 142.74 138.997C142.916 139.139 143.031 139.348 143.087 139.623C143.155 139.883 143.126 140.181 143 140.515C142.917 140.738 142.837 141.001 142.762 141.303C142.7 141.604 142.651 141.904 142.615 142.202C142.593 142.499 142.593 142.753 142.615 142.965C142.643 143.23 142.693 143.385 142.765 143.431C142.848 143.462 142.943 143.473 143.049 143.461C143.208 143.445 143.354 143.376 143.489 143.255C143.622 143.12 143.812 142.893 144.06 142.572C144.166 142.441 144.293 142.247 144.44 141.99C144.587 141.734 144.726 141.465 144.857 141.183C145.001 140.901 145.116 140.654 145.201 140.445C145.298 140.22 145.344 140.082 145.338 140.029C145.33 139.949 145.378 139.831 145.481 139.672C145.55 139.558 145.601 139.472 145.635 139.415C145.681 139.344 145.767 139.268 145.892 139.188C145.992 139.123 146.111 139.104 146.247 139.13C146.383 139.143 146.502 139.197 146.606 139.293C146.678 139.339 146.738 139.467 146.787 139.676C146.847 139.87 146.886 140.047 146.903 140.206C146.878 140.355 146.84 140.567 146.789 140.84C146.736 141.1 146.675 141.354 146.608 141.602C146.552 141.835 146.495 141.995 146.437 142.081C146.39 142.14 146.308 142.249 146.191 142.408C146.072 142.555 145.968 142.713 145.879 142.883C145.59 143.315 145.379 143.598 145.246 143.732C145.112 143.867 144.999 143.993 144.904 144.11C144.655 144.417 144.361 144.675 144.022 144.885C143.681 145.081 143.353 145.21 143.038 145.269C142.722 145.316 142.464 145.283 142.265 145.17C141.832 145.001 141.589 144.665 141.537 144.162C141.525 144.057 141.496 143.966 141.448 143.891C141.412 143.801 141.393 143.756 141.393 143.756C141.34 143.761 141.269 143.782 141.179 143.819C141.103 143.853 141.026 143.955 140.95 144.124C140.855 144.361 140.674 144.614 140.408 144.883C140.153 145.138 139.889 145.359 139.614 145.549C139.339 145.725 139.121 145.822 138.962 145.838ZM147.928 145.077C147.864 144.976 147.734 144.883 147.538 144.796C147.354 144.709 147.26 144.638 147.254 144.585C147.249 144.532 147.207 144.456 147.13 144.357C147.065 144.244 147.003 144.163 146.944 144.116C146.87 144.044 146.869 143.85 146.943 143.534C147.016 143.205 147.134 142.804 147.299 142.332C147.463 141.86 147.647 141.379 147.85 140.889C147.944 140.772 148.036 140.622 148.124 140.439C148.211 140.255 148.279 140.135 148.326 140.076C148.321 140.023 148.336 139.975 148.371 139.931C148.406 139.874 148.449 139.842 148.502 139.837L148.627 139.502C148.648 139.447 148.717 139.332 148.832 139.16C148.961 138.985 149.115 138.795 149.294 138.589C149.472 138.37 149.651 138.163 149.832 137.97C150.025 137.776 150.184 137.632 150.308 137.539C150.567 137.324 150.842 137.208 151.135 137.191C151.441 137.172 151.709 137.238 151.939 137.388C151.982 137.423 152.077 137.494 152.222 137.599C152.38 137.703 152.553 137.818 152.74 137.946C152.941 138.072 153.113 138.188 153.258 138.293L154.062 138.871L153.829 139.899C153.712 140.447 153.715 140.915 153.836 141.304C153.957 141.693 154.119 142.024 154.322 142.297C154.403 142.435 154.501 142.539 154.615 142.607C154.743 142.674 154.901 142.711 155.089 142.718C155.196 142.72 155.299 142.749 155.399 142.806C155.499 142.862 155.556 142.963 155.571 143.109C155.605 143.427 155.57 143.665 155.466 143.823C155.374 143.966 155.263 144.058 155.133 144.098C154.702 144.197 154.28 144.195 153.868 144.091C153.455 143.987 153.058 143.647 152.677 143.072C152.615 142.998 152.527 142.86 152.412 142.658C152.309 142.441 152.247 142.301 152.227 142.236C152.181 142.307 152.118 142.401 152.036 142.517C151.966 142.618 151.896 142.712 151.825 142.8C150.985 143.852 150.243 144.559 149.599 144.921C148.966 145.269 148.409 145.321 147.928 145.077ZM148.847 143.314C148.941 143.317 149.082 143.256 149.27 143.129C149.456 142.989 149.7 142.769 150.003 142.469C150.413 142.038 150.75 141.682 151.015 141.399C151.28 141.117 151.53 140.763 151.767 140.337L152.128 139.576C151.964 139.285 151.824 139.099 151.708 139.018C151.593 138.936 151.482 138.901 151.376 138.912C151.204 138.93 151.011 139.064 150.796 139.315C150.58 139.551 150.342 139.898 150.082 140.353C149.834 140.794 149.557 141.345 149.252 142.006C149.111 142.316 149.008 142.614 148.945 142.902C148.88 143.176 148.847 143.314 148.847 143.314ZM157.839 144.577C157.416 144.621 157.016 144.57 156.639 144.422C156.274 144.26 155.971 144.051 155.73 143.795C155.487 143.526 155.352 143.259 155.324 142.994C155.312 142.875 155.323 142.787 155.357 142.73C155.404 142.671 155.474 142.637 155.567 142.628C155.634 142.634 155.717 142.659 155.815 142.702C155.914 142.745 156.013 142.795 156.112 142.851C156.339 142.975 156.581 143.043 156.836 143.056C157.092 143.07 157.316 143.033 157.507 142.946C157.698 142.845 157.798 142.714 157.807 142.553C157.802 142.5 157.764 142.39 157.692 142.223C157.621 142.057 157.538 141.898 157.442 141.748C157.059 141.293 156.805 140.851 156.68 140.423C156.553 139.981 156.453 139.536 156.379 139.089C156.36 138.904 156.424 138.69 156.573 138.446C156.72 138.19 156.907 137.936 157.135 137.685C157.388 137.417 157.669 137.16 157.978 136.913C158.299 136.666 158.618 136.451 158.934 136.271C159.25 136.091 159.518 135.975 159.741 135.925C159.979 135.9 160.232 135.887 160.499 135.886C160.779 135.87 160.969 135.896 161.07 135.966C161.271 136.092 161.468 136.312 161.661 136.627C161.855 136.941 161.964 137.211 161.987 137.436C161.999 137.542 161.953 137.68 161.85 137.852C161.76 138.008 161.678 138.184 161.605 138.379C161.562 138.477 161.526 138.582 161.497 138.692C161.468 138.802 161.433 138.913 161.391 139.024C161.332 139.218 161.194 139.312 160.98 139.308C160.777 139.289 160.58 139.203 160.39 139.049C160.199 138.882 160.09 138.679 160.065 138.441C160.044 138.242 160.086 138.064 160.19 137.906C160.294 137.747 160.343 137.642 160.337 137.589C160.334 137.563 160.319 137.544 160.291 137.534C160.263 137.523 160.216 137.521 160.15 137.528C160.057 137.538 159.909 137.594 159.706 137.695C159.514 137.783 159.313 137.904 159.102 138.06C158.891 138.216 158.702 138.397 158.536 138.601C158.419 138.761 158.324 138.932 158.249 139.113C158.186 139.281 158.165 139.457 158.184 139.642C158.204 139.828 158.26 140.042 158.352 140.287C158.457 140.517 158.564 140.706 158.673 140.856C158.702 140.879 158.75 140.948 158.815 141.062C158.892 141.16 158.979 141.285 159.075 141.436C159.671 142.39 159.829 143.13 159.549 143.654C159.283 144.178 158.713 144.485 157.839 144.577ZM172.045 143.204C171.905 143.273 171.743 143.316 171.557 143.336C171.387 143.367 171.18 143.309 170.937 143.16C170.789 143.029 170.68 142.886 170.611 142.733C170.554 142.578 170.509 142.335 170.474 142.004C170.479 141.803 170.502 141.513 170.543 141.134C170.582 140.742 170.626 140.335 170.676 139.915C170.737 139.481 170.79 139.094 170.835 138.754C170.891 138.4 170.94 138.161 170.98 138.036C171.04 137.709 171.039 137.508 170.977 137.434C170.916 137.36 170.752 137.331 170.486 137.345C170.18 137.364 169.878 137.543 169.579 137.882C169.28 138.222 168.953 138.745 168.599 139.451C168.333 139.974 168.184 140.398 168.151 140.723C168.117 141.034 168.132 141.247 168.198 141.36C168.23 141.41 168.28 141.439 168.347 141.445C168.427 141.437 168.517 141.407 168.619 141.356C168.734 141.304 168.854 141.238 168.98 141.158C169.067 141.095 169.174 141.03 169.3 140.963C169.439 140.882 169.572 140.808 169.699 140.741C169.778 140.732 169.836 140.773 169.872 140.863C169.921 140.952 169.953 141.062 169.967 141.194C169.973 141.247 169.996 141.345 170.038 141.488C170.093 141.629 170.17 141.722 170.268 141.765C170.326 141.812 170.226 141.937 169.966 142.138C169.718 142.325 169.395 142.559 168.996 142.842C168.609 142.977 168.316 143.054 168.117 143.075C167.932 143.095 167.717 143.03 167.474 142.882C167.08 142.696 166.798 142.304 166.628 141.706C166.471 141.107 166.48 140.423 166.653 139.655C166.842 139.033 167.067 138.494 167.327 138.039C167.598 137.569 167.888 137.137 168.194 136.743C168.242 136.685 168.396 136.561 168.657 136.373C168.919 136.185 169.19 136.029 169.472 135.906C169.791 135.766 170.065 135.697 170.293 135.699C170.533 135.688 170.766 135.743 170.993 135.867C171.237 135.895 171.395 135.871 171.468 135.797C171.553 135.721 171.64 135.524 171.727 135.207C171.896 134.52 172.077 133.826 172.271 133.123C172.463 132.406 172.668 131.682 172.885 130.95C172.991 130.685 173.051 130.484 173.063 130.349C173.088 130.199 173.124 130.095 173.171 130.037L173.708 129.799C173.85 129.744 174.022 129.793 174.225 129.946C174.442 130.097 174.585 130.249 174.655 130.403C174.667 130.522 174.642 130.792 174.579 131.214C174.515 131.622 174.393 132.117 174.213 132.698C174.053 133.21 173.894 133.728 173.735 134.254C173.588 134.764 173.451 135.307 173.324 135.883C173.221 136.308 173.124 136.653 173.031 136.917C172.938 137.181 172.882 137.408 172.861 137.598C172.818 137.95 172.752 138.272 172.662 138.562C172.584 138.838 172.53 139.031 172.502 139.141C172.382 139.662 172.294 140.093 172.236 140.434C172.177 140.761 172.146 141.046 172.145 141.287C172.142 141.514 172.159 141.74 172.196 141.964C172.232 142.174 172.284 142.416 172.353 142.69C172.358 142.743 172.327 142.827 172.259 142.941C172.202 143.041 172.131 143.128 172.045 143.204ZM179.347 142.316C179.26 142.379 179.132 142.372 178.963 142.297C178.808 142.219 178.648 142.095 178.483 141.925C178.373 141.776 178.284 141.625 178.214 141.472C178.156 141.304 178.11 141.054 178.075 140.724C178.061 140.457 178.042 140.279 178.019 140.187C178.008 140.082 177.948 140.081 177.838 140.186C177.741 140.277 177.543 140.498 177.246 140.851C176.949 141.217 176.662 141.535 176.382 141.805C176.115 142.061 175.887 142.192 175.701 142.198C175.608 142.207 175.476 142.161 175.305 142.059C175.133 141.956 174.966 141.827 174.802 141.67C174.637 141.5 174.513 141.339 174.43 141.187C174.317 140.878 174.268 140.468 174.281 139.958C174.307 139.447 174.378 138.91 174.493 138.35C174.607 137.776 174.745 137.239 174.906 136.74C175.08 136.227 175.257 135.813 175.438 135.5C175.631 135.172 175.808 135.006 175.968 135.003C176.196 135.005 176.4 135.098 176.58 135.28C176.771 135.447 176.925 135.638 177.042 135.853C177.104 135.94 177.132 136.018 177.126 136.085C177.133 136.152 177.088 136.237 176.992 136.34C176.89 136.512 176.769 136.759 176.629 137.081C176.5 137.389 176.368 137.724 176.232 138.087C176.11 138.447 175.999 138.794 175.9 139.125C175.813 139.442 175.753 139.703 175.721 139.907C175.689 140.111 175.699 140.21 175.752 140.205C175.938 140.185 176.105 140.121 176.254 140.012C176.402 139.889 176.583 139.703 176.797 139.453C177.046 139.145 177.262 138.842 177.444 138.541C177.626 138.228 177.809 137.874 177.995 137.48C178.14 137.197 178.288 136.887 178.44 136.55C178.605 136.211 178.707 135.973 178.746 135.835C178.895 135.471 179.007 135.198 179.082 135.017C179.156 134.835 179.258 134.717 179.386 134.663C179.452 134.656 179.545 134.647 179.664 134.634C179.783 134.622 179.842 134.615 179.842 134.615C179.923 134.62 180.022 134.67 180.139 134.765C180.251 134.807 180.364 134.868 180.48 134.95C180.609 135.03 180.677 135.103 180.684 135.169C180.645 135.307 180.579 135.515 180.488 135.792C180.409 136.055 180.349 136.249 180.308 136.373C180.117 136.969 179.931 137.557 179.751 138.138C179.583 138.705 179.476 139.278 179.43 139.858C179.423 140.047 179.439 140.266 179.479 140.516C179.53 140.751 179.588 140.919 179.652 141.02C179.7 141.095 179.756 141.183 179.821 141.283C179.896 141.369 179.978 141.44 180.064 141.498C180.191 141.565 180.195 141.665 180.075 141.798C179.969 141.93 179.828 142.052 179.652 142.164C179.488 142.261 179.387 142.312 179.347 142.316ZM61.7254 182.11C61.5268 182.131 61.313 182.007 61.0838 181.736C60.8532 181.453 60.6554 181.099 60.4904 180.674C60.3385 180.249 60.2536 179.823 60.2356 179.396C60.191 178.973 60.1754 178.633 60.1887 178.377C60.2138 178.107 60.2396 177.843 60.2661 177.586C60.2975 177.503 60.3104 177.434 60.3048 177.381C60.3125 177.327 60.3167 177.24 60.3174 177.119C60.3314 176.997 60.3568 176.794 60.3938 176.509C60.4231 176.278 60.4566 176.087 60.4942 175.936C60.5451 175.783 60.5876 175.679 60.6218 175.621C60.7584 175.393 60.9239 175.248 61.1183 175.188C61.3113 175.114 61.4921 175.115 61.6606 175.191C61.8425 175.266 61.9564 175.394 62.0023 175.577C62.0887 175.635 62.1444 175.783 62.1695 176.021C62.2064 176.245 62.2182 176.484 62.2049 176.74C62.1902 176.982 62.1487 177.161 62.0804 177.275C62.0609 177.344 62.0459 177.52 62.0354 177.802C62.0382 178.082 62.0357 178.377 62.028 178.686C62.0335 178.993 62.0261 179.241 62.0059 179.431C61.9912 179.673 62.0205 179.824 62.0936 179.883C62.1786 179.928 62.3047 179.855 62.472 179.663C62.651 179.457 62.8751 179.105 63.1441 178.609C63.3671 178.184 63.5264 177.852 63.6219 177.615C63.7306 177.376 63.8083 177.16 63.855 176.968C63.915 176.774 63.978 176.547 64.0443 176.286C64.0882 176.067 64.1297 175.888 64.1687 175.751C64.221 175.611 64.2708 175.512 64.3182 175.454C64.4416 175.227 64.6245 175.12 64.8669 175.135C65.1212 175.135 65.3334 175.18 65.5033 175.269C65.6789 175.411 65.7945 175.62 65.8502 175.895C65.9178 176.156 65.8888 176.453 65.7633 176.788C65.6797 177.01 65.6002 177.273 65.5249 177.575C65.4629 177.876 65.4141 178.176 65.3785 178.474C65.3561 178.771 65.3561 179.025 65.3784 179.237C65.4062 179.502 65.456 179.657 65.5277 179.703C65.6113 179.735 65.7061 179.745 65.812 179.734C65.9708 179.717 66.1175 179.648 66.252 179.527C66.3851 179.392 66.5753 179.165 66.8227 178.844C66.9293 178.713 67.0562 178.519 67.2032 178.262C67.3502 178.006 67.4893 177.737 67.6203 177.456C67.7646 177.173 67.8792 176.926 67.9643 176.717C68.0611 176.492 68.1068 176.354 68.1012 176.301C68.0929 176.221 68.1406 176.103 68.2445 175.945C68.3127 175.83 68.364 175.745 68.3981 175.687C68.4441 175.616 68.5298 175.54 68.6552 175.46C68.7556 175.396 68.874 175.376 69.0106 175.402C69.1457 175.415 69.2652 175.469 69.369 175.565C69.4408 175.611 69.501 175.739 69.5497 175.948C69.6103 176.142 69.649 176.319 69.6657 176.478C69.6413 176.628 69.6032 176.839 69.5516 177.112C69.4987 177.372 69.4384 177.626 69.3707 177.874C69.315 178.107 69.2582 178.267 69.2003 178.354C69.1529 178.412 69.0707 178.521 68.9536 178.681C68.8352 178.827 68.7313 178.985 68.6421 179.155C68.3529 179.587 68.1418 179.87 68.0087 180.005C67.8756 180.139 67.7616 180.265 67.6669 180.382C67.4181 180.689 67.124 180.947 66.7847 181.157C66.444 181.354 66.1162 181.482 65.8012 181.542C65.4849 181.588 65.2272 181.555 65.0279 181.442C64.5953 181.273 64.3525 180.938 64.2997 180.435C64.2885 180.329 64.2589 180.238 64.2109 180.163C64.1747 180.073 64.1566 180.028 64.1566 180.028C64.1036 180.034 64.0322 180.054 63.9423 180.091C63.8657 180.126 63.7894 180.227 63.7134 180.396C63.6179 180.633 63.4371 180.887 63.1709 181.155C62.9165 181.41 62.6521 181.632 62.3776 181.821C62.1016 181.997 61.8842 182.094 61.7254 182.11ZM70.8056 181.096C70.7526 181.101 70.6359 181.074 70.4555 181.012C70.275 180.951 70.1848 180.92 70.1848 180.92C70.1792 180.867 70.1524 180.803 70.1044 180.728C70.0695 180.651 70.0493 180.586 70.0438 180.533C69.9456 180.49 69.8438 180.414 69.7387 180.305C69.6335 180.195 69.5997 180.065 69.6374 179.914C69.7015 179.76 69.7844 179.53 69.8862 179.225C69.9998 178.905 70.1166 178.552 70.2364 178.164C70.3682 177.762 70.4881 177.375 70.5961 177.002C70.7042 176.63 70.7979 176.312 70.8774 176.049C70.9555 175.773 70.9984 175.608 71.006 175.554C71.0005 175.501 70.9973 175.408 70.9967 175.274C71.0092 175.139 71.0834 175.017 71.2193 174.909C71.3789 174.772 71.5569 174.746 71.7534 174.833C71.9498 174.919 72.1282 175.088 72.2884 175.339C72.4472 175.576 72.5447 175.867 72.5808 176.211C72.5906 176.304 72.5494 176.549 72.4574 176.947C72.364 177.332 72.2319 177.794 72.0611 178.334C71.9036 178.872 71.7202 179.42 71.5111 179.978C71.3529 180.383 71.2292 180.67 71.14 180.84C71.0627 180.995 70.9512 181.081 70.8056 181.096ZM72.7067 173.207C72.5479 173.224 72.3483 173.171 72.1079 173.049C71.8808 172.926 71.6694 172.761 71.4736 172.554C71.2779 172.347 71.1668 172.117 71.1404 171.866C71.1334 171.8 71.1805 171.674 71.2815 171.49C71.3812 171.292 71.4749 171.101 71.5627 170.918C71.6638 170.733 71.7129 170.628 71.7101 170.601C71.816 170.59 71.9439 170.597 72.0937 170.621C72.2435 170.646 72.3675 170.68 72.4657 170.723C72.6461 171.038 72.868 171.303 73.1313 171.516C73.3932 171.716 73.5395 171.962 73.5701 172.253C73.6007 172.544 73.5509 172.77 73.4205 172.931C73.2888 173.079 73.0509 173.171 72.7067 173.207ZM75.6384 181.371C75.2148 181.415 74.8146 181.364 74.4377 181.216C74.0726 181.054 73.7696 180.845 73.5285 180.589C73.2861 180.32 73.151 180.053 73.1232 179.788C73.1107 179.669 73.1215 179.581 73.1556 179.524C73.203 179.465 73.273 179.431 73.3657 179.421C73.4333 179.428 73.5162 179.452 73.6144 179.496C73.7126 179.539 73.8116 179.589 73.9112 179.645C74.1383 179.769 74.3797 179.837 74.6354 179.85C74.8911 179.863 75.1147 179.827 75.3063 179.739C75.4966 179.639 75.5966 179.508 75.6063 179.347C75.6008 179.294 75.5625 179.184 75.4914 179.017C75.4204 178.851 75.3368 178.692 75.2407 178.542C74.8583 178.087 74.6044 177.645 74.479 177.217C74.3523 176.775 74.2521 176.33 74.1783 175.883C74.1588 175.698 74.2233 175.483 74.3717 175.24C74.5188 174.984 74.7062 174.73 74.9341 174.479C75.187 174.211 75.4678 173.954 75.7765 173.707C76.0984 173.459 76.4172 173.245 76.7329 173.065C77.0485 172.884 77.3174 172.769 77.5397 172.719C77.778 172.694 78.0309 172.681 78.2984 172.679C78.5778 172.663 78.768 172.69 78.869 172.76C79.0697 172.886 79.2668 173.106 79.4604 173.421C79.6541 173.735 79.7627 174.004 79.7864 174.23C79.7975 174.335 79.7518 174.474 79.6494 174.645C79.5588 174.802 79.4769 174.978 79.4037 175.173C79.3605 175.271 79.3246 175.376 79.296 175.486C79.2674 175.596 79.2322 175.706 79.1904 175.818C79.1305 176.012 78.9932 176.106 78.7786 176.102C78.5759 176.083 78.3794 175.997 78.1892 175.843C77.9977 175.676 77.8894 175.473 77.8643 175.235C77.8435 175.036 77.8849 174.858 77.9888 174.7C78.0926 174.541 78.1417 174.436 78.1362 174.383C78.1334 174.356 78.1181 174.338 78.0902 174.327C78.0623 174.317 78.0153 174.315 77.9491 174.322C77.8565 174.332 77.7084 174.388 77.5049 174.489C77.3133 174.576 77.112 174.698 76.9008 174.854C76.6897 175.01 76.5012 175.19 76.3354 175.395C76.2183 175.555 76.1225 175.725 76.0479 175.907C75.9852 176.075 75.9635 176.251 75.983 176.436C76.0025 176.621 76.0585 176.836 76.1512 177.081C76.2556 177.311 76.3626 177.5 76.4719 177.65C76.5012 177.673 76.5485 177.742 76.614 177.855C76.6913 177.954 76.7781 178.079 76.8742 178.23C77.4697 179.184 77.6278 179.924 77.3483 180.448C77.0821 180.972 76.5121 181.279 75.6384 181.371ZM82.2847 180.692C81.5831 180.766 81.0432 180.595 80.6649 180.18C80.55 179.978 80.4814 179.771 80.4592 179.559C80.4487 179.333 80.485 179.168 80.5679 179.066C80.6495 178.95 80.7641 178.958 80.9117 179.09C81.095 179.178 81.3454 179.205 81.6631 179.172C81.822 179.155 81.961 179.14 82.0801 179.128C82.2111 179.101 82.362 179.071 82.5327 179.04C82.8343 178.982 83.0165 178.869 83.0793 178.702C83.1552 178.533 83.1215 178.403 82.978 178.311L82.9978 178.309C82.6307 178.254 82.266 178.158 81.9037 178.022C81.5414 177.886 81.23 177.725 80.9695 177.538C80.7075 177.338 80.5463 177.141 80.4857 176.947C80.3339 176.521 80.313 176.068 80.4232 175.588C80.5334 175.108 80.7226 174.68 80.9909 174.304C81.1017 174.212 81.2553 174.082 81.4518 173.914C81.6469 173.733 81.7901 173.631 81.8814 173.608L81.8835 173.628C82.1072 173.336 82.3695 173.095 82.6705 172.903C82.9701 172.697 83.3241 172.499 83.7324 172.309L84.0459 172.236C84.202 172.193 84.3396 172.165 84.4588 172.152C84.4455 172.154 84.48 172.164 84.5622 172.182C84.6444 172.2 84.7127 172.213 84.767 172.22C84.8506 172.252 84.9321 172.263 85.0116 172.255C85.1997 172.262 85.3888 172.342 85.579 172.496C85.781 172.636 85.9468 172.812 86.0764 173.026C86.2178 173.226 86.285 173.419 86.278 173.607C86.2703 173.916 86.1898 174.232 86.0364 174.556C85.8817 174.867 85.7005 175.053 85.4929 175.115C85.518 175.099 85.4887 175.076 85.4051 175.044C85.3215 175.013 85.2445 174.981 85.1742 174.948L85.0989 174.996C85.0989 174.996 85.0902 174.977 85.0728 174.939C85.0686 174.899 85.0505 174.854 85.0185 174.804C84.9558 174.717 84.9057 174.622 84.868 174.519C84.8437 174.414 84.8312 174.295 84.8305 174.161C84.8416 174.013 84.8392 173.926 84.8232 173.901C84.8072 173.876 84.7257 173.864 84.5787 173.866C84.4024 173.845 84.1861 173.888 83.9297 173.995C83.6719 174.089 83.4395 174.234 83.2325 174.429C82.9859 174.629 82.8019 174.789 82.6807 174.909C82.5726 175.027 82.4911 175.143 82.4361 175.256C82.3796 175.356 82.3214 175.502 82.2615 175.696C82.2183 175.794 82.181 175.885 82.1496 175.969C82.1168 176.039 82.1039 176.107 82.1109 176.173C82.1248 176.306 82.2519 176.433 82.4923 176.555C82.7312 176.664 83.0855 176.787 83.5551 176.925C83.9278 177.033 84.1803 177.207 84.3127 177.448C84.4582 177.687 84.5892 177.914 84.7055 178.129C84.7375 178.179 84.7744 178.276 84.8162 178.419C84.8699 178.547 84.8848 178.626 84.8611 178.655C84.8904 178.679 84.9064 178.704 84.9092 178.73L84.9071 178.71C85.0339 178.898 85.0363 179.112 84.9143 179.352C84.8042 179.578 84.6133 179.799 84.3415 180.014C84.0684 180.217 83.7506 180.378 83.3883 180.496L83.4082 180.494C83.2124 180.541 83.0159 180.582 82.8188 180.616C82.6348 180.649 82.4568 180.674 82.2847 180.692ZM90.6398 179.272C90.2663 179.539 89.8566 179.716 89.4107 179.803C88.9767 179.875 88.56 179.859 88.1608 179.754C87.7602 179.635 87.4248 179.436 87.1545 179.157C87.0041 178.998 86.8498 178.74 86.6917 178.382C86.5322 178.011 86.4581 177.497 86.4693 176.84C86.4847 176.222 86.6054 175.587 86.8312 174.935C87.0703 174.28 87.3832 173.692 87.77 173.17C88.1567 172.647 88.5992 172.273 89.0974 172.046C89.2757 171.961 89.4562 171.895 89.6388 171.849C89.8331 171.788 90.0906 171.755 90.4111 171.748C90.7197 171.755 90.9994 171.806 91.2502 171.9C91.4996 171.981 91.6843 172.082 91.8041 172.204C92.0381 172.393 92.1987 172.584 92.2858 172.775C92.3728 172.967 92.4195 173.156 92.4257 173.343C92.404 173.773 92.2601 174.25 91.9939 174.773C91.7409 175.295 91.3489 175.704 90.818 176.001C90.6027 176.117 90.3442 176.205 90.0425 176.263C89.7408 176.322 89.3197 176.326 88.779 176.276C88.4543 176.243 88.246 176.298 88.154 176.442C88.0753 176.584 88.0627 176.846 88.1163 177.229C88.1678 177.464 88.243 177.67 88.3419 177.847C88.4527 178.01 88.6307 178.111 88.8759 178.153C89.1859 178.174 89.4051 178.157 89.5333 178.104C89.6601 178.037 89.8179 177.947 90.0067 177.833C90.1057 177.756 90.1973 177.672 90.2816 177.583C90.3792 177.493 90.4701 177.403 90.5544 177.314C90.652 177.223 90.7318 177.155 90.7938 177.108C90.8544 177.048 90.9171 177.008 90.9819 176.988C91.0467 176.968 91.1122 176.954 91.1784 176.947C91.3254 176.945 91.4727 177.01 91.6204 177.141C91.7681 177.273 91.8687 177.403 91.9224 177.531C91.9335 177.637 91.8833 177.796 91.7718 178.009C91.6589 178.208 91.5011 178.425 91.2983 178.661C91.1074 178.882 90.8879 179.085 90.6398 179.272ZM89.9163 174.871C90.0048 174.822 90.1274 174.715 90.2842 174.552C90.4542 174.386 90.6037 174.217 90.7326 174.043C90.8601 173.855 90.919 173.715 90.9093 173.623C90.894 173.477 90.7815 173.362 90.5718 173.277C90.3753 173.19 90.1283 173.196 89.8308 173.294C89.7277 173.332 89.6096 173.418 89.4765 173.552C89.3434 173.687 89.2124 173.841 89.0835 174.015C88.9532 174.176 88.8427 174.335 88.7521 174.492C88.6601 174.635 88.5985 174.749 88.5671 174.832C88.627 174.893 88.7385 174.935 88.9015 174.958C89.0645 174.981 89.2387 174.983 89.424 174.963C89.6226 174.942 89.7867 174.912 89.9163 174.871ZM99.8446 178.224C99.5506 178.229 99.2994 178.195 99.0911 178.123C98.8947 178.036 98.7209 177.847 98.5697 177.555C98.4945 177.349 98.4451 177.133 98.4214 176.908C98.4096 176.669 98.4058 176.442 98.41 176.227C98.4129 175.999 98.4059 175.806 98.3892 175.647C98.3865 175.621 98.3809 175.568 98.3725 175.488C98.3642 175.409 98.3565 175.336 98.3496 175.27C98.3022 175.074 98.2368 174.96 98.1532 174.929C98.0814 174.883 97.963 174.902 97.7978 174.986C97.5338 175.148 97.2481 175.359 96.9408 175.619C96.6453 175.864 96.3342 176.151 96.0074 176.48C95.6924 176.794 95.3663 177.129 95.0291 177.486C94.7712 177.834 94.5799 178.115 94.4552 178.329C94.3437 178.542 94.2151 178.655 94.0695 178.671C93.9692 178.735 93.8552 178.733 93.7278 178.667C93.6003 178.6 93.4648 178.52 93.3213 178.428C93.2175 178.332 93.091 178.212 92.942 178.067C92.8047 177.907 92.7201 177.802 92.6881 177.752C92.6658 177.54 92.6589 177.347 92.6673 177.172C92.6889 176.996 92.723 176.811 92.7698 176.619C92.8297 176.425 92.9001 176.204 92.981 175.954C93.0242 175.856 93.0608 175.759 93.0907 175.662C93.1326 175.55 93.1803 175.432 93.234 175.306C93.2674 175.115 93.318 174.895 93.3856 174.647C93.4665 174.398 93.5421 174.162 93.6125 173.941C93.7219 173.581 93.8032 173.272 93.8561 173.012C93.9091 172.752 93.9468 172.474 93.9691 172.177C93.9531 172.152 93.9556 172.111 93.9765 172.056C93.9974 172 94.0336 171.962 94.0852 171.944L94.105 171.942L94.1249 171.94C94.2106 171.864 94.382 171.839 94.6391 171.865C94.908 171.877 95.1142 171.929 95.2577 172.021C95.5608 172.23 95.7258 172.527 95.753 172.913C95.7801 173.298 95.6344 173.822 95.3159 174.484C95.2455 174.706 95.1671 174.915 95.0806 175.111C95.0061 175.293 94.9723 175.417 94.9792 175.483C94.9792 175.483 95.028 175.438 95.1255 175.348C95.2231 175.257 95.3391 175.151 95.4736 175.03C95.6067 174.896 95.7227 174.79 95.8217 174.712C95.8809 174.639 96.014 174.505 96.2209 174.309C96.4265 174.1 96.6512 173.882 96.8951 173.656C97.139 173.43 97.3348 173.255 97.4825 173.132C97.617 173.011 97.7912 172.886 98.0051 172.756C98.2176 172.614 98.3504 172.539 98.4033 172.534C98.5357 172.52 98.6994 172.55 98.8945 172.623C99.1028 172.694 99.2933 172.788 99.4661 172.904C99.6507 173.005 99.7618 173.107 99.7994 173.21C99.805 173.263 99.806 173.337 99.8025 173.431C99.7976 173.511 99.7987 173.585 99.8056 173.651C99.8146 173.864 99.8352 174.123 99.8672 174.428C99.911 174.718 99.9489 175.015 99.9809 175.319C100.012 175.61 100.013 175.878 99.985 176.122C99.985 176.122 99.993 176.134 100.009 176.159C100.024 176.171 100.04 176.196 100.057 176.235C100.045 176.249 100.041 176.276 100.046 176.316C100.062 176.341 100.07 176.354 100.07 176.354C100.106 176.444 100.142 176.534 100.178 176.623C100.228 176.712 100.285 176.813 100.351 176.927C100.415 177.027 100.489 177.16 100.573 177.325C100.578 177.498 100.497 177.681 100.33 177.872C100.174 178.049 100.013 178.167 99.8446 178.224ZM106.691 177.244C106.646 177.195 106.553 177.138 106.412 177.072C106.272 177.007 106.198 176.948 106.193 176.895C106.19 176.868 106.18 176.836 106.163 176.797C106.158 176.758 106.13 176.741 106.077 176.746C106.033 176.711 106.038 176.563 106.091 176.303C106.157 176.042 106.245 175.732 106.354 175.372C106.477 175.011 106.607 174.663 106.746 174.327C106.883 173.978 107.001 173.698 107.099 173.487C107.161 173.44 107.196 173.383 107.202 173.315C107.22 173.233 107.216 173.194 107.189 173.196C107.189 173.196 107.216 173.133 107.27 173.007C107.335 172.866 107.386 172.774 107.421 172.73C107.508 172.534 107.568 172.34 107.601 172.149C107.633 171.945 107.629 171.778 107.589 171.649C107.529 171.588 107.467 171.574 107.404 171.608C107.34 171.641 107.309 171.658 107.309 171.658C107.257 171.677 107.181 171.712 107.079 171.762C106.989 171.799 106.907 171.847 106.833 171.909C106.551 172.153 106.337 172.282 106.191 172.297C106.059 172.311 105.91 172.166 105.744 171.863C105.676 171.723 105.642 171.586 105.641 171.452C105.64 171.318 105.682 171.207 105.766 171.117C105.862 171.014 105.985 170.907 106.134 170.798C106.282 170.675 106.38 170.591 106.429 170.546C106.565 170.438 106.76 170.317 107.013 170.183C107.267 170.05 107.419 169.973 107.471 169.955C107.804 169.813 108.095 169.782 108.345 169.863C108.593 169.93 108.791 170.097 108.939 170.362C109.148 170.568 109.266 170.796 109.292 171.048C109.319 171.3 109.259 171.62 109.112 172.01L108.945 172.329C108.893 172.469 108.887 172.536 108.926 172.532C108.979 172.526 109.034 172.474 109.09 172.374C109.125 172.317 109.196 172.229 109.304 172.111C109.412 171.992 109.486 171.931 109.525 171.927C109.525 171.927 109.538 171.919 109.563 171.903C109.601 171.886 109.616 171.83 109.606 171.738C109.641 171.694 109.677 171.65 109.712 171.606C109.761 171.561 109.786 171.538 109.786 171.538C109.839 171.533 109.902 171.499 109.976 171.438C110.062 171.362 110.201 171.227 110.395 171.033C110.529 170.911 110.656 170.844 110.775 170.832C111.07 170.707 111.325 170.781 111.541 171.053C111.771 171.323 111.909 171.69 111.958 172.153L111.654 173.269L112.277 172.32C112.345 172.206 112.415 172.105 112.486 172.017C112.57 171.928 112.643 171.854 112.703 171.794C112.72 171.698 112.754 171.641 112.806 171.622C112.857 171.604 112.883 171.594 112.883 171.594C112.883 171.594 112.896 171.593 112.923 171.59C112.948 171.574 112.958 171.546 112.954 171.506C113.015 171.446 113.083 171.392 113.158 171.344C113.232 171.283 113.279 171.225 113.3 171.169C113.516 171.053 113.785 171.011 114.11 171.044C114.433 171.063 114.676 171.205 114.837 171.469C114.947 171.618 115.047 171.748 115.139 171.859C115.231 171.97 115.29 172.144 115.315 172.382C115.309 172.584 115.297 172.726 115.279 172.808C115.274 172.889 115.27 172.976 115.267 173.07C115.262 173.151 115.257 173.299 115.253 173.513C115.211 173.625 115.19 173.741 115.189 173.861C115.202 173.98 115.214 174.093 115.225 174.199C115.243 174.371 115.262 174.489 115.282 174.554C115.301 174.606 115.357 174.627 115.449 174.617C115.631 174.558 115.776 174.482 115.887 174.39C116.01 174.284 116.143 174.149 116.287 173.987C116.466 173.781 116.635 173.736 116.794 173.853C116.966 173.956 117.08 174.084 117.136 174.239C117.168 174.289 117.154 174.411 117.094 174.605C117.034 174.798 116.96 174.987 116.873 175.17C116.785 175.353 116.708 175.448 116.642 175.455C116.602 175.459 116.528 175.521 116.42 175.639C116.312 175.757 116.227 175.84 116.165 175.887C116.082 175.989 115.998 176.085 115.914 176.174C115.843 176.262 115.755 176.311 115.649 176.322C115.596 176.328 115.532 176.355 115.456 176.403C115.393 176.436 115.315 176.458 115.222 176.468C115.094 176.521 114.887 176.523 114.6 176.473C114.327 176.421 114.136 176.254 114.026 175.971C113.958 175.831 113.859 175.654 113.729 175.44C113.613 175.225 113.564 174.949 113.582 174.612C113.61 174.369 113.62 174.147 113.612 173.947C113.605 173.747 113.616 173.605 113.648 173.521C113.644 173.482 113.634 173.389 113.619 173.243C113.602 173.084 113.574 173.007 113.534 173.011C113.481 173.017 113.389 173.094 113.257 173.241C113.125 173.389 112.972 173.586 112.797 173.832C112.621 174.064 112.44 174.317 112.255 174.591C112.082 174.864 111.93 175.134 111.798 175.402C111.694 175.56 111.607 175.75 111.536 175.972C111.466 176.193 111.412 176.319 111.375 176.35C111.294 176.466 111.136 176.496 110.903 176.44C110.683 176.383 110.511 176.274 110.387 176.113C110.339 176.037 110.288 175.996 110.233 175.988C110.177 175.967 110.127 175.932 110.082 175.884C110.048 175.82 110.035 175.695 110.042 175.506C110.062 175.317 110.117 175.01 110.206 174.586C110.305 174.12 110.388 173.703 110.456 173.335C110.536 172.952 110.577 172.76 110.577 172.76C110.571 172.707 110.477 172.77 110.295 172.95C110.112 173.117 109.9 173.326 109.659 173.579C109.555 173.737 109.416 173.939 109.241 174.185C109.079 174.43 108.888 174.718 108.669 175.048C108.463 175.378 108.229 175.764 107.967 176.206C107.641 176.789 107.384 177.151 107.198 177.291C107.025 177.43 106.856 177.414 106.691 177.244ZM122.811 176.413C122.724 176.475 122.596 176.469 122.428 176.393C122.272 176.316 122.112 176.192 121.947 176.022C121.838 175.873 121.748 175.721 121.679 175.568C121.621 175.4 121.575 175.151 121.54 174.82C121.525 174.554 121.506 174.375 121.483 174.284C121.472 174.178 121.412 174.178 121.303 174.283C121.205 174.373 121.008 174.595 120.71 174.947C120.414 175.313 120.126 175.631 119.847 175.901C119.579 176.157 119.352 176.288 119.165 176.294C119.072 176.304 118.94 176.258 118.769 176.155C118.598 176.053 118.43 175.923 118.266 175.766C118.101 175.596 117.977 175.435 117.894 175.283C117.782 174.974 117.732 174.564 117.745 174.054C117.772 173.543 117.843 173.007 117.958 172.446C118.071 171.872 118.209 171.335 118.371 170.837C118.544 170.323 118.722 169.91 118.903 169.596C119.096 169.268 119.273 169.102 119.433 169.099C119.661 169.102 119.864 169.194 120.044 169.376C120.236 169.543 120.39 169.734 120.506 169.95C120.569 170.037 120.597 170.114 120.591 170.182C120.597 170.248 120.553 170.333 120.457 170.437C120.354 170.608 120.233 170.855 120.093 171.178C119.965 171.486 119.833 171.821 119.697 172.183C119.574 172.544 119.463 172.89 119.364 173.222C119.277 173.539 119.217 173.799 119.185 174.003C119.153 174.207 119.164 174.307 119.217 174.301C119.402 174.282 119.569 174.217 119.718 174.108C119.866 173.985 120.047 173.799 120.262 173.549C120.511 173.242 120.726 172.938 120.909 172.638C121.09 172.324 121.274 171.97 121.46 171.576C121.604 171.293 121.752 170.983 121.904 170.646C122.069 170.307 122.171 170.069 122.21 169.931C122.36 169.568 122.471 169.295 122.546 169.113C122.621 168.931 122.722 168.813 122.85 168.76C122.916 168.753 123.009 168.743 123.128 168.731C123.247 168.718 123.307 168.712 123.307 168.712C123.388 168.717 123.487 168.766 123.604 168.861C123.715 168.903 123.829 168.965 123.944 169.046C124.073 169.126 124.141 169.2 124.148 169.266C124.109 169.404 124.044 169.611 123.953 169.889C123.873 170.151 123.813 170.345 123.773 170.47C123.581 171.065 123.395 171.654 123.215 172.235C123.047 172.801 122.94 173.374 122.894 173.955C122.887 174.143 122.904 174.362 122.943 174.612C122.995 174.848 123.053 175.016 123.117 175.116C123.165 175.191 123.221 175.279 123.285 175.379C123.361 175.465 123.442 175.537 123.528 175.595C123.656 175.662 123.66 175.761 123.54 175.895C123.433 176.026 123.292 176.148 123.117 176.26C122.953 176.358 122.851 176.409 122.811 176.413ZM126.906 176.002C126.205 176.076 125.665 175.905 125.286 175.49C125.172 175.288 125.103 175.081 125.081 174.869C125.07 174.643 125.107 174.478 125.189 174.376C125.271 174.26 125.386 174.268 125.533 174.4C125.716 174.488 125.967 174.515 126.285 174.482C126.444 174.465 126.583 174.45 126.702 174.438C126.833 174.411 126.983 174.382 127.154 174.35C127.456 174.292 127.638 174.179 127.701 174.012C127.777 173.843 127.743 173.713 127.599 173.621L127.619 173.619C127.252 173.564 126.887 173.468 126.525 173.332C126.163 173.196 125.852 173.035 125.591 172.848C125.329 172.648 125.168 172.451 125.107 172.257C124.955 171.831 124.935 171.378 125.045 170.898C125.155 170.418 125.344 169.99 125.612 169.614C125.723 169.522 125.877 169.392 126.073 169.224C126.268 169.043 126.412 168.941 126.503 168.918L126.505 168.938C126.729 168.647 126.991 168.405 127.292 168.213C127.592 168.007 127.946 167.809 128.354 167.619L128.667 167.546C128.824 167.503 128.961 167.475 129.08 167.463C129.067 167.464 129.102 167.474 129.184 167.492C129.266 167.51 129.334 167.523 129.389 167.531C129.472 167.562 129.554 167.573 129.633 167.565C129.821 167.572 130.01 167.653 130.201 167.807C130.403 167.946 130.568 168.123 130.698 168.336C130.839 168.536 130.907 168.729 130.9 168.918C130.892 169.226 130.811 169.542 130.658 169.866C130.503 170.177 130.322 170.363 130.114 170.425C130.14 170.409 130.11 170.386 130.027 170.354C129.943 170.323 129.866 170.291 129.796 170.258L129.72 170.306C129.72 170.306 129.712 170.287 129.694 170.249C129.69 170.209 129.672 170.164 129.64 170.114C129.577 170.027 129.527 169.932 129.49 169.829C129.465 169.724 129.453 169.605 129.452 169.471C129.463 169.323 129.461 169.236 129.445 169.211C129.429 169.186 129.347 169.174 129.2 169.176C129.024 169.155 128.808 169.198 128.551 169.305C128.293 169.399 128.061 169.544 127.854 169.74C127.607 169.939 127.423 170.099 127.302 170.219C127.194 170.338 127.113 170.453 127.058 170.566C127.001 170.666 126.943 170.812 126.883 171.006C126.84 171.104 126.802 171.195 126.771 171.279C126.738 171.349 126.725 171.417 126.732 171.484C126.746 171.616 126.873 171.743 127.114 171.865C127.353 171.974 127.707 172.097 128.177 172.235C128.549 172.343 128.802 172.517 128.934 172.758C129.08 172.997 129.211 173.224 129.327 173.439C129.359 173.489 129.396 173.586 129.438 173.729C129.491 173.857 129.506 173.936 129.483 173.965C129.512 173.989 129.528 174.014 129.531 174.04L129.529 174.02C129.655 174.208 129.658 174.422 129.536 174.662C129.426 174.888 129.235 175.109 128.963 175.325C128.69 175.527 128.372 175.688 128.01 175.806L128.03 175.804C127.834 175.851 127.637 175.892 127.44 175.926C127.256 175.959 127.078 175.984 126.906 176.002ZM132.536 175.391C132.066 175.253 131.715 175.096 131.482 174.919C131.261 174.728 131.163 174.551 131.186 174.388C131.204 174.306 131.242 174.228 131.302 174.155C131.361 174.082 131.504 174.04 131.73 174.03C131.968 174.005 132.339 174.026 132.841 174.094C132.987 174.079 133.132 174.057 133.276 174.028C133.42 174 133.55 173.966 133.667 173.927C133.796 173.886 133.899 173.842 133.974 173.794C134.037 173.761 134.054 173.725 134.023 173.689C133.991 173.638 133.939 173.59 133.867 173.544C133.807 173.484 133.744 173.45 133.676 173.444C133.607 173.424 133.546 173.417 133.493 173.423C133.46 173.36 133.393 173.3 133.294 173.243C133.207 173.185 133.1 173.123 132.973 173.056C132.657 172.848 132.37 172.664 132.112 172.504C131.854 172.344 131.747 172.215 131.79 172.116C131.784 172.063 131.782 172.037 131.782 172.037C131.78 172.024 131.78 172.017 131.78 172.017C131.687 172.027 131.588 171.91 131.482 171.667C131.375 171.411 131.31 171.176 131.288 170.965C131.26 170.7 131.285 170.43 131.363 170.154C131.454 169.876 131.573 169.61 131.72 169.353C131.881 169.095 132.044 168.864 132.21 168.659C132.436 168.395 132.677 168.135 132.931 167.881C133.197 167.612 133.486 167.368 133.797 167.147C134.122 166.926 134.484 166.741 134.883 166.592C135.064 166.532 135.274 166.49 135.512 166.465C135.751 166.44 135.926 166.455 136.039 166.51C136.138 166.433 136.272 166.439 136.442 166.528C136.611 166.604 136.784 166.72 136.961 166.875C137.138 167.031 137.275 167.19 137.372 167.354C137.389 167.513 137.403 167.712 137.415 167.952C137.439 168.177 137.447 168.377 137.438 168.552C137.43 168.726 137.379 168.819 137.287 168.828C137.287 168.828 137.267 168.837 137.229 168.855C137.203 168.857 137.193 168.892 137.2 168.958C137.214 169.09 137.13 169.253 136.95 169.446C136.716 169.645 136.493 169.809 136.279 169.938C136.065 170.068 135.894 170.092 135.765 170.012C135.68 169.968 135.601 169.922 135.53 169.876C135.458 169.83 135.391 169.77 135.33 169.697C135.33 169.697 135.307 169.672 135.262 169.623C135.229 169.56 135.209 169.502 135.204 169.449C135.198 169.396 135.213 169.348 135.249 169.304C135.283 169.247 135.3 169.218 135.3 169.218C135.467 169.026 135.589 168.853 135.667 168.698C135.757 168.541 135.817 168.407 135.845 168.297C135.873 168.174 135.883 168.079 135.876 168.013C135.867 167.934 135.843 167.889 135.802 167.88C135.772 167.857 135.705 167.85 135.599 167.861C135.533 167.868 135.393 167.937 135.179 168.066C134.978 168.194 134.767 168.35 134.545 168.534C134.322 168.705 134.151 168.857 134.031 168.99C133.988 169.088 133.954 169.152 133.931 169.181C133.92 169.209 133.889 169.226 133.836 169.231C133.83 169.178 133.798 169.188 133.738 169.262C133.679 169.335 133.61 169.436 133.529 169.565C133.449 169.694 133.37 169.829 133.291 169.971C133.212 170.113 133.151 170.227 133.106 170.312C133.105 170.432 133.084 170.548 133.042 170.66C133.012 170.757 133.009 170.857 133.034 170.962C133.061 171.093 133.14 171.212 133.272 171.318C133.404 171.425 133.592 171.559 133.836 171.721C134.336 172.016 134.709 172.251 134.954 172.426C135.214 172.6 135.396 172.741 135.501 172.851C135.606 172.96 135.678 173.073 135.717 173.189C135.985 173.576 136.049 173.931 135.909 174.253C135.768 174.562 135.527 174.815 135.186 175.012C135.061 175.092 134.835 175.176 134.51 175.264C134.186 175.365 133.838 175.428 133.466 175.454C133.108 175.491 132.798 175.47 132.536 175.391ZM140.61 174.542C140.419 174.509 140.224 174.435 140.024 174.323C139.825 174.21 139.617 174.078 139.4 173.926C139.219 173.731 139.087 173.551 139.002 173.386C138.917 173.208 138.855 173 138.816 172.763C138.79 172.512 138.757 172.194 138.716 171.81C138.7 171.651 138.702 171.423 138.725 171.127C138.76 170.828 138.795 170.517 138.827 170.192C138.873 169.866 138.917 169.581 138.958 169.335C138.998 169.077 139.02 168.907 139.025 168.826C139.047 168.65 138.97 168.558 138.795 168.549C138.62 168.541 138.428 168.555 138.217 168.59C138.019 168.611 137.884 168.605 137.814 168.572C137.76 168.565 137.726 168.501 137.714 168.382C137.7 168.25 137.693 168.183 137.693 168.183C137.687 168.131 137.657 168.1 137.603 168.093C137.547 168.072 137.496 168.03 137.449 167.968C137.417 167.918 137.44 167.815 137.517 167.66C137.595 167.505 137.705 167.406 137.848 167.364C137.964 167.325 138.14 167.287 138.377 167.248C138.613 167.197 138.846 167.125 139.078 167.034C139.321 166.928 139.5 166.789 139.616 166.616C139.704 166.312 139.804 165.987 139.915 165.641C140.024 165.282 140.132 164.969 140.238 164.704C140.343 164.425 140.418 164.25 140.464 164.178C140.676 164.035 140.903 163.965 141.144 163.966C141.384 163.954 141.581 164.047 141.736 164.245C141.812 164.331 141.871 164.392 141.915 164.427C141.973 164.461 141.999 164.519 141.994 164.6C142.002 164.679 141.964 164.83 141.881 165.053C141.809 165.261 141.683 165.589 141.502 166.036C141.45 166.176 141.403 166.301 141.361 166.413C141.318 166.511 141.296 166.56 141.296 166.56C141.351 166.568 141.431 166.566 141.537 166.555C141.643 166.544 141.774 166.523 141.932 166.493C142.075 166.451 142.231 166.415 142.402 166.384C142.571 166.339 142.724 166.323 142.859 166.336C143.163 166.304 143.397 166.366 143.561 166.523C143.725 166.68 143.827 166.89 143.868 167.153C143.91 167.296 143.87 167.427 143.749 167.547C143.628 167.667 143.388 167.745 143.031 167.783C142.912 167.796 142.74 167.82 142.517 167.857C142.293 167.894 142.063 167.932 141.826 167.97C141.589 168.008 141.386 168.05 141.217 168.094C141.059 168.124 140.982 168.152 140.985 168.179C140.948 168.209 140.893 168.322 140.82 168.517C140.758 168.698 140.694 168.919 140.628 169.18C140.575 169.44 140.527 169.686 140.485 169.918C140.44 170.378 140.419 170.821 140.424 171.249C140.429 171.677 140.461 172.048 140.521 172.363C140.593 172.663 140.695 172.874 140.828 172.993C140.96 173.1 141.139 173.081 141.364 172.937C141.602 172.778 141.818 172.602 142.011 172.407C142.229 172.184 142.428 172.103 142.608 172.164C142.787 172.212 142.908 172.346 142.972 172.567C143.047 172.774 143.012 173.011 142.866 173.281C142.734 173.549 142.531 173.785 142.258 173.987C141.985 174.19 141.699 174.341 141.402 174.439C141.106 174.55 140.842 174.585 140.61 174.542Z" fill="#373737"/>
    <path d="M53.5805 99.7893H156.134" stroke="#373737" stroke-width="1.54424" stroke-miterlimit="10" stroke-linecap="round"/>
    <path d="M127.072 37.139C125.852 34.9616 123.15 34.1123 120.633 34.8999C120.463 34.6373 120.293 34.3903 120.107 34.1432C121.59 32.4136 121.976 30.0355 120.895 28.1206C119.474 25.6035 116.046 24.8314 113.251 26.4065C113.097 26.4992 112.942 26.5918 112.803 26.6845C112.108 26.1594 111.383 25.6498 110.641 25.1866C111.429 23.7967 111.583 22.2679 110.888 21.048C109.668 18.886 106.302 18.4845 103.368 20.1369C102.827 20.4457 102.333 20.8009 101.901 21.2024C101.345 21.0325 100.774 20.8781 100.218 20.7391C100.434 19.7972 100.341 18.8552 99.8933 18.0367C98.6734 15.8748 95.3069 15.4733 92.3729 17.1256C91.1375 17.8205 90.18 18.7779 89.5623 19.8126C89.4234 19.8126 89.2998 19.8435 89.1608 19.8435C89.0991 19.4574 88.9755 19.0714 88.7748 18.7162C87.5548 16.5542 84.1884 16.1527 81.2543 17.8051C79.1078 19.0096 77.7798 21.0017 77.718 22.8239C77.5636 22.8856 77.4246 22.9629 77.2856 23.0246C75.9112 21.2024 72.7764 20.9399 70.0122 22.4841C67.0782 24.1365 65.6883 27.225 66.8928 29.3869C67.0318 29.6185 67.1863 29.8347 67.387 30.0355C67.2635 30.1745 67.1245 30.298 66.9855 30.437C65.3949 29.7421 63.4028 29.8193 61.6579 30.7922C58.8473 32.3673 57.7355 35.7029 59.1562 38.22C59.5268 38.884 60.0364 39.4091 60.6387 39.826C60.4688 40.1966 60.3144 40.5672 60.1599 40.9379C59.3878 41.0459 58.6003 41.293 57.859 41.71C55.0485 43.2851 53.9366 46.6207 55.3573 49.1378C55.8824 50.0643 56.6854 50.7592 57.6274 51.1916C57.5656 51.8865 57.5193 52.5815 57.5038 53.2764C57.2413 53.3845 56.9788 53.508 56.7163 53.647C53.9057 55.2221 52.7939 58.5577 54.2146 61.0748C55.1257 62.7117 56.8861 63.5919 58.7701 63.6074C58.9709 64.3486 59.2179 65.0744 59.465 65.8002C57.334 67.5297 56.6082 70.3711 57.8745 72.6103C59.1253 74.8495 61.766 75.637 64.2676 74.8649C64.4838 75.1737 64.7155 75.4672 64.9316 75.7606C64.0823 77.3202 63.9897 79.1888 64.8544 80.733C66.2134 83.1575 69.41 83.945 72.1278 82.6324C72.622 82.9876 73.1316 83.3273 73.6412 83.6516C73.1779 85.0106 73.2397 86.4931 73.9655 87.7748C75.3862 90.2919 78.8144 91.064 81.6095 89.4889C82.3507 89.0719 82.9684 88.5315 83.4471 87.9292C91.8169 90.122 101.005 89.2109 109.128 84.64C115.938 80.8102 120.941 74.9884 123.829 68.3173C124.848 68.3173 125.898 68.0548 126.871 67.4989C129.682 65.9237 130.794 62.5882 129.373 60.071C128.74 58.9592 127.721 58.1871 126.532 57.801C126.562 57.3995 126.609 56.998 126.624 56.5965C127.072 56.4575 127.535 56.2876 127.968 56.0406C130.778 54.4654 131.89 51.1299 130.469 48.6127C129.512 46.9141 127.643 46.003 125.667 46.0956C125.512 45.4779 125.342 44.8448 125.142 44.2271C127.52 42.5439 128.4 39.5017 127.072 37.1545V37.139Z" fill="#373737"/>
    <path d="M106.533 44.6129C107.676 44.8909 108.834 45.0608 110.008 45.0917C111.428 45.1225 113.606 45.4314 114.501 46.883C115.891 49.1221 114.239 52.8438 111.567 53.9093C111.567 53.9093 111.289 69.6451 98.2559 73.1506C85.9019 74.5249 81.3773 69.9231 77.3314 61.2599C77.3314 61.2599 69.9344 62.1401 69.502 56.658C69.0696 51.176 76.3894 53.6622 76.3894 53.6622L76.5129 52.4423C76.5129 52.4423 82.6436 49.1221 83.0605 45.2924C82.5509 39.9339 86.4578 40.3508 86.4578 40.3508C86.4578 40.3508 94.4416 50.1259 104.078 44.0107L106.502 44.5975L106.533 44.6129Z" fill="white"/>
    <path d="M93.0668 74.0618C93.0668 74.0618 81.8711 74.0618 74.1189 80.038C71.015 81.9683 67.0309 88.1299 67.0309 99.7889L152.613 99.5727L156.443 100.808C169.198 103.758 178.741 89.2108 167.345 78.6173L165.307 77.3974L141.896 66.2634C141.896 66.2634 123.133 55.083 112.231 60.8585L93.0514 74.0772L93.0668 74.0618Z" fill="white"/>
    <path d="M95.7702 99.7893H151.672" stroke="#373737" stroke-width="1.54424" stroke-miterlimit="10"/>
    <path d="M113.064 62.7738L112.771 69.6302L135.981 76.6874L141.169 65.9086L142.297 66.4491L164.364 77.6139C170.618 80.6098 173.259 88.0839 170.294 94.3381C167.514 100.191 160.735 102.97 154.651 100.762C136.351 94.1065 107.798 83.9145 106.115 83.2504C101.158 81.2892 99.0579 73.4599 102.78 69.3522C106.501 65.2291 109.142 63.1753 109.142 63.1753L107.289 56.7049C107.289 56.7049 106.439 54.2341 109.188 53.8171L113.049 62.7738H113.064Z" fill="white" stroke="#373737" stroke-width="1.54424" stroke-miterlimit="10" stroke-linecap="round"/>
    <path d="M133.048 75.7915L154.76 81.7677" stroke="#373737" stroke-width="1.54424" stroke-miterlimit="10" stroke-linecap="round"/>
    <path d="M67.2478 99.7891C67.2478 99.7891 66.661 87.7131 72.1122 81.8758C79.015 74.4789 93.5154 74.0774 93.5154 74.0774C93.5154 74.0774 94.3647 81.15 98.4724 82.4472C101.036 83.2502 104.047 81.953 104.047 81.953L151.486 99.8045H67.2478V99.7891Z" fill="white" stroke="#373737" stroke-width="1.54424" stroke-miterlimit="10"/>
    <path d="M141.186 65.9083C139.58 65.1517 123.967 55.9325 112.061 60.4108L141.186 65.9083Z" fill="white"/>
    <path d="M141.186 65.9083C139.58 65.1517 123.967 55.9325 112.061 60.4108" stroke="#373737" stroke-width="1.54424" stroke-miterlimit="10" stroke-linecap="round"/>
    <path d="M93.6844 67.0201C93.6844 67.0201 95.8772 67.7923 97.9001 66.6341C99.9231 65.4759 99.676 63.3757 99.676 63.3757" stroke="#373737" stroke-width="1.54424" stroke-miterlimit="10" stroke-linecap="round"/>
    <path d="M90.8136 50.9446C90.8136 50.9446 92.8057 51.7013 91.5085 55.5619C90.3812 58.9592 89.887 60.4726 91.7093 61.013C93.5315 61.5535 94.458 61.013 94.458 61.013" stroke="#373737" stroke-width="1.54424" stroke-miterlimit="10" stroke-linecap="round"/>
    <path d="M93.6852 47.5009C93.6852 47.5009 97.1752 44.3198 101.669 46.9141" stroke="#373737" stroke-width="1.54424" stroke-miterlimit="10" stroke-linecap="round"/>
    <path d="M77.8719 55.006C77.8719 55.006 79.4162 50.7439 84.8828 50.9446" stroke="#373737" stroke-width="1.54424" stroke-miterlimit="10" stroke-linecap="round"/>
    <path d="M85.9634 58.9592C86.8127 58.8511 87.3841 57.8628 87.2297 56.7818C87.0752 55.7009 86.2722 54.9133 85.4229 55.0214C84.5736 55.1295 84.0022 56.1178 84.1566 57.1988C84.3111 58.2798 85.1141 59.0673 85.9634 58.9592Z" fill="#373737"/>
    <path d="M97.4839 55.9016C98.3332 55.7935 98.9046 54.8052 98.7502 53.7242C98.5958 52.6432 97.7927 51.8557 96.9434 51.9638C96.0941 52.0719 95.5227 53.0602 95.6771 54.1412C95.8316 55.2221 96.6346 56.0097 97.4839 55.9016Z" fill="#373737"/>
    <path d="M112.246 47.7634C112.246 47.7634 110.038 47.9179 110.47 51.5932" stroke="#373737" stroke-width="1.54424" stroke-miterlimit="10" stroke-linecap="round"/>
    <path d="M71.6016 55.9789C71.6016 55.9789 75.1225 55.0833 75.3232 58.496" stroke="#373737" stroke-width="1.54424" stroke-miterlimit="10" stroke-linecap="round"/>
    <path d="M95.7227 99.7893L89.8391 96.361C88.0014 95.1102 84.7122 95.3418 84.0327 96.1912L83.1062 97.3648L82.6429 96.778C82.0715 96.0676 81.2068 95.6661 80.2957 95.6353H80.1104C78.7977 95.6044 77.6087 96.4228 77.1608 97.6582L76.8983 96.8552C76.6049 95.9595 75.7556 95.3727 74.8136 95.3418C72.698 95.2492 72.1266 98.3995 72.1266 98.3995L71.9567 97.1641C71.6633 96.2066 70.7677 95.5426 69.7485 95.5426C68.4976 95.5426 67.4784 96.5309 67.4475 97.7818L67.2314 106.723C67.185 108.761 68.8219 110.445 70.8603 110.445H71.0765V110.63C71.0765 111.942 72.142 113.008 73.4547 113.008C75.8637 113.07 76.2961 110.259 76.2961 110.259C76.2961 110.259 76.574 112.715 78.9058 112.869C78.9058 112.869 81.0523 113.209 82.1024 110.167C82.5657 112.159 85.0674 112.236 85.0674 112.236C86.6116 112.313 87.9242 111.124 88.0323 109.935L89.1751 99.7893H95.7072H95.7227Z" fill="white" stroke="#373737" stroke-width="1.54424" stroke-miterlimit="10"/>
    <path d="M82.0564 111.016C82.0564 110.769 83.1064 97.3647 83.1064 97.3647" stroke="#373737" stroke-width="1.54424" stroke-linejoin="round"/>
    <path d="M76.281 110.676C76.281 110.429 77.3311 97.0249 77.3311 97.0249" stroke="#373737" stroke-width="1.54424" stroke-linejoin="round"/>
    <path d="M71.0466 110.522C71.0466 110.275 72.2666 97.0405 72.2666 97.0405" stroke="#373737" stroke-width="1.54424" stroke-linejoin="round"/>
    <path d="M211.589 84.313C211.514 84.6751 211.156 84.9081 210.795 84.8347L201.907 83.0363C209.105 88.4767 213.994 96.425 215.598 105.304C217.205 114.182 215.413 123.34 210.577 130.957C210.11 131.676 208.984 130.953 209.449 130.223C214.118 122.881 215.844 114.049 214.284 105.488C212.723 96.9288 207.991 89.2744 201.031 84.052L203.14 92.7754C203.191 93.118 202.97 93.4456 202.632 93.527C202.293 93.6084 201.95 93.4173 201.837 93.0879L199.178 82.0776C199.13 81.8529 199.202 81.6199 199.366 81.4592C199.53 81.2986 199.764 81.2346 199.988 81.2864L211.061 83.5196C211.423 83.5954 211.657 83.9477 211.589 84.313Z" fill="black"/>
    </svg>
    