<svg width="407" height="204" viewBox="0 0 407 204" fill="none" xmlns="http://www.w3.org/2000/svg">
    <path
        d="M125.511 47.2259C124.389 43.9109 120.87 41.9984 117.198 42.4574C117.02 42.0494 116.841 41.6669 116.663 41.2589C119.162 39.2699 120.309 36.0569 119.315 33.1244C118.014 29.2484 113.475 27.3104 109.166 28.7639C108.936 28.8404 108.707 28.9424 108.477 29.0444C107.636 28.1264 106.769 27.2339 105.876 26.3924C107.33 24.6839 107.942 22.6184 107.304 20.7314C106.182 17.4164 101.643 15.9884 97.1295 17.4929C96.288 17.7734 95.523 18.1304 94.8345 18.5639C94.095 18.1814 93.3555 17.8244 92.616 17.4929C93.1515 16.2434 93.279 14.9174 92.871 13.6679C91.749 10.3529 87.21 8.92493 82.6965 10.4294C80.8095 11.0669 79.2285 12.1379 78.1065 13.4129C77.9025 13.3874 77.724 13.3874 77.5455 13.3619C77.5455 12.8009 77.4945 12.2399 77.316 11.7044C76.194 8.38943 71.655 6.96143 67.1415 8.46593C63.852 9.58793 61.506 11.9849 60.9195 14.4839C60.69 14.5349 60.4605 14.5859 60.2565 14.6624C58.8285 11.7809 54.5445 10.5824 50.337 12.0104C45.849 13.5404 43.095 17.4419 44.217 20.7569C44.3445 21.1139 44.4975 21.4709 44.727 21.7769C44.523 21.9299 44.2935 22.0574 44.0895 22.2104C42.075 20.8334 39.2955 20.4254 36.6435 21.3179C32.3595 22.7714 29.937 27.0809 31.2375 30.9569C31.569 31.9769 32.1555 32.8439 32.8695 33.5579C32.538 34.0169 32.2065 34.5014 31.9005 34.9859C30.804 34.9349 29.6565 35.0624 28.509 35.4449C24.225 36.8984 21.8025 41.2079 23.103 45.0839C23.5875 46.5119 24.5055 47.6849 25.704 48.5009C25.4235 49.4444 25.194 50.3879 24.99 51.3569C24.6075 51.4334 24.1995 51.5354 23.7915 51.6629C19.5075 53.1164 17.085 57.4259 18.3855 61.3019C19.227 63.8009 21.42 65.4839 24.0465 65.9939C24.123 67.0649 24.276 68.1359 24.429 69.2069C21.0375 71.0429 19.278 74.7914 20.4255 78.2084C21.573 81.6254 25.0155 83.4104 28.6875 83.0024C28.917 83.4869 29.1465 83.9459 29.376 84.4049C27.795 86.3429 27.183 88.8929 27.9735 91.2644C29.223 94.9619 33.4305 96.8999 37.536 95.8034C38.1225 96.4154 38.7345 97.0274 39.372 97.6139C38.3775 99.3734 38.0715 101.439 38.7345 103.402C40.035 107.278 44.574 109.216 48.8835 107.763C50.0055 107.38 51 106.794 51.8415 106.08C62.8575 111.307 75.8115 112.455 88.23 108.247C98.6595 104.728 107.1 97.9964 112.838 89.5049C114.24 89.7599 115.77 89.6834 117.249 89.1734C121.533 87.7199 123.956 83.4104 122.655 79.5344C122.069 77.8259 120.87 76.4999 119.315 75.6584C119.468 75.0974 119.621 74.5619 119.774 74.0009C120.437 73.9244 121.1 73.7969 121.788 73.5674C126.072 72.1139 128.495 67.8044 127.194 63.9284C126.302 61.3274 123.956 59.5934 121.202 59.1854C121.151 58.2929 121.074 57.3749 120.972 56.4569C124.695 54.7484 126.71 50.7704 125.511 47.1749V47.2259Z"
        fill="#373737" />
    <path
        d="M56.6605 73.746C51.841 73.593 47.9395 69.8445 47.9395 65.0505C47.9395 60.2565 51.841 56.355 56.6605 56.355C60.001 56.355 62.908 58.2165 64.3615 60.9705C64.3615 60.9705 66.478 64.7955 71.7055 63.291C76.933 61.7865 91.111 53.448 93.559 38.862C93.559 38.862 105.187 46.3845 107.864 57.8595C110.542 69.3345 107.405 88.434 90.193 92.4885C85.195 92.9475 75.556 116.688 75.556 116.688L52.912 109.166L60.1285 75.48C60.1285 75.48 60.613 73.8735 56.686 73.746H56.6605Z"
        fill="white" stroke="#373737" stroke-width="2.55" stroke-miterlimit="10" />
    <path
        d="M70.3291 164.22V95.2681C70.3291 92.2591 72.7771 89.8111 75.8116 89.7856L182.555 89.4541C185.589 89.4541 188.063 91.9021 188.063 94.9366V164.934L70.3291 164.22Z"
        fill="white" stroke="#373737" stroke-width="2.55" stroke-miterlimit="10" />
    <path
        d="M161.44 109.369L145.706 107.406C144.737 107.278 143.87 107.967 143.743 108.936C143.615 109.905 144.304 110.772 145.273 110.899L156.773 112.327L131.018 132.37C130.865 132.498 130.636 132.447 130.559 132.268L125.128 121.38C124.006 119.11 121.022 118.549 119.135 120.232L89.1729 146.956L91.5188 149.583L121.481 122.859C121.634 122.731 121.864 122.757 121.966 122.961L127.397 133.824C128.468 135.991 131.273 136.629 133.186 135.124L158.941 115.081L157.513 126.582C157.385 127.551 158.074 128.418 159.043 128.545C160.012 128.673 160.879 127.984 161.006 127.015L162.97 111.282C163.097 110.313 162.409 109.446 161.44 109.318V109.369Z"
        fill="#373737" />
    <path
        d="M183.038 99.756C183.038 99.756 181.916 104.422 183.778 107.1L177.556 104.907C177.556 104.907 175.694 110.466 179.902 114.265C179.902 114.265 177.224 119.263 181.202 122.91C181.202 122.91 179.494 127.347 181.279 129.03C183.064 130.713 188.317 132.574 188.317 132.574L188.393 138.796C188.393 138.796 197.14 134.13 193.978 126.454C193.978 126.454 197.14 123.624 194.054 118.881C194.054 118.881 196.808 116.458 194.462 112.098C194.462 112.098 196.477 108.961 195.355 107.176C194.233 105.391 183.038 99.756 183.038 99.756Z"
        fill="white" stroke="#373737" stroke-width="2.55" stroke-linecap="round"
        stroke-linejoin="round" />
    <path d="M194.055 118.881L179.877 114.291" stroke="#373737" stroke-width="2.55"
        stroke-linecap="round" />
    <path d="M194.462 112.098L183.114 106.794" stroke="#373737" stroke-width="2.55"
        stroke-linecap="round" />
    <path d="M193.978 126.455L181.177 122.91" stroke="#373737" stroke-width="2.55"
        stroke-linecap="round" />
    <path
        d="M59.8985 102.204C77.366 103.454 78.182 114.546 78.182 114.546L63.086 173.859H14.585C14.585 173.859 37.484 103.224 59.924 102.204H59.8985Z"
        fill="white" stroke="#373737" stroke-width="2.55" />
    <path
        d="M27.8214 173.324L56.3814 130.05C56.9934 129.183 71.1459 109.472 79.2549 105.443C87.2364 101.465 108.044 92.7181 108.248 92.6161L108.988 92.3101L109.192 93.0751C109.243 93.2536 110.365 97.5886 107.05 99.8581C104.831 101.388 99.8079 104.321 97.3599 105.723C99.3999 106.616 102.715 108.987 103.327 115.158C103.505 116.918 102.893 118.677 101.669 119.978L99.7314 122.018C99.4509 122.375 97.5894 124.746 94.9884 125.027C93.7389 125.154 92.5659 124.823 91.4439 123.981C90.0414 125.97 85.4259 131.657 78.9999 131.886L66.9129 173.196L27.7959 173.349L27.8214 173.324Z"
        fill="white" stroke="#373737" stroke-width="2.55" stroke-miterlimit="10" />
    <path d="M5.40625 173.859H178.551" stroke="#373737" stroke-width="2.55" stroke-miterlimit="10"
        stroke-linecap="round" />
    <path d="M108.809 56.6865C108.809 56.6865 105.877 54.57 102.281 54.723" stroke="#373737"
        stroke-width="2.55" stroke-miterlimit="10" stroke-linecap="round" />
    <path d="M90.065 54.8505C90.065 54.8505 86.495 54.2385 83.333 55.947" stroke="#373737"
        stroke-width="2.55" stroke-miterlimit="10" stroke-linecap="round" />
    <path
        d="M85.8336 118.575C85.8336 118.575 82.2126 117.274 79.8411 121.89C77.4696 126.505 74.9961 128.494 69.8706 130.05L68.6211 133.365"
        stroke="#373737" stroke-width="2.55" stroke-linecap="round" />
    <path
        d="M81.2168 112.327C81.2168 112.327 88.5098 112.123 91.1873 115.795C93.8648 119.467 93.0998 122.043 91.4678 123.981C89.8358 125.919 82.6703 126.072 81.3698 120.258"
        stroke="#373737" stroke-width="2.55" stroke-linecap="round" />
    <path
        d="M88.2285 108.273C88.2285 108.273 94.017 109.319 96.1335 111.716C98.25 114.113 98.6325 123.216 98.6325 123.216"
        stroke="#373737" stroke-width="2.55" stroke-linecap="round" />
    <path d="M92.2852 105.188L97.8952 105.698" stroke="#373737" stroke-width="2.55"
        stroke-linecap="round" />
    <path
        d="M200.685 163.608H57.7061V175.007H191.658C196.605 175.007 200.608 170.825 200.583 165.674C200.583 164.399 200.583 163.532 200.71 163.634L200.685 163.608Z"
        fill="#373737" />
    <path
        d="M99.3742 57.5535C99.3742 57.5535 97.2577 58.8795 97.9972 61.1745C98.8387 63.852 100.42 67.5495 99.3742 68.697C98.1502 70.023 96.1357 69.3855 96.1357 69.3855"
        stroke="#373737" stroke-width="2.55" stroke-miterlimit="10" stroke-linecap="round" />
    <path
        d="M93.305 62.0161C93.305 62.0161 90.959 60.9451 89.48 61.7101C88.001 62.4751 87.542 64.1326 87.542 64.1326"
        stroke="#373737" stroke-width="2.55" stroke-miterlimit="10" stroke-linecap="round" />
    <path
        d="M101.693 61.7099C101.693 61.7099 103.504 60.6389 104.753 61.0469C106.003 61.4549 106.385 62.5514 106.385 62.5514"
        stroke="#373737" stroke-width="2.55" stroke-miterlimit="10" stroke-linecap="round" />
    <path
        d="M92.5146 72.522C92.5146 72.522 93.4837 74.154 95.5492 74.2815C97.6147 74.409 99.0937 72.522 99.0937 72.522"
        stroke="#373737" stroke-width="2.55" stroke-miterlimit="10" stroke-linecap="round" />
    <path
        d="M55.3857 60.4606C55.3857 60.4606 58.7262 60.9196 60.1797 63.8011C61.6332 66.6826 60.8427 69.3856 60.8427 69.3856"
        stroke="#373737" stroke-width="2.55" stroke-miterlimit="10" stroke-linecap="round" />
    <path d="M78.9232 89.7855C78.9232 89.7855 72.6757 86.7 69.7687 79.0245L66.7852 79.458"
        stroke="#373737" stroke-width="2.55" stroke-miterlimit="10" stroke-linecap="round" />
    <path
        d="M179.209 52.2279C178.825 52.0146 178.612 51.7799 178.569 51.5239C178.548 51.2679 178.697 50.8199 179.017 50.1799C179.337 49.5399 179.838 48.5479 180.521 47.2039C181.033 46.2439 181.374 45.4973 181.545 44.9639C181.737 44.4093 181.844 44.0146 181.865 43.7799C181.886 43.5453 181.897 43.3959 181.897 43.3319C181.854 43.1399 181.876 42.9906 181.961 42.8839C182.046 42.7559 182.185 42.6493 182.377 42.5639C182.484 42.4573 182.729 42.2653 183.113 41.9879C183.497 41.7106 183.796 41.3799 184.009 40.9959C184.201 40.5479 184.414 40.0893 184.649 39.6199C184.905 39.1506 185.236 38.5639 185.641 37.8599C186.046 37.1346 186.59 36.1959 187.273 35.0439C187.7 34.2973 188.201 33.4546 188.777 32.5159C189.374 31.5773 189.961 30.7239 190.537 29.9559C190.772 29.6573 191.017 29.4226 191.273 29.2519C191.529 29.0813 191.753 28.9959 191.945 28.9959C192.414 28.9959 192.884 29.1239 193.353 29.3799C193.822 29.6146 194.238 29.9133 194.601 30.2759C194.964 30.6386 195.209 30.9799 195.337 31.2999C195.444 31.4706 195.486 31.8333 195.465 32.3879C195.444 32.9426 195.401 33.6146 195.337 34.4039C195.273 35.1933 195.198 36.0359 195.113 36.9319C195.049 37.8066 194.953 38.8413 194.825 40.0359C194.697 41.2306 194.569 42.4786 194.441 43.7799C194.334 45.0813 194.249 46.3399 194.185 47.5559C194.121 48.7506 194.121 49.7959 194.185 50.6919C194.206 50.8839 194.206 51.0653 194.185 51.2359C194.164 51.4066 194.153 51.5453 194.153 51.6519C194.025 51.7799 193.748 51.8333 193.321 51.8119C192.894 51.8119 192.478 51.7479 192.073 51.6199C191.668 51.4919 191.444 51.3319 191.401 51.1399C191.337 51.0759 191.294 51.0226 191.273 50.9799C191.252 50.9373 191.252 50.7346 191.273 50.3719C191.294 49.9879 191.326 49.2946 191.369 48.2919L191.529 43.3959L191.113 43.4279C190.921 43.4279 190.569 43.4493 190.057 43.4919C189.566 43.5346 189.022 43.5986 188.425 43.6839C187.849 43.7479 187.316 43.8226 186.825 43.9079C186.334 43.9719 185.993 44.0359 185.801 44.0999C185.609 44.0999 185.374 44.2279 185.097 44.4839C184.841 44.7399 184.596 45.0706 184.361 45.4759C184.276 45.7746 184.116 46.0946 183.881 46.4359C183.668 46.7559 183.561 46.9693 183.561 47.0759C183.412 47.1826 183.284 47.3106 183.177 47.4599C183.092 47.6093 183.049 47.6839 183.049 47.6839C183.049 47.8119 182.953 48.1319 182.761 48.6439C182.569 49.1346 182.334 49.6893 182.057 50.3079C181.78 50.9053 181.492 51.4279 181.193 51.8759L180.329 53.0919L179.209 52.2279ZM186.857 41.2199C186.857 41.2199 186.974 41.1986 187.209 41.1559C187.444 41.1133 187.721 41.0706 188.041 41.0279C188.382 40.9639 188.681 40.9319 188.937 40.9319C189.428 40.8039 189.833 40.7079 190.153 40.6439C190.494 40.5799 190.772 40.5479 190.985 40.5479C191.198 40.5266 191.369 40.5479 191.497 40.6119C191.582 40.7186 191.657 40.7826 191.721 40.8039C191.806 40.8253 191.849 40.8359 191.849 40.8359C191.87 40.7933 191.913 40.5693 191.977 40.1639C192.041 39.7586 192.116 39.2573 192.201 38.6599C192.286 38.0626 192.372 37.4439 192.457 36.8039C192.542 36.1426 192.617 35.5346 192.681 34.9799C192.745 34.4039 192.788 33.9559 192.809 33.6359C192.83 33.2306 192.82 32.8679 192.777 32.5479C192.734 32.2066 192.713 32.0359 192.713 32.0359C192.585 32.0359 192.34 32.2706 191.977 32.7399C191.636 33.1879 191.23 33.7959 190.761 34.5639C190.313 35.3106 189.865 36.1213 189.417 36.9959C189.204 37.4013 189.001 37.7213 188.809 37.9559C188.638 38.1906 188.5 38.3079 188.393 38.3079C188.35 38.3506 188.233 38.5213 188.041 38.8199C187.87 39.0973 187.678 39.4173 187.465 39.7799C187.273 40.1213 187.102 40.4413 186.953 40.7399C186.825 41.0173 186.793 41.1773 186.857 41.2199ZM197.505 51.5239C197.099 51.6306 196.737 51.5133 196.417 51.1719C196.097 50.8519 195.873 50.3719 195.745 49.7319C195.617 49.0919 195.638 48.3773 195.809 47.5879C195.915 47.3319 196.001 47.0866 196.065 46.8519C196.129 46.5959 196.161 46.3933 196.161 46.2439C196.203 46.0306 196.289 45.7213 196.417 45.3159C196.545 44.8893 196.683 44.4519 196.833 44.0039C196.982 43.5559 197.121 43.1613 197.249 42.8199C197.398 42.4573 197.494 42.2333 197.537 42.1479C197.622 42.1479 197.697 42.0733 197.761 41.9239C197.825 41.7746 197.857 41.6253 197.857 41.4759C197.857 41.3053 197.889 41.1133 197.953 40.8999C198.038 40.6866 198.123 40.5373 198.209 40.4519C198.209 40.3453 198.23 40.2279 198.273 40.0999C198.337 39.9506 198.369 39.8333 198.369 39.7479C198.369 39.6626 198.39 39.5773 198.433 39.4919C198.497 39.4066 198.529 39.3213 198.529 39.2359C198.678 38.9586 198.87 38.5213 199.105 37.9239C199.361 37.3053 199.627 36.6226 199.905 35.8759C200.203 35.1293 200.481 34.3933 200.737 33.6679C200.993 32.9426 201.195 32.3346 201.345 31.8439C201.515 31.3319 201.601 31.0226 201.601 30.9159C201.601 30.7453 201.665 30.5853 201.793 30.4359C201.921 30.2866 202.07 30.2119 202.241 30.2119C202.305 30.1479 202.454 30.1053 202.689 30.0839C202.923 30.0413 203.083 30.0199 203.169 30.0199C203.169 30.0199 203.211 30.0626 203.297 30.1479C203.382 30.2333 203.51 30.3613 203.681 30.5319C203.851 30.6813 204.011 30.8519 204.161 31.0439C204.331 31.2359 204.417 31.4599 204.417 31.7159C204.417 31.9933 204.374 32.2599 204.289 32.5159C204.225 32.7719 204.097 33.1239 203.905 33.5719C203.713 33.9986 203.414 34.6386 203.009 35.4919C202.838 35.9186 202.657 36.3239 202.465 36.7079C202.273 37.0706 202.177 37.2946 202.177 37.3799C202.177 37.4653 202.134 37.5933 202.049 37.7639C201.985 37.9346 201.91 38.1479 201.825 38.4039C201.739 38.5746 201.622 38.8306 201.473 39.1719C201.323 39.4919 201.163 39.8439 200.993 40.2279C200.843 40.5906 200.715 40.9106 200.609 41.1879C200.502 41.4439 200.449 41.5933 200.449 41.6359C200.449 41.7213 200.438 41.8066 200.417 41.8919C200.417 41.9773 200.374 42.0626 200.289 42.1479C200.203 42.1479 200.15 42.2119 200.129 42.3399C200.129 42.4466 200.129 42.4999 200.129 42.4999C200.129 42.7133 199.958 43.2786 199.617 44.1959C199.275 45.3693 198.955 46.4466 198.657 47.4279C198.379 48.4093 198.241 49.1986 198.241 49.7959C198.241 50.3079 198.155 50.7026 197.985 50.9799C197.835 51.2573 197.675 51.4386 197.505 51.5239ZM207.384 50.5319C206.744 50.8946 206.062 51.1079 205.336 51.1719C204.632 51.2146 203.971 51.1186 203.352 50.8839C202.734 50.6279 202.232 50.2546 201.848 49.7639C201.635 49.4866 201.432 49.0493 201.24 48.4519C201.048 47.8333 201.016 47.0013 201.144 45.9559C201.272 44.9746 201.571 43.9826 202.04 42.9799C202.531 41.9773 203.128 41.0919 203.832 40.3239C204.536 39.5559 205.304 39.0333 206.136 38.7559C206.435 38.6493 206.734 38.5746 207.032 38.5319C207.352 38.4679 207.768 38.4573 208.28 38.4999C208.771 38.5639 209.208 38.6919 209.592 38.8839C209.976 39.0546 210.254 39.2466 210.424 39.4599C210.766 39.8013 210.99 40.1319 211.096 40.4519C211.203 40.7719 211.246 41.0813 211.224 41.3799C211.118 42.0626 210.808 42.7986 210.296 43.5879C209.806 44.3773 209.112 44.9639 208.216 45.3479C207.854 45.4973 207.427 45.5933 206.936 45.6359C206.446 45.6786 205.774 45.6146 204.92 45.4439C204.408 45.3373 204.067 45.3906 203.896 45.6039C203.747 45.8173 203.683 46.2333 203.704 46.8519C203.747 47.2359 203.832 47.5773 203.96 47.8759C204.11 48.1533 204.376 48.3453 204.76 48.4519C205.251 48.5373 205.603 48.5479 205.816 48.4839C206.03 48.3986 206.296 48.2813 206.616 48.1319C206.787 48.0253 206.947 47.9079 207.096 47.7799C207.267 47.6519 207.427 47.5239 207.576 47.3959C207.747 47.2679 207.886 47.1719 207.992 47.1079C208.099 47.0226 208.206 46.9693 208.312 46.9479C208.419 46.9266 208.526 46.9159 208.632 46.9159C208.867 46.9373 209.091 47.0653 209.304 47.2999C209.518 47.5346 209.656 47.7586 209.72 47.9719C209.72 48.1426 209.614 48.3879 209.4 48.7079C209.187 49.0066 208.899 49.3266 208.536 49.6679C208.195 49.9879 207.811 50.2759 207.384 50.5319ZM206.968 43.3959C207.118 43.3319 207.331 43.1826 207.608 42.9479C207.907 42.7133 208.174 42.4679 208.408 42.2119C208.643 41.9346 208.76 41.7213 208.76 41.5719C208.76 41.3373 208.6 41.1346 208.28 40.9639C207.982 40.7933 207.587 40.7613 207.096 40.8679C206.926 40.9106 206.723 41.0279 206.488 41.2199C206.254 41.4119 206.019 41.6359 205.784 41.8919C205.55 42.1266 205.347 42.3613 205.176 42.5959C205.006 42.8093 204.888 42.9799 204.824 43.1079C204.91 43.2146 205.08 43.2999 205.336 43.3639C205.592 43.4279 205.87 43.4599 206.168 43.4599C206.488 43.4599 206.755 43.4386 206.968 43.3959ZM210.552 51.2679C210.21 51.2253 209.965 51.0013 209.816 50.5959C209.688 50.1693 209.848 49.6999 210.296 49.1879C210.402 49.0813 210.605 48.8573 210.904 48.5159C211.202 48.1746 211.533 47.7906 211.896 47.3639C212.28 46.9159 212.632 46.4999 212.952 46.1159L214.552 44.2279L215.992 42.8199L217.848 40.7719C218.488 40.0893 219.01 39.6199 219.416 39.3639C219.821 39.0866 220.162 38.9586 220.44 38.9799C220.717 39.0013 220.962 39.1186 221.176 39.3319C221.282 39.3959 221.346 39.5453 221.368 39.7799C221.41 40.0146 221.432 40.1746 221.432 40.2599C221.474 40.4093 221.346 40.7186 221.048 41.1879C220.749 41.6359 220.109 42.3506 219.128 43.3319C218.573 43.7159 218.114 44.0999 217.752 44.4839C217.41 44.8679 217.25 45.1026 217.272 45.1879C216.93 45.5719 216.642 45.8813 216.408 46.1159C216.194 46.3506 215.97 46.5853 215.736 46.8199C215.522 47.0333 215.266 47.2999 214.968 47.6199C214.69 47.9186 214.317 48.3453 213.848 48.8999C213.314 49.5399 212.738 50.1053 212.12 50.5959C211.501 51.0653 210.978 51.2893 210.552 51.2679ZM218.52 52.3559C218.37 52.3559 218.2 52.3453 218.008 52.3239C217.816 52.3026 217.602 52.1746 217.368 51.9399C217.133 51.7266 216.845 51.3533 216.504 50.8199L216.024 49.8919V49.9239C215.874 49.6253 215.704 49.2199 215.512 48.7079C215.341 48.1746 215.234 47.8119 215.192 47.6199C215.192 47.5773 215.17 47.5133 215.128 47.4279C215.106 47.3426 215.032 47.1186 214.904 46.7559C214.776 46.3933 214.53 45.7853 214.168 44.9319L213.688 43.2039C213.56 42.7559 213.421 42.3293 213.272 41.9239C213.122 41.4973 212.994 41.2093 212.888 41.0599C212.738 40.7826 212.728 40.6013 212.856 40.5159C213.005 40.4306 213.133 40.2813 213.24 40.0679L213.304 40.0359C213.474 39.8226 213.741 39.6199 214.104 39.4279C214.488 39.2359 214.797 39.1719 215.032 39.2359C215.202 39.3426 215.373 39.5666 215.544 39.9079C215.736 40.2279 215.906 40.5799 216.056 40.9639C216.226 41.3266 216.365 41.6679 216.472 41.9879V41.9559L216.856 43.1079L217.336 44.8679C217.293 44.9746 217.314 45.1879 217.4 45.5079C217.506 45.8279 217.634 46.2119 217.784 46.6599L217.976 47.4279C218.061 47.6199 218.168 47.8333 218.296 48.0679C218.424 48.2813 218.52 48.4733 218.584 48.6439V48.6119C218.69 48.8893 218.797 49.1453 218.904 49.3799C219.01 49.6146 219.096 49.8066 219.16 49.9559C219.245 50.1053 219.298 50.1799 219.32 50.1799C219.448 50.2653 219.512 50.3186 219.512 50.3399C219.533 50.3613 219.554 50.3933 219.576 50.4359C219.597 50.4999 219.629 50.5639 219.672 50.6279C219.736 50.6919 219.778 50.7559 219.8 50.8199C219.864 50.9693 219.821 51.1613 219.672 51.3959C219.522 51.6306 219.33 51.8439 219.096 52.0359C218.882 52.2279 218.69 52.3346 218.52 52.3559ZM232.887 57.4759C232.503 57.6679 232.001 57.7106 231.383 57.6039C230.785 57.4973 230.188 57.2839 229.591 56.9639C229.015 56.6653 228.545 56.3133 228.183 55.9079C227.991 55.6946 227.82 55.4386 227.671 55.1399C227.521 54.8413 227.425 54.5533 227.383 54.2759C227.34 54.0199 227.393 53.8493 227.543 53.7639C227.735 53.6359 227.959 53.5719 228.215 53.5719C228.492 53.5719 228.727 53.6039 228.919 53.6679C229.132 53.7319 229.239 53.8066 229.239 53.8919C229.473 54.1053 229.697 54.2866 229.911 54.4359C230.145 54.6066 230.369 54.7346 230.583 54.8199C230.881 54.9479 231.148 54.9693 231.383 54.8839C231.639 54.8199 231.873 54.6813 232.087 54.4679C232.257 54.2333 232.407 53.9346 232.535 53.5719C232.684 53.2306 232.801 52.8359 232.887 52.3879L232.983 51.9719C233.217 50.9053 233.441 49.9026 233.655 48.9639C233.889 48.0039 234.081 47.3106 234.231 46.8839C234.188 46.8839 234.135 46.8946 234.071 46.9159C234.007 46.9373 233.943 46.9693 233.879 47.0119C233.751 47.0759 233.623 47.1399 233.495 47.2039C233.367 47.2679 233.239 47.3319 233.111 47.3959C232.833 47.5453 232.588 47.6626 232.375 47.7479C232.161 47.8119 231.969 47.8653 231.799 47.9079C231.521 47.9933 231.319 48.0253 231.191 48.0039C231.063 47.9826 230.956 47.9719 230.871 47.9719C230.657 47.9719 230.38 47.9079 230.039 47.7799C229.697 47.6306 229.409 47.4493 229.175 47.2359C228.983 47.0439 228.844 46.8519 228.759 46.6599C228.673 46.4466 228.62 46.2226 228.599 45.9879C228.577 45.7533 228.567 45.5186 228.567 45.2839C228.567 44.9639 228.737 44.3986 229.079 43.5879C229.42 42.7559 229.921 41.9453 230.583 41.1559C230.988 40.7506 231.521 40.3453 232.183 39.9399C232.844 39.5346 233.516 39.1933 234.199 38.9159C234.903 38.6173 235.479 38.4679 235.927 38.4679C236.012 38.4679 236.108 38.4786 236.215 38.4999C236.343 38.5213 236.46 38.5746 236.567 38.6599C236.929 38.7453 237.292 38.9479 237.655 39.2679C238.017 39.5666 238.337 39.9613 238.615 40.4519C238.785 40.7933 238.924 41.1559 239.031 41.5399C239.159 41.9239 239.223 42.3293 239.223 42.7559C239.223 43.0973 239.159 43.3959 239.031 43.6519C238.924 43.8866 238.817 44.0253 238.711 44.0679C238.668 44.1106 238.615 44.1426 238.551 44.1639C238.487 44.1639 238.412 44.1746 238.327 44.1959C238.284 44.1959 238.199 44.2173 238.071 44.2599C237.943 44.3239 237.815 44.4413 237.687 44.6119C237.58 44.7613 237.473 45.0279 237.367 45.4119C237.345 45.5186 237.324 45.6253 237.303 45.7319C237.281 45.8386 237.249 45.9453 237.207 46.0519C237.207 46.0733 237.175 46.1266 237.111 46.2119C237.068 46.2759 237.036 46.3613 237.015 46.4679C236.993 46.6173 236.951 46.7453 236.887 46.8519C236.844 46.9373 236.801 47.0333 236.759 47.1399C236.737 47.2253 236.727 47.2999 236.727 47.3639C236.727 47.4066 236.727 47.4493 236.727 47.4919L236.599 47.8439C236.535 48.0573 236.471 48.2493 236.407 48.4199C236.364 48.5906 236.343 48.6973 236.343 48.7399L236.215 49.3799C236.172 49.6146 236.119 49.8493 236.055 50.0839C236.012 50.3186 235.969 50.5426 235.927 50.7559C235.884 50.9693 235.831 51.1826 235.767 51.3959C235.297 53.2733 234.817 54.6919 234.327 55.6519C233.857 56.6119 233.377 57.2199 232.887 57.4759ZM230.999 45.0599C231.041 45.5293 231.436 45.7319 232.183 45.6679C232.929 45.5826 233.761 45.1346 234.679 44.3239C235.041 44.0253 235.361 43.6839 235.639 43.2999C235.937 42.9159 236.14 42.5213 236.247 42.1159C236.353 41.7746 236.375 41.5399 236.311 41.4119C236.268 41.2626 236.087 41.1773 235.767 41.1559C235.34 41.1559 234.903 41.2519 234.455 41.4439C234.028 41.6146 233.569 41.8599 233.079 42.1799C232.801 42.5639 232.567 42.8093 232.375 42.9159C232.183 43.0226 232.055 43.0759 231.991 43.0759C231.948 43.0546 231.969 43.0653 232.055 43.1079C232.012 43.1933 231.969 43.2679 231.927 43.3319C231.884 43.3959 231.841 43.4599 231.799 43.5239C231.671 43.7373 231.543 43.9186 231.415 44.0679C231.287 44.2173 231.18 44.3666 231.095 44.5159C231.031 44.6653 230.999 44.8466 230.999 45.0599ZM241.983 51.1399C241.471 51.1399 241.023 50.8733 240.639 50.3399C240.276 49.7853 240.052 49.1239 239.967 48.3559C239.988 48.1853 240.009 47.9399 240.031 47.6199C240.073 47.2999 240.116 46.9693 240.159 46.6279C240.244 46.2226 240.361 45.6999 240.511 45.0599C240.66 44.4199 240.82 43.7799 240.991 43.1399C241.161 42.4786 241.311 41.9133 241.439 41.4439C241.567 40.9533 241.641 40.6653 241.663 40.5799C241.791 40.2813 242.079 40.2066 242.527 40.3559C242.975 40.5053 243.359 40.8253 243.679 41.3159C243.807 41.4866 243.881 41.6893 243.903 41.9239C243.945 42.1586 243.913 42.4999 243.807 42.9479C243.721 43.3959 243.551 44.0573 243.295 44.9319C243.06 45.7853 242.879 46.4786 242.751 47.0119C242.644 47.5239 242.601 48.0679 242.623 48.6439C242.537 49.6253 242.452 50.2973 242.367 50.6599C242.281 51.0013 242.153 51.1613 241.983 51.1399ZM244.927 37.8599C244.841 37.9239 244.756 37.9559 244.671 37.9559C244.607 37.9346 244.489 37.8706 244.319 37.7639C244.169 37.7426 243.977 37.6466 243.743 37.4759C243.529 37.2839 243.337 37.0919 243.167 36.8999C243.017 36.7079 242.943 36.5906 242.943 36.5479C242.921 36.3346 242.932 35.9933 242.975 35.5239C243.039 35.0546 243.156 34.6173 243.327 34.2119C243.519 33.7853 243.775 33.5613 244.095 33.5399C244.18 33.5399 244.361 33.5826 244.639 33.6679C244.937 33.7533 245.247 33.8599 245.567 33.9879C245.737 34.3079 245.897 34.7239 246.047 35.2359C246.196 35.7479 246.207 36.2493 246.079 36.7399C245.972 37.2093 245.588 37.5826 244.927 37.8599ZM249.48 50.9799C249.053 50.9373 248.712 50.8306 248.456 50.6599C248.221 50.4679 248.04 50.2333 247.912 49.9559C247.741 49.7639 247.635 49.6146 247.592 49.5079C247.571 49.4013 247.571 49.3053 247.592 49.2199C247.699 49.2199 247.795 49.2199 247.88 49.2199C247.965 49.1986 248.019 49.1559 248.04 49.0919C248.04 49.0279 248.072 48.9853 248.136 48.9639C248.221 48.9426 248.307 48.9426 248.392 48.9639C248.797 48.9853 249.288 48.8466 249.864 48.5479C250.461 48.2493 251.112 47.8333 251.816 47.2999C252.52 46.7453 253.224 46.1479 253.928 45.5079C254.483 44.7826 254.867 44.2493 255.08 43.9079C255.315 43.5666 255.432 43.3106 255.432 43.1399C255.453 42.9479 255.411 42.7559 255.304 42.5639C255.219 42.3933 255.016 42.3079 254.696 42.3079C254.376 42.3079 253.885 42.5213 253.224 42.9479C252.307 43.5239 251.571 44.0573 251.016 44.5479C250.461 45.0386 249.949 45.5933 249.48 46.2119C249.309 46.4253 249.117 46.6599 248.904 46.9159C248.712 47.1506 248.541 47.3533 248.392 47.5239C248.264 47.6946 248.2 47.7799 248.2 47.7799C248.2 47.8653 248.072 47.9719 247.816 48.0999C247.581 48.2279 247.379 48.2919 247.208 48.2919C247.123 48.2493 247.005 48.1746 246.856 48.0679C246.728 47.9399 246.643 47.7799 246.6 47.5879C246.408 47.4386 246.248 47.3106 246.12 47.2039C245.992 47.0759 245.928 46.8733 245.928 46.5959C245.928 46.4253 245.949 46.2119 245.992 45.9559C246.056 45.6999 246.141 45.3693 246.248 44.9639C246.376 44.4093 246.515 43.8333 246.664 43.2359C246.813 42.6173 246.952 42.0946 247.08 41.6679C247.229 41.2199 247.336 40.9746 247.4 40.9319C247.4 40.9319 247.443 40.8359 247.528 40.6439C247.613 40.4519 247.656 40.2279 247.656 39.9719C247.699 39.7159 247.763 39.4919 247.848 39.2999C247.955 39.1079 248.008 38.9693 248.008 38.8839C248.093 38.8199 248.221 38.5639 248.392 38.1159C248.563 37.6679 248.776 37.0813 249.032 36.3559C249.032 36.2919 249.107 36.0893 249.256 35.7479C249.405 35.3853 249.587 34.9693 249.8 34.4999C250.013 34.0093 250.227 33.5079 250.44 32.9959C250.675 32.4626 250.867 31.9933 251.016 31.5879C251.272 31.2253 251.485 30.8626 251.656 30.4999C251.848 30.1159 252.019 29.8919 252.168 29.8279C252.275 29.8066 252.456 29.8493 252.712 29.9559C252.989 30.0626 253.267 30.2013 253.544 30.3719C253.821 30.5426 254.013 30.7133 254.12 30.8839C254.184 30.9906 254.216 31.0973 254.216 31.2039C254.237 31.3106 254.195 31.4919 254.088 31.7479C253.981 31.9826 253.8 32.3773 253.544 32.9319C253.288 33.4653 252.925 34.2226 252.456 35.2039C251.859 36.4839 251.389 37.5506 251.048 38.4039C250.728 39.2573 250.461 39.9933 250.248 40.6119C250.056 41.2306 249.853 41.8173 249.64 42.3719L249.48 43.0759L250.312 42.1479C250.525 41.9346 250.749 41.7319 250.984 41.5399C251.219 41.3479 251.475 41.1559 251.752 40.9639C251.923 40.8359 252.147 40.7079 252.424 40.5799C252.723 40.4306 253.011 40.3026 253.288 40.1959C253.565 40.0893 253.768 40.0253 253.896 40.0039C253.96 39.9826 254.173 39.9399 254.536 39.8759C254.92 39.7906 255.293 39.7479 255.656 39.7479C256.125 39.7479 256.531 39.9186 256.872 40.2599C257.235 40.5799 257.555 40.9746 257.832 41.4439C258.067 41.8919 258.152 42.4679 258.088 43.1719C258.024 43.8546 257.843 44.4413 257.544 44.9319C257.437 45.0173 257.331 45.1346 257.224 45.2839C257.117 45.4119 257.064 45.5186 257.064 45.6039C257.043 45.7533 256.851 46.0626 256.488 46.5319C256.125 46.9799 255.763 47.4066 255.4 47.8119C255.016 48.2173 254.547 48.6226 253.992 49.0279C253.437 49.4119 252.883 49.7639 252.328 50.0839C251.795 50.3826 251.336 50.5959 250.952 50.7239C250.781 50.7453 250.536 50.7879 250.216 50.8519C249.896 50.8946 249.651 50.9373 249.48 50.9799ZM263.091 51.3639C262.792 51.2786 262.493 51.1293 262.195 50.9159C261.896 50.7026 261.587 50.4573 261.267 50.1799C261.011 49.8386 260.829 49.5293 260.723 49.2519C260.616 48.9533 260.552 48.6119 260.531 48.2279C260.531 47.8226 260.531 47.3106 260.531 46.6919C260.531 46.4359 260.573 46.0733 260.659 45.6039C260.765 45.1346 260.872 44.6439 260.979 44.1319C261.107 43.6199 261.224 43.1719 261.331 42.7879C261.437 42.3826 261.501 42.1159 261.523 41.9879C261.587 41.7106 261.48 41.5506 261.203 41.5079C260.925 41.4653 260.616 41.4546 260.275 41.4759C259.955 41.4759 259.741 41.4439 259.635 41.3799C259.549 41.3586 259.507 41.2519 259.507 41.0599C259.507 40.8466 259.507 40.7399 259.507 40.7399C259.507 40.6546 259.464 40.6013 259.379 40.5799C259.293 40.5373 259.219 40.4626 259.155 40.3559C259.112 40.2706 259.165 40.1106 259.315 39.8759C259.464 39.6413 259.656 39.5026 259.891 39.4599C260.083 39.4173 260.371 39.3853 260.755 39.3639C261.139 39.3213 261.523 39.2466 261.907 39.1399C262.312 39.0119 262.621 38.8199 262.835 38.5639C263.027 38.0946 263.24 37.5933 263.475 37.0599C263.709 36.5053 263.933 36.0253 264.147 35.6199C264.36 35.1933 264.509 34.9266 264.595 34.8199C264.957 34.6279 265.331 34.5533 265.715 34.5959C266.099 34.6173 266.397 34.7986 266.611 35.1399C266.717 35.2893 266.803 35.3959 266.867 35.4599C266.952 35.5239 266.984 35.6199 266.963 35.7479C266.963 35.8759 266.877 36.1106 266.707 36.4519C266.557 36.7719 266.301 37.2733 265.939 37.9559C265.832 38.1693 265.736 38.3613 265.651 38.5319C265.565 38.6813 265.523 38.7559 265.523 38.7559C265.608 38.7773 265.736 38.7879 265.907 38.7879C266.077 38.7879 266.291 38.7773 266.547 38.7559C266.781 38.7133 267.037 38.6813 267.315 38.6599C267.592 38.6173 267.837 38.6173 268.051 38.6599C268.541 38.6599 268.904 38.7986 269.139 39.0759C269.373 39.3533 269.501 39.7053 269.523 40.1319C269.565 40.3666 269.48 40.5693 269.267 40.7399C269.053 40.9106 268.659 40.9959 268.083 40.9959C267.891 40.9959 267.613 41.0066 267.251 41.0279C266.888 41.0493 266.515 41.0706 266.131 41.0919C265.747 41.1133 265.416 41.1453 265.139 41.1879C264.883 41.2093 264.755 41.2413 264.755 41.2839C264.691 41.3266 264.584 41.4973 264.435 41.7959C264.307 42.0733 264.168 42.4146 264.019 42.8199C263.891 43.2253 263.773 43.6093 263.667 43.9719C263.517 44.6973 263.411 45.4013 263.347 46.0839C263.283 46.7666 263.272 47.3639 263.315 47.8759C263.379 48.3666 263.507 48.7186 263.699 48.9319C263.891 49.1239 264.179 49.1239 264.563 48.9319C264.968 48.7186 265.341 48.4733 265.683 48.1959C266.067 47.8759 266.397 47.7799 266.675 47.9079C266.952 48.0146 267.123 48.2493 267.187 48.6119C267.272 48.9533 267.176 49.3266 266.899 49.7319C266.643 50.1373 266.28 50.4786 265.811 50.7559C265.341 51.0333 264.861 51.2253 264.371 51.3319C263.88 51.4599 263.453 51.4706 263.091 51.3639ZM284.219 51.5559C283.984 51.6413 283.717 51.6839 283.419 51.6839C283.141 51.7053 282.821 51.5773 282.459 51.2999C282.245 51.0653 282.096 50.8199 282.011 50.5639C281.947 50.3079 281.915 49.9133 281.915 49.3799C281.957 49.0599 282.043 48.6013 282.171 48.0039C282.299 47.3853 282.437 46.7453 282.587 46.0839C282.757 45.4013 282.907 44.7933 283.035 44.2599C283.184 43.7053 283.301 43.3319 283.387 43.1399C283.536 42.6279 283.568 42.3079 283.483 42.1799C283.397 42.0519 283.141 41.9773 282.715 41.9559C282.224 41.9346 281.712 42.1693 281.179 42.6599C280.645 43.1506 280.037 43.9293 279.355 44.9959C278.843 45.7853 278.533 46.4359 278.427 46.9479C278.32 47.4386 278.309 47.7799 278.395 47.9719C278.437 48.0573 278.512 48.1106 278.619 48.1319C278.747 48.1319 278.896 48.0999 279.067 48.0359C279.259 47.9719 279.461 47.8866 279.675 47.7799C279.824 47.6946 280.005 47.6093 280.219 47.5239C280.453 47.4173 280.677 47.3213 280.891 47.2359C281.019 47.2359 281.104 47.3106 281.147 47.4599C281.211 47.6093 281.243 47.7906 281.243 48.0039C281.243 48.0893 281.264 48.2493 281.307 48.4839C281.371 48.7186 281.477 48.8786 281.627 48.9639C281.712 49.0493 281.531 49.2306 281.083 49.5079C280.656 49.7639 280.101 50.0839 279.419 50.4679C278.779 50.6173 278.299 50.6919 277.979 50.6919C277.68 50.6919 277.349 50.5533 276.987 50.2759C276.389 49.9133 276.005 49.2413 275.835 48.2599C275.685 47.2786 275.813 46.1906 276.219 44.9959C276.624 44.0359 277.072 43.2146 277.563 42.5319C278.075 41.8279 278.608 41.1879 279.163 40.6119C279.248 40.5266 279.515 40.3559 279.963 40.0999C280.411 39.8439 280.869 39.6413 281.339 39.4919C281.872 39.3213 282.32 39.2573 282.683 39.2999C283.067 39.3213 283.429 39.4493 283.771 39.6839C284.155 39.7693 284.411 39.7586 284.539 39.6519C284.688 39.5453 284.859 39.2466 285.051 38.7559C285.435 37.6893 285.84 36.6119 286.267 35.5239C286.693 34.4146 287.141 33.2946 287.611 32.1639C287.824 31.7586 287.952 31.4493 287.995 31.2359C288.059 31.0013 288.133 30.8413 288.219 30.7559L289.115 30.4679C289.349 30.4039 289.616 30.5106 289.915 30.7879C290.235 31.0653 290.437 31.3319 290.523 31.5879C290.523 31.7799 290.437 32.2066 290.267 32.8679C290.096 33.5079 289.819 34.2759 289.435 35.1719C289.093 35.9613 288.752 36.7613 288.411 37.5719C288.091 38.3613 287.781 39.2039 287.483 40.0999C287.248 40.7613 287.035 41.2946 286.843 41.6999C286.651 42.1053 286.523 42.4573 286.459 42.7559C286.331 43.3106 286.171 43.8119 285.979 44.2599C285.808 44.6866 285.691 44.9853 285.627 45.1559C285.349 45.9666 285.136 46.6386 284.987 47.1719C284.837 47.6839 284.741 48.1319 284.699 48.5159C284.656 48.8786 284.645 49.2413 284.667 49.6039C284.688 49.9453 284.731 50.3399 284.795 50.7879C284.795 50.8733 284.731 51.0013 284.603 51.1719C284.496 51.3213 284.368 51.4493 284.219 51.5559ZM289.222 50.1159C289.136 50.1159 288.955 50.0519 288.678 49.9239C288.4 49.7959 288.262 49.7319 288.262 49.7319C288.262 49.6466 288.23 49.5399 288.166 49.4119C288.123 49.2839 288.102 49.1773 288.102 49.0919C287.952 49.0066 287.803 48.8679 287.654 48.6759C287.504 48.4839 287.472 48.2706 287.558 48.0359C287.686 47.8013 287.856 47.4493 288.07 46.9799C288.304 46.4893 288.55 45.9453 288.806 45.3479C289.083 44.7293 289.339 44.1319 289.574 43.5559C289.808 42.9799 290.011 42.4893 290.182 42.0839C290.352 41.6573 290.448 41.4013 290.47 41.3159C290.47 41.2306 290.48 41.0813 290.502 40.8679C290.544 40.6546 290.683 40.4733 290.918 40.3239C291.195 40.1319 291.483 40.1213 291.782 40.2919C292.08 40.4626 292.336 40.7613 292.55 41.1879C292.763 41.5933 292.87 42.0733 292.87 42.6279C292.87 42.7773 292.763 43.1613 292.55 43.7799C292.336 44.3773 292.048 45.0919 291.686 45.9239C291.344 46.7559 290.96 47.5986 290.534 48.4519C290.214 49.0706 289.968 49.5079 289.798 49.7639C289.648 49.9986 289.456 50.1159 289.222 50.1159ZM293.574 37.8599C293.318 37.8599 293.008 37.7426 292.646 37.5079C292.304 37.2733 291.995 36.9746 291.718 36.6119C291.44 36.2493 291.302 35.8653 291.302 35.4599C291.302 35.3533 291.398 35.1613 291.59 34.8839C291.782 34.5853 291.963 34.2973 292.134 34.0199C292.326 33.7426 292.422 33.5826 292.422 33.5399C292.592 33.5399 292.795 33.5719 293.03 33.6359C293.264 33.6999 293.456 33.7746 293.606 33.8599C293.84 34.3933 294.15 34.8519 294.534 35.2359C294.918 35.5986 295.11 36.0146 295.11 36.4839C295.11 36.9533 294.992 37.3053 294.758 37.5399C294.523 37.7533 294.128 37.8599 293.574 37.8599ZM294.479 50.3079C294.287 50.1586 294.073 49.9666 293.839 49.7319C293.625 49.4973 293.551 49.1666 293.615 48.7399C293.679 48.1426 293.764 47.6199 293.871 47.1719C293.977 46.7026 294.105 46.1693 294.255 45.5719C294.297 45.3159 294.404 44.8786 294.575 44.2599C294.767 43.6413 294.991 42.9693 295.247 42.2439C295.503 41.5186 295.769 40.8359 296.047 40.1959C296.324 39.5346 296.569 39.0439 296.783 38.7239C297.017 38.5106 297.359 38.4039 297.807 38.4039C298.276 38.4039 298.596 38.4893 298.767 38.6599C299.001 38.8519 299.076 39.1933 298.991 39.6839C298.905 40.1533 298.607 40.8893 298.095 41.8919C297.988 42.1479 297.849 42.4253 297.679 42.7239C297.529 43.0013 297.423 43.2359 297.359 43.4279C297.295 43.5986 297.316 43.6733 297.423 43.6519C297.551 43.4173 297.785 43.1506 298.127 42.8519C298.468 42.5319 298.831 42.2226 299.215 41.9239C299.599 41.6253 299.961 41.3586 300.303 41.1239C300.644 40.8893 300.879 40.7399 301.007 40.6759C301.177 40.5693 301.369 40.4839 301.583 40.4199C301.817 40.3346 301.977 40.2706 302.063 40.2279C302.553 39.9933 303.087 39.9079 303.663 39.9719C304.26 40.0146 304.623 40.1959 304.751 40.5159C304.772 40.6866 304.836 40.8146 304.943 40.8999C305.071 40.9853 305.135 41.0279 305.135 41.0279C305.22 41.0279 305.263 41.0599 305.263 41.1239C305.284 41.1879 305.295 41.2199 305.295 41.2199C305.295 41.3693 305.145 41.5826 304.847 41.8599C304.569 42.1373 304.26 42.2866 303.919 42.3079C303.641 42.3293 303.396 42.3826 303.183 42.4679C302.969 42.5533 302.713 42.6599 302.415 42.7879C301.604 43.2573 300.868 43.6733 300.207 44.0359C299.567 44.3986 298.905 44.9533 298.223 45.6999C298.073 45.8706 297.913 46.0306 297.743 46.1799C297.572 46.3293 297.401 46.5426 297.231 46.8199C297.124 46.9266 297.017 47.1613 296.911 47.5239C296.804 47.8866 296.708 48.2386 296.623 48.5799C296.559 48.8999 296.527 49.0919 296.527 49.1559C296.527 49.1559 296.495 49.2626 296.431 49.4759C296.367 49.6679 296.26 49.8599 296.111 50.0519C295.855 50.3933 295.599 50.6066 295.343 50.6919C295.108 50.7773 294.82 50.6493 294.479 50.3079ZM325.312 41.5399C325.184 41.6253 324.917 41.7319 324.512 41.8599C324.128 41.9666 323.467 42.0733 322.528 42.1799C322.251 42.2013 321.856 42.2226 321.344 42.2439C320.832 42.2653 320.277 42.2866 319.68 42.3079C319.104 42.3293 318.571 42.3399 318.08 42.3399C317.611 42.3186 317.28 42.2866 317.088 42.2439C317.088 42.2439 317.035 42.2973 316.928 42.4039C316.843 42.5106 316.8 42.6493 316.8 42.8199C316.651 43.0759 316.469 43.4599 316.256 43.9719C316.043 44.4626 315.808 45.0066 315.552 45.6039C315.317 46.2013 315.093 46.7986 314.88 47.3959C314.667 47.9719 314.485 48.4839 314.336 48.9319C314.208 49.3586 314.144 49.6573 314.144 49.8279C313.952 50.3399 313.835 50.7773 313.792 51.1399C313.749 51.5026 313.675 51.7159 313.568 51.7799C313.504 52.0999 313.301 52.2599 312.96 52.2599C312.64 52.2599 312.395 52.1639 312.224 51.9719C311.755 51.7373 311.435 51.4386 311.264 51.0759C311.093 50.6919 311.083 50.2653 311.232 49.7959C311.296 49.5186 311.403 49.1133 311.552 48.5799C311.723 48.0253 311.904 47.4173 312.096 46.7559C312.309 46.0946 312.523 45.4546 312.736 44.8359C312.971 44.1959 313.195 43.6733 313.408 43.2679C313.643 42.8626 313.792 42.4999 313.856 42.1799C313.92 41.8386 314.005 41.5293 314.112 41.2519C314.091 41.0173 314.091 40.8679 314.112 40.8039C314.133 40.7186 314.219 40.5799 314.368 40.3879C314.475 40.3026 314.603 40.1533 314.752 39.9399C314.923 39.7053 315.115 39.3533 315.328 38.8839C315.392 38.6706 315.488 38.3826 315.616 38.0199C315.765 37.6359 315.904 37.2519 316.032 36.8679C316.16 36.4626 316.277 36.1213 316.384 35.8439C316.491 35.5666 316.544 35.4173 316.544 35.3959C316.587 35.3106 316.651 35.1506 316.736 34.9159C316.821 34.6599 316.885 34.4573 316.928 34.3079C317.013 34.0093 317.077 33.7639 317.12 33.5719C317.184 33.3799 317.173 33.2839 317.088 33.2839C316.917 33.3266 316.576 33.3586 316.064 33.3799C315.808 33.4226 315.616 33.4546 315.488 33.4759C315.381 33.4759 315.285 33.4866 315.2 33.5079C314.987 33.5293 314.795 33.5079 314.624 33.4439C314.453 33.3799 314.368 33.2519 314.368 33.0599C314.411 32.7186 314.528 32.3666 314.72 32.0039C314.933 31.6413 315.2 31.4493 315.52 31.4279C315.669 31.3853 315.829 31.3533 316 31.3319C316.192 31.2893 316.448 31.2253 316.768 31.1399C317.173 31.0546 317.525 31.0333 317.824 31.0759C318.144 31.0973 318.368 31.1293 318.496 31.1719C318.603 31.1079 318.688 31.0439 318.752 30.9799C318.837 30.8946 318.891 30.8093 318.912 30.7239C319.019 30.3399 319.211 30.0519 319.488 29.8599C319.765 29.6466 320.053 29.5399 320.352 29.5399C320.672 29.5186 320.928 29.6039 321.12 29.7959C321.312 29.9666 321.365 30.2546 321.28 30.6599C321.301 30.7239 321.323 30.7773 321.344 30.8199C321.387 30.8626 321.547 30.8626 321.824 30.8199C322.123 30.7559 322.635 30.6493 323.36 30.4999C323.744 30.4573 324.224 30.4146 324.8 30.3719C325.397 30.3293 325.867 30.3613 326.208 30.4679C326.571 30.4039 326.891 30.3826 327.168 30.4039C327.467 30.4039 327.669 30.3613 327.776 30.2759C328.224 30.3613 328.544 30.4253 328.736 30.4679C328.949 30.4893 329.12 30.5533 329.248 30.6599C329.333 30.7453 329.365 30.8306 329.344 30.9159C329.323 30.9799 329.312 31.0119 329.312 31.0119C329.227 30.9693 329.216 30.9693 329.28 31.0119C329.344 31.0333 329.429 31.0866 329.536 31.1719C329.685 31.2359 329.76 31.3746 329.76 31.5879C329.781 31.7799 329.771 31.9826 329.728 32.1959C329.707 32.3879 329.685 32.5159 329.664 32.5799C329.643 32.7719 329.536 32.8893 329.344 32.9319C329.152 32.9533 328.672 32.9533 327.904 32.9319C326.987 32.8039 326.133 32.7613 325.344 32.8039C324.576 32.8253 323.605 32.9213 322.432 33.0919C321.963 33.1133 321.557 33.1773 321.216 33.2839C320.896 33.3693 320.736 33.4119 320.736 33.4119C320.651 33.4119 320.501 33.5613 320.288 33.8599C320.075 34.1373 319.872 34.5533 319.68 35.1079C319.595 35.2573 319.445 35.5666 319.232 36.0359C319.04 36.5053 318.837 37.0173 318.624 37.5719C318.411 38.1053 318.219 38.5853 318.048 39.0119C317.877 39.4173 317.771 39.6413 317.728 39.6839C318.027 39.7693 318.485 39.8119 319.104 39.8119C319.744 39.8119 320.448 39.7906 321.216 39.7479C321.984 39.6839 322.709 39.6199 323.392 39.5559C323.712 39.4919 324.043 39.4386 324.384 39.3959C324.725 39.3533 324.96 39.3426 325.088 39.3639C325.344 39.3853 325.536 39.5559 325.664 39.8759C325.792 40.1746 325.835 40.4946 325.792 40.8359C325.749 41.1559 325.589 41.3906 325.312 41.5399ZM331.846 50.5319C331.206 50.8946 330.523 51.1079 329.798 51.1719C329.094 51.2146 328.432 51.1186 327.814 50.8839C327.195 50.6279 326.694 50.2546 326.31 49.7639C326.096 49.4866 325.894 49.0493 325.702 48.4519C325.51 47.8333 325.478 47.0013 325.606 45.9559C325.734 44.9746 326.032 43.9826 326.502 42.9799C326.992 41.9773 327.59 41.0919 328.294 40.3239C328.998 39.5559 329.766 39.0333 330.598 38.7559C330.896 38.6493 331.195 38.5746 331.494 38.5319C331.814 38.4679 332.23 38.4573 332.742 38.4999C333.232 38.5639 333.67 38.6919 334.054 38.8839C334.438 39.0546 334.715 39.2466 334.886 39.4599C335.227 39.8013 335.451 40.1319 335.558 40.4519C335.664 40.7719 335.707 41.0813 335.686 41.3799C335.579 42.0626 335.27 42.7986 334.758 43.5879C334.267 44.3773 333.574 44.9639 332.678 45.3479C332.315 45.4973 331.888 45.5933 331.398 45.6359C330.907 45.6786 330.235 45.6146 329.382 45.4439C328.87 45.3373 328.528 45.3906 328.358 45.6039C328.208 45.8173 328.144 46.2333 328.166 46.8519C328.208 47.2359 328.294 47.5773 328.422 47.8759C328.571 48.1533 328.838 48.3453 329.222 48.4519C329.712 48.5373 330.064 48.5479 330.278 48.4839C330.491 48.3986 330.758 48.2813 331.078 48.1319C331.248 48.0253 331.408 47.9079 331.558 47.7799C331.728 47.6519 331.888 47.5239 332.038 47.3959C332.208 47.2679 332.347 47.1719 332.454 47.1079C332.56 47.0226 332.667 46.9693 332.774 46.9479C332.88 46.9266 332.987 46.9159 333.094 46.9159C333.328 46.9373 333.552 47.0653 333.766 47.2999C333.979 47.5346 334.118 47.7586 334.182 47.9719C334.182 48.1426 334.075 48.3879 333.862 48.7079C333.648 49.0066 333.36 49.3266 332.998 49.6679C332.656 49.9879 332.272 50.2759 331.846 50.5319ZM331.43 43.3959C331.579 43.3319 331.792 43.1826 332.07 42.9479C332.368 42.7133 332.635 42.4679 332.87 42.2119C333.104 41.9346 333.222 41.7213 333.222 41.5719C333.222 41.3373 333.062 41.1346 332.742 40.9639C332.443 40.7933 332.048 40.7613 331.558 40.8679C331.387 40.9106 331.184 41.0279 330.95 41.2199C330.715 41.4119 330.48 41.6359 330.246 41.8919C330.011 42.1266 329.808 42.3613 329.638 42.5959C329.467 42.8093 329.35 42.9799 329.286 43.1079C329.371 43.2146 329.542 43.2999 329.798 43.3639C330.054 43.4279 330.331 43.4599 330.63 43.4599C330.95 43.4599 331.216 43.4386 331.43 43.3959ZM338.949 51.7479C337.776 51.7479 336.869 51.4066 336.229 50.7239C335.61 50.0413 335.301 48.9959 335.301 47.5879C335.301 46.8199 335.44 45.9773 335.717 45.0599C336.016 44.1426 336.4 43.2466 336.869 42.3719C337.36 41.4973 337.893 40.7399 338.469 40.0999C339.045 39.4386 339.621 38.9799 340.197 38.7239C340.41 38.6173 340.634 38.5426 340.869 38.4999C341.125 38.4359 341.37 38.4039 341.605 38.4039C341.861 38.4039 342.138 38.4253 342.437 38.4679C342.757 38.4893 343.056 38.5533 343.333 38.6599C343.824 38.8093 344.25 39.0973 344.613 39.5239C344.997 39.9506 345.189 40.5693 345.189 41.3799C345.189 41.5933 345.168 41.8279 345.125 42.0839C345.082 42.3186 345.008 42.5533 344.901 42.7879C344.624 43.4919 344.197 44.1639 343.621 44.8039C343.066 45.4439 342.48 45.8919 341.861 46.1479C341.69 46.2333 341.52 46.2973 341.349 46.3399C341.2 46.3613 341.04 46.3719 340.869 46.3719C340.421 46.3719 340.016 46.3079 339.653 46.1799C339.312 46.0519 338.992 45.8813 338.693 45.6679L338.437 45.4439L338.277 45.7639C338.128 46.1693 338.021 46.5106 337.957 46.7879C337.914 47.0653 337.893 47.2679 337.893 47.3959C337.893 47.6519 337.904 47.9186 337.925 48.1959C337.946 48.4519 338.01 48.6653 338.117 48.8359C338.202 48.9426 338.309 49.0279 338.437 49.0919C338.586 49.1559 338.768 49.1879 338.981 49.1879C339.109 49.1879 339.226 49.1879 339.333 49.1879C339.461 49.1666 339.568 49.1453 339.653 49.1239C340.037 49.0386 340.346 48.8999 340.581 48.7079C340.837 48.4946 341.104 48.3133 341.381 48.1639L341.509 48.0999L341.477 48.0039C341.84 47.8119 342.085 47.6946 342.213 47.6519C342.341 47.5879 342.437 47.5346 342.501 47.4919C342.586 47.4066 342.682 47.3639 342.789 47.3639C343.088 47.3213 343.376 47.4066 343.653 47.6199C343.952 47.8119 344.101 48.0573 344.101 48.3559C344.101 48.4839 344.005 48.6866 343.813 48.9639C343.642 49.2413 343.418 49.5186 343.141 49.7959C342.885 50.0519 342.618 50.2546 342.341 50.4039C342.277 50.4253 342.213 50.4573 342.149 50.4999C342.085 50.5213 342.021 50.5533 341.957 50.5959H341.989C341.797 50.8519 341.605 50.9799 341.413 50.9799H341.157C341.072 51.1293 340.794 51.2893 340.325 51.4599C339.856 51.6519 339.397 51.7479 338.949 51.7479ZM340.613 44.0359C340.805 44.0359 340.976 44.0039 341.125 43.9399C341.296 43.8759 341.456 43.8013 341.605 43.7159C342.117 43.3533 342.448 42.8839 342.597 42.3079C342.746 41.7319 342.693 41.2946 342.437 40.9959C342.394 40.9319 342.341 40.8893 342.277 40.8679C342.213 40.8253 342.138 40.8039 342.053 40.8039C341.818 40.8039 341.552 40.8786 341.253 41.0279C340.976 41.1773 340.698 41.3906 340.421 41.6679C340.144 41.9453 339.888 42.2759 339.653 42.6599L339.237 43.3319C339.28 43.3106 339.312 43.2999 339.333 43.2999C339.376 43.2786 339.408 43.2679 339.429 43.2679C339.621 43.2679 339.749 43.3319 339.813 43.4599C339.877 43.5879 339.952 43.7159 340.037 43.8439C340.144 43.9719 340.336 44.0359 340.613 44.0359ZM354.949 51.1399C354.629 51.1613 354.33 51.1719 354.053 51.1719C353.797 51.1719 353.594 51.1293 353.445 51.0439C353.061 50.7239 352.805 50.4679 352.677 50.2759C352.57 50.0839 352.517 49.8706 352.517 49.6359C352.538 49.3373 352.549 49.0386 352.549 48.7399C352.549 48.4199 352.549 48.1746 352.549 48.0039C352.463 47.9186 352.293 48.0146 352.037 48.2919C351.781 48.5693 351.482 48.8359 351.141 49.0919C350.479 49.8386 349.893 50.3826 349.381 50.7239C348.869 51.0439 348.399 51.2253 347.973 51.2679C347.546 51.3319 347.119 51.3426 346.693 51.2999C346.309 51.2573 345.967 51.0653 345.669 50.7239C345.391 50.3826 345.178 49.9666 345.029 49.4759C344.901 48.9853 344.858 48.5053 344.901 48.0359C345.007 47.1613 345.199 46.3719 345.477 45.6679C345.754 44.9426 346.17 44.1853 346.725 43.3959C346.981 43.0546 347.322 42.6813 347.749 42.2759C348.197 41.8706 348.677 41.4973 349.189 41.1559C349.701 40.7933 350.159 40.5373 350.565 40.3879C351.183 40.1106 351.695 39.9826 352.101 40.0039C352.527 40.0253 352.943 40.0893 353.349 40.1959C353.647 40.3453 353.882 40.4199 354.053 40.4199C354.245 40.4199 354.383 40.3133 354.469 40.0999C354.597 39.9293 354.693 39.7159 354.757 39.4599C354.821 39.2039 354.927 38.9586 355.077 38.7239L355.781 36.6439C356.015 36.0679 356.293 35.4066 356.613 34.6599C356.933 33.9133 357.295 33.0813 357.701 32.1639C358.191 31.3319 358.607 30.8946 358.949 30.8519C359.311 30.8093 359.685 31.0013 360.069 31.4279C360.325 31.6839 360.463 32.0039 360.485 32.3879C360.527 32.7506 360.431 33.1773 360.197 33.6679C360.047 33.9026 359.887 34.2013 359.717 34.5639C359.546 34.9053 359.343 35.3106 359.109 35.7799C358.874 36.3346 358.629 36.8893 358.373 37.4439C358.138 37.9986 357.893 38.6066 357.637 39.2679C357.551 39.6093 357.434 40.0039 357.285 40.4519C357.157 40.8999 357.05 41.3053 356.965 41.6679C356.901 42.0093 356.826 42.3293 356.741 42.6279C356.677 42.9053 356.602 43.0439 356.517 43.0439C356.346 43.1933 356.186 43.5133 356.037 44.0039C355.887 44.4733 355.759 44.9746 355.653 45.5079C355.567 46.0413 355.493 46.4786 355.429 46.8199C355.386 47.0759 355.354 47.4386 355.333 47.9079C355.311 48.3559 355.301 48.7933 355.301 49.2199C355.301 49.6253 355.301 49.9026 355.301 50.0519C355.301 50.4573 355.269 50.7453 355.205 50.9159C355.162 51.0653 355.077 51.1399 354.949 51.1399ZM347.717 48.6119C348.207 48.6119 348.666 48.4093 349.093 48.0039C349.541 47.5773 350.031 47.1293 350.565 46.6599C350.885 46.3399 351.215 45.9879 351.557 45.6039C351.898 45.1986 352.207 44.8039 352.485 44.4199C352.783 44.0359 353.018 43.7053 353.189 43.4279C353.359 43.1506 353.445 42.9693 353.445 42.8839C353.445 42.7773 353.359 42.6813 353.189 42.5959C353.039 42.5106 352.858 42.4466 352.645 42.4039C352.431 42.3399 352.239 42.3293 352.069 42.3719C351.557 42.5213 351.141 42.7453 350.821 43.0439C350.522 43.3426 350.085 43.8119 349.509 44.4519C348.933 45.1559 348.474 45.8279 348.133 46.4679C347.791 47.1079 347.578 47.6306 347.493 48.0359C347.429 48.4199 347.503 48.6119 347.717 48.6119ZM359.727 49.5399C359.727 49.3693 359.706 49.2093 359.663 49.0599C359.621 48.9106 359.642 48.7933 359.727 48.7079L359.983 48.7719C359.898 48.7933 359.727 48.8039 359.471 48.8039C359.237 48.7826 359.013 48.7506 358.799 48.7079C358.607 48.6439 358.501 48.5906 358.479 48.5479C358.501 48.1853 358.522 47.9079 358.543 47.7159C358.586 47.5239 358.639 47.3639 358.703 47.2359C358.703 47.0439 358.767 46.7986 358.895 46.4999C359.023 46.2013 359.13 45.8919 359.215 45.5719C359.301 45.2093 359.407 44.6653 359.535 43.9399C359.685 43.2146 359.898 42.5213 360.175 41.8599C360.346 41.3053 360.559 40.6119 360.815 39.7799C361.071 38.9266 361.317 38.2226 361.551 37.6679C361.807 36.6866 362.042 35.8973 362.255 35.2999C362.49 34.6813 362.725 34.1266 362.96 33.6359C363.216 33.1239 363.493 32.5479 363.792 31.9079C363.877 31.7373 363.962 31.5239 364.047 31.2679C364.133 30.9906 364.207 30.7559 364.271 30.5639C364.463 30.2226 364.73 30.0093 365.071 29.9239C365.434 29.8386 365.744 29.9239 366 30.1799C366.234 30.4146 366.416 30.6279 366.543 30.8199C366.672 30.9906 366.704 31.2786 366.639 31.6839C366.597 32.0679 366.394 32.7079 366.031 33.6039C365.882 33.8173 365.711 34.1799 365.519 34.6919C365.349 35.1826 365.189 35.6199 365.04 36.0039C364.719 36.7506 364.463 37.3906 364.271 37.9239C364.079 38.4573 363.898 39.0013 363.727 39.5559C363.578 40.1533 363.386 40.7399 363.151 41.3159C362.917 41.8706 362.693 42.4786 362.479 43.1399L361.967 43.2999C362.117 43.1079 362.298 42.8839 362.511 42.6279C362.746 42.3719 362.959 42.1373 363.151 41.9239C363.365 41.7106 363.504 41.5719 363.568 41.5079C364.144 41.0173 364.784 40.5906 365.488 40.2279C366.192 39.8653 366.853 39.6093 367.472 39.4599C368.112 39.2893 368.592 39.2679 368.911 39.3959C369.296 39.5239 369.669 39.8013 370.031 40.2279C370.394 40.6333 370.64 41.1453 370.767 41.7639C370.938 42.1053 370.917 42.5533 370.703 43.1079C370.512 43.6626 370.213 44.3133 369.807 45.0599C369.445 45.7213 369.029 46.3613 368.559 46.9799C368.09 47.5773 367.642 48.0786 367.215 48.4839C367.066 48.5693 366.874 48.7186 366.639 48.9319C366.426 49.1239 366.234 49.3159 366.064 49.5079C365.616 49.9133 365.061 50.2119 364.399 50.4039C363.759 50.5746 363.109 50.6599 362.447 50.6599C361.786 50.6386 361.199 50.5319 360.688 50.3399C360.197 50.1479 359.877 49.8813 359.727 49.5399ZM360.688 48.1959C360.794 48.2173 360.901 48.2386 361.007 48.2599C361.114 48.2599 361.231 48.2599 361.359 48.2599C361.829 48.1959 362.202 48.1746 362.479 48.1959C362.778 48.1959 363.066 48.1639 363.344 48.0999C363.642 48.0359 363.984 47.8866 364.368 47.6519C364.922 47.2253 365.381 46.7666 365.743 46.2759C366.127 45.7853 366.522 45.2839 366.927 44.7719C367.29 44.3026 367.578 43.8333 367.792 43.3639C368.005 42.8733 368.111 42.4466 368.111 42.0839C368.111 41.8919 368.058 41.7959 367.951 41.7959C367.909 41.7959 367.717 41.8599 367.375 41.9879C367.034 42.0946 366.682 42.2333 366.319 42.4039C365.978 42.5533 365.754 42.6813 365.648 42.7879C365.648 42.8733 365.583 42.9479 365.455 43.0119C365.328 43.0546 365.264 43.0759 365.264 43.0759C364.602 43.5666 364.111 43.9506 363.792 44.2279C363.493 44.4839 363.216 44.7719 362.96 45.0919C362.81 45.3053 362.693 45.4653 362.608 45.5719C362.522 45.6573 362.447 45.7426 362.384 45.8279C362.319 45.8919 362.223 46.0199 362.095 46.2119C361.968 46.4039 361.775 46.7026 361.519 47.1079C361.37 47.3853 361.221 47.6519 361.071 47.9079C360.922 48.1639 360.794 48.3133 360.688 48.3559V48.1959ZM373.466 50.5959C373.21 50.6599 372.922 50.5853 372.602 50.3719C372.282 50.1586 371.994 49.8919 371.738 49.5719C371.482 49.2519 371.322 48.9639 371.258 48.7079C371.173 48.2599 371.194 47.7159 371.322 47.0759C371.472 46.4146 371.717 45.7213 372.058 44.9959C372.4 44.2493 372.826 43.5239 373.338 42.8199C373.85 42.0946 374.426 41.4439 375.066 40.8679C375.706 40.2919 376.4 39.8439 377.146 39.5239C377.466 39.3533 377.69 39.2466 377.818 39.2039C377.946 39.1399 378.074 39.1399 378.202 39.2039C378.33 39.2466 378.554 39.3533 378.874 39.5239C379.173 39.6093 379.472 39.7159 379.77 39.8439C380.09 39.9506 380.368 40.1639 380.602 40.4839C380.773 40.8039 380.901 41.1239 380.986 41.4439C381.072 41.7639 381.146 42.1266 381.21 42.5319C381.381 43.0653 381.445 43.4173 381.402 43.5879C381.36 43.7373 381.296 43.8546 381.21 43.9399C381.04 44.1533 380.997 44.2599 381.082 44.2599C381.082 44.2599 381.072 44.3026 381.05 44.3879C381.05 44.4519 381.008 44.5586 380.922 44.7079C380.773 45.1773 380.656 45.6253 380.57 46.0519C380.506 46.4573 380.517 46.8199 380.602 47.1399C380.773 47.6093 380.997 47.8866 381.274 47.9719C381.573 48.0573 381.957 47.8653 382.426 47.3959C382.661 47.2253 382.928 47.1186 383.226 47.0759C383.525 47.0119 383.674 47.0653 383.674 47.2359C383.674 47.2359 383.706 47.2679 383.77 47.3319C383.834 47.3746 383.909 47.3959 383.994 47.3959C384.101 47.3959 384.144 47.5026 384.122 47.7159C384.101 47.9079 384.058 48.1319 383.994 48.3879C383.93 48.6439 383.845 48.8573 383.738 49.0279C383.418 49.3479 383.258 49.5613 383.258 49.6679C383.258 49.6679 383.216 49.7106 383.13 49.7959C383.066 49.8599 382.949 49.9666 382.778 50.1159C382.394 50.3506 381.904 50.4679 381.306 50.4679C380.73 50.4679 380.282 50.3506 379.962 50.1159C379.642 49.8813 379.322 49.5933 379.002 49.2519C378.704 48.9106 378.512 48.5906 378.426 48.2919L378.266 47.9719L377.338 48.5799C377.104 48.8146 376.933 48.9959 376.826 49.1239C376.72 49.2306 376.624 49.3266 376.538 49.4119C376.474 49.4973 376.4 49.5719 376.314 49.6359C376.25 49.6999 376.176 49.7319 376.09 49.7319C376.005 49.7319 375.93 49.7319 375.866 49.7319C375.802 49.7319 375.77 49.7319 375.77 49.7319C375.77 49.8173 375.621 49.9346 375.322 50.0839C375.024 50.2119 374.693 50.3293 374.33 50.4359C373.968 50.5426 373.68 50.5959 373.466 50.5959ZM374.138 47.9079C374.266 47.9079 374.458 47.8333 374.714 47.6839C374.992 47.5133 375.29 47.3106 375.61 47.0759C375.93 46.8413 376.218 46.6066 376.474 46.3719C376.752 46.1373 376.954 45.9453 377.082 45.7959C377.168 45.7106 377.264 45.5719 377.37 45.3799C377.498 45.1879 377.637 45.0173 377.786 44.8679C378.277 44.3133 378.586 43.8759 378.714 43.5559C378.842 43.2146 378.789 42.8519 378.554 42.4679C378.469 42.2333 378.362 42.1053 378.234 42.0839C378.106 42.0626 377.84 42.1373 377.434 42.3079C377.178 42.4573 376.901 42.7026 376.602 43.0439C376.304 43.3853 375.994 43.7693 375.674 44.1959C375.376 44.6226 375.098 45.0599 374.842 45.5079C374.586 45.9559 374.373 46.3613 374.202 46.7239C374.053 47.0866 373.978 47.3746 373.978 47.5879C373.978 47.6733 374 47.7479 374.042 47.8119C374.106 47.8759 374.138 47.9079 374.138 47.9079ZM388.217 51.2999C387.598 51.4066 386.979 51.3533 386.361 51.1399C385.763 50.9266 385.262 50.5853 384.857 50.1159C384.473 49.6253 384.281 49.0386 384.281 48.3559C384.217 47.7159 384.27 46.9586 384.441 46.0839C384.633 45.1879 384.91 44.2919 385.273 43.3959C385.657 42.4999 386.094 41.7426 386.585 41.1239C387.011 40.6119 387.438 40.1426 387.865 39.7159C388.291 39.2893 388.675 39.0013 389.017 38.8519C389.315 38.7239 389.678 38.6279 390.105 38.5639C390.553 38.4786 390.862 38.4359 391.033 38.4359C391.374 38.5213 391.747 38.6599 392.153 38.8519C392.579 39.0439 392.793 39.2679 392.793 39.5239C392.793 39.5239 392.814 39.5559 392.857 39.6199C392.921 39.6626 392.953 39.6839 392.953 39.6839C393.081 39.6839 393.219 39.8439 393.369 40.1639C393.539 40.4626 393.667 40.8146 393.753 41.2199C393.838 41.6039 393.817 41.9133 393.689 42.1479C393.603 42.5533 393.433 42.9479 393.177 43.3319C392.942 43.7159 392.739 43.9079 392.569 43.9079C392.483 43.9079 392.398 43.9186 392.313 43.9399C392.249 43.9399 392.217 43.9933 392.217 44.0999C392.217 44.2066 392.099 44.2599 391.865 44.2599C391.651 44.2599 391.427 44.2173 391.193 44.1319C390.958 44.0466 390.809 43.9186 390.745 43.7479C390.745 43.6413 390.766 43.5026 390.809 43.3319C390.851 43.1613 390.915 42.8733 391.001 42.4679C391.129 41.8706 391.139 41.4759 391.033 41.2839C390.926 41.0706 390.659 41.0493 390.233 41.2199C389.699 41.5186 389.262 41.8706 388.921 42.2759C388.579 42.6599 388.27 43.2039 387.993 43.9079C387.737 44.6119 387.449 45.5933 387.129 46.8519C387.001 47.3426 386.979 47.7266 387.065 48.0039C387.171 48.2813 387.257 48.4306 387.321 48.4519C387.619 48.5373 387.939 48.5586 388.281 48.5159C388.643 48.4519 388.942 48.3559 389.177 48.2279C389.518 48.0573 389.817 47.8759 390.073 47.6839C390.35 47.4706 390.649 47.2466 390.969 47.0119C391.075 46.9479 391.171 46.8306 391.257 46.6599C391.342 46.4679 391.47 46.3293 391.641 46.2439C391.811 45.9879 392.025 45.8599 392.281 45.8599C392.558 45.8386 392.825 45.8279 393.081 45.8279C393.251 45.8706 393.433 45.9773 393.625 46.1479C393.817 46.3186 393.955 46.4893 394.041 46.6599C394.147 46.8093 394.137 46.9159 394.009 46.9799C393.923 46.9799 393.87 47.0119 393.849 47.0759C393.849 47.1186 393.849 47.1399 393.849 47.1399C393.891 47.2253 393.795 47.4173 393.561 47.7159C393.347 48.0146 393.07 48.3346 392.729 48.6759C392.387 49.0173 392.057 49.3159 391.737 49.5719C391.438 49.8066 391.225 49.9239 391.097 49.9239C390.883 49.9239 390.777 49.9879 390.777 50.1159C390.777 50.1586 390.617 50.2653 390.297 50.4359C389.998 50.6066 389.646 50.7773 389.241 50.9479C388.857 51.1186 388.515 51.2359 388.217 51.2999ZM396.193 50.9479C395.873 50.8413 395.585 50.6706 395.329 50.4359C395.094 50.2013 394.998 49.8173 395.041 49.2839C395.083 48.9639 395.147 48.6333 395.233 48.2919C395.318 47.9293 395.425 47.5773 395.553 47.2359C395.617 46.8519 395.691 46.4679 395.777 46.0839C395.883 45.6999 396.054 45.3373 396.289 44.9959C396.566 44.2066 396.854 43.4279 397.153 42.6599C397.451 41.8706 397.707 41.0493 397.921 40.1959C398.241 39.4279 398.529 38.7453 398.785 38.1479C399.062 37.5506 399.393 36.7826 399.777 35.8439C399.99 35.3533 400.171 34.8093 400.321 34.2119C400.491 33.5933 400.747 33.0493 401.089 32.5799C401.238 32.3879 401.345 32.2279 401.409 32.0999C401.494 31.9506 401.579 31.8119 401.665 31.6839C401.814 31.3853 402.038 31.2466 402.337 31.2679C402.657 31.2893 402.87 31.3746 402.977 31.5239C403.339 31.6733 403.595 31.9506 403.745 32.3559C403.894 32.7399 403.947 33.0173 403.905 33.1879C403.905 33.4226 403.819 33.6786 403.649 33.9559C403.563 34.0413 403.478 34.1693 403.393 34.3399C403.307 34.4893 403.179 34.6919 403.009 34.9479C402.923 35.2253 402.838 35.5026 402.753 35.7799C402.667 36.0573 402.571 36.3133 402.465 36.5479C402.358 36.7826 402.241 37.0173 402.113 37.2519C401.985 37.4866 401.899 37.6786 401.857 37.8279C401.665 38.3186 401.451 38.7986 401.217 39.2679C401.003 39.7159 400.811 40.1959 400.641 40.7079C400.47 41.1986 400.289 41.7213 400.097 42.2759C399.905 42.8093 399.659 43.3213 399.361 43.8119C399.211 44.0253 399.126 44.3133 399.105 44.6759C399.105 45.0386 399.062 45.3906 398.977 45.7319C398.827 46.1159 398.689 46.4679 398.561 46.7879C398.454 47.1079 398.401 47.3106 398.401 47.3959C398.251 47.8653 398.134 48.3346 398.049 48.8039C397.963 49.2519 397.825 49.6466 397.633 49.9879C397.633 50.4999 397.494 50.8199 397.217 50.9479C396.939 51.0759 396.598 51.0759 396.193 50.9479ZM403.521 51.2359C403.179 51.1933 402.923 51.1293 402.753 51.0439C402.582 50.9373 402.262 50.7133 401.793 50.3719C401.537 50.1159 401.217 49.7213 400.833 49.1879C400.449 48.6546 400.065 48.0893 399.681 47.4919C399.297 46.8733 398.955 46.3506 398.657 45.9239L400.417 43.6839C400.694 44.0253 400.918 44.3453 401.089 44.6439C401.259 44.9426 401.398 45.1453 401.505 45.2519C401.995 45.9773 402.379 46.5639 402.657 47.0119C402.934 47.4599 403.169 47.8226 403.361 48.0999C403.574 48.3773 403.809 48.6226 404.065 48.8359C404.321 49.0493 404.651 49.2733 405.057 49.5079C405.121 49.5506 405.185 49.6573 405.249 49.8279C405.313 49.9773 405.334 50.1373 405.313 50.3079C405.27 50.5639 405.11 50.7773 404.833 50.9479C404.577 51.0973 404.139 51.1933 403.521 51.2359ZM398.881 45.3159C398.753 44.9533 398.721 44.5479 398.785 44.0999C398.87 43.6306 399.051 43.3213 399.329 43.1719C399.414 43.0226 399.499 42.9266 399.585 42.8839C399.691 42.8199 399.755 42.7453 399.777 42.6599C399.819 42.5746 399.926 42.4573 400.097 42.3079C400.289 42.1586 400.459 42.0199 400.609 41.8919C400.95 41.6786 401.323 41.4226 401.729 41.1239C402.155 40.8039 402.561 40.4839 402.945 40.1639C403.35 39.8439 403.681 39.5666 403.937 39.3319C404.214 39.0973 404.385 38.9479 404.449 38.8839C404.513 38.7986 404.641 38.7453 404.833 38.7239C405.046 38.7026 405.249 38.7346 405.441 38.8199C405.697 38.8839 405.899 39.0226 406.049 39.2359C406.219 39.4493 406.305 39.7479 406.305 40.1319C406.369 40.3666 406.23 40.6546 405.889 40.9959C405.569 41.3159 405.163 41.6359 404.673 41.9559C404.502 42.0626 404.267 42.2226 403.969 42.4359C403.691 42.6493 403.446 42.8519 403.233 43.0439C403.083 43.1293 402.859 43.2786 402.561 43.4919C402.283 43.6839 402.038 43.8759 401.825 44.0679C401.654 44.1746 401.451 44.3666 401.217 44.6439C401.003 44.8999 400.758 45.0919 400.481 45.2199C399.798 45.8599 399.382 46.1693 399.233 46.1479C399.105 46.1266 398.987 45.8493 398.881 45.3159ZM251.951 96.1079C251.738 95.8946 251.567 95.6066 251.439 95.2439C251.311 94.8599 251.183 94.4226 251.055 93.9319C251.012 93.7613 250.991 93.5693 250.991 93.3559C251.012 93.1426 251.012 92.9719 250.991 92.8439C250.927 92.9933 250.82 93.1853 250.671 93.4199C250.543 93.6546 250.415 93.8253 250.287 93.9319C250.202 94.0173 250.01 94.1879 249.711 94.4439C249.412 94.6786 249.114 94.8706 248.815 95.0199C248.111 95.4679 247.482 95.6813 246.927 95.6599C246.394 95.6173 245.924 95.3399 245.519 94.8279C245.178 94.5506 244.9 94.1986 244.687 93.7719C244.474 93.3453 244.431 92.8333 244.559 92.2359C244.602 91.4893 244.708 90.7639 244.879 90.0599C245.05 89.3346 245.402 88.3746 245.935 87.1799C246.383 86.3053 246.724 85.6226 246.959 85.1319C247.194 84.6413 247.343 84.3533 247.407 84.2679C247.727 84.1613 248.122 84.1719 248.591 84.2999C249.06 84.4066 249.316 84.6093 249.359 84.9079C249.487 85.1213 249.487 85.5266 249.359 86.1239C249.231 86.6999 248.975 87.3613 248.591 88.1079C248.292 88.8333 248.004 89.5373 247.727 90.2199C247.471 90.9026 247.311 91.4786 247.247 91.9479C247.204 92.4173 247.332 92.7053 247.631 92.8119C247.823 92.9186 248.1 92.9079 248.463 92.7799C248.847 92.6519 249.295 92.2679 249.807 91.6279C250.319 90.9879 250.863 89.9746 251.439 88.5879C251.61 88.1613 251.738 87.7879 251.823 87.4679C251.908 87.1266 251.962 86.7533 251.983 86.3479C251.94 86.0919 252.004 85.8253 252.175 85.5479C252.367 85.2706 252.591 85.0573 252.847 84.9079C252.932 84.8013 253.05 84.7053 253.199 84.6199C253.348 84.5133 253.444 84.5133 253.487 84.6199L253.999 84.5879C254.084 84.5666 254.18 84.6519 254.287 84.8439C254.394 85.0359 254.5 85.1746 254.607 85.2599C254.842 85.4519 254.948 85.8679 254.927 86.5079C254.906 87.1479 254.65 88.0439 254.159 89.1959C253.754 90.0706 253.476 90.7319 253.327 91.1799C253.199 91.6279 253.124 92.0653 253.103 92.4919C253.103 92.8759 253.135 93.2066 253.199 93.4839C253.263 93.7399 253.455 94.0066 253.775 94.2839C254.01 94.4333 254.138 94.6893 254.159 95.0519C254.202 95.3933 254.212 95.6919 254.191 95.9479C254.148 96.1399 253.978 96.2679 253.679 96.3319C253.402 96.4173 253.092 96.4386 252.751 96.3959C252.431 96.3533 252.164 96.2573 251.951 96.1079ZM257.267 95.0839C257.181 95.0839 256.979 95.0093 256.659 94.8599C256.339 94.6893 256.136 94.5613 256.051 94.4759C255.901 94.3053 255.805 94.1239 255.763 93.9319C255.72 93.7186 255.699 93.3133 255.699 92.7159C255.699 92.0333 255.837 91.2653 256.115 90.4119C256.392 89.5373 256.861 88.3746 257.523 86.9239L258.835 84.2679C258.941 84.1186 259.037 83.9906 259.123 83.8839C259.208 83.7559 259.304 83.6386 259.411 83.5319C259.453 83.5319 259.507 83.5319 259.571 83.5319C259.656 83.5319 259.72 83.5426 259.763 83.5639C259.955 83.5853 260.253 83.7026 260.659 83.9159C261.085 84.1293 261.341 84.4493 261.427 84.8759C261.427 85.1533 261.384 85.4839 261.299 85.8679C261.213 86.2306 260.957 86.7106 260.531 87.3079C260.36 87.5213 260.189 87.8306 260.019 88.2359C259.869 88.6413 259.731 89.0253 259.603 89.3879C259.581 89.4306 259.517 89.5373 259.411 89.7079C259.325 89.8573 259.24 90.0173 259.155 90.1879C259.069 90.3373 259.027 90.4333 259.027 90.4759L258.899 90.7639L260.275 89.4199C261.235 88.4599 262.045 87.7773 262.707 87.3719C263.368 86.9666 263.923 86.7959 264.371 86.8599C264.84 86.9239 265.213 87.1906 265.491 87.6599C265.64 87.8733 265.747 88.1079 265.811 88.3639C265.875 88.5986 265.917 88.8759 265.939 89.1959C265.96 89.5159 265.949 89.9213 265.907 90.4119V92.2359C266.312 92.1293 266.621 92.0439 266.835 91.9799C267.048 91.8946 267.261 91.8199 267.475 91.7559C267.645 91.7133 267.816 91.6706 267.987 91.6279C268.179 91.5853 268.413 91.5533 268.691 91.5319C268.669 91.8093 268.552 92.1506 268.339 92.5559C268.125 92.9613 267.859 93.3666 267.539 93.7719C267.24 94.1773 266.909 94.5186 266.547 94.7959C266.205 95.0733 265.885 95.2119 265.587 95.2119C265.309 95.2119 264.989 95.1266 264.627 94.9559C264.264 94.7639 263.955 94.4013 263.699 93.8679C263.613 93.5906 263.528 93.2706 263.443 92.9079C263.357 92.5453 263.315 92.1613 263.315 91.7559V90.3479C263.315 90.2199 263.304 90.1346 263.283 90.0919C263.283 90.0279 263.272 89.9959 263.251 89.9959C263.165 89.9959 262.888 90.2199 262.419 90.6679C261.971 91.1159 261.512 91.5853 261.043 92.0759C260.061 93.0999 259.24 93.8573 258.579 94.3479C257.939 94.8386 257.501 95.0839 257.267 95.0839ZM278.418 96.7799C278.141 96.8439 277.863 96.7693 277.586 96.5559C277.33 96.3639 277.149 96.1506 277.042 95.9159C276.914 95.5746 276.829 95.2546 276.786 94.9559C276.765 94.6359 276.743 94.2733 276.722 93.8679L276.69 92.7799L275.378 93.9639C274.653 94.6466 273.97 95.1373 273.33 95.4359C272.711 95.7133 272.146 95.8519 271.634 95.8519C271.399 95.8093 271.111 95.6599 270.77 95.4039C270.45 95.1266 270.151 94.8279 269.874 94.5079C269.618 94.1666 269.437 93.8893 269.33 93.6759C269.202 93.3773 269.159 92.9613 269.202 92.4279C269.266 91.8946 269.394 91.3079 269.586 90.6679C269.799 90.0279 270.055 89.3986 270.354 88.7799C270.674 88.1613 271.037 87.6279 271.442 87.1799C272.146 86.1133 273.021 85.4519 274.066 85.1959C275.111 84.9186 276.039 85.0039 276.85 85.4519C277.234 85.6439 277.511 85.7186 277.682 85.6759C277.853 85.6333 277.959 85.4946 278.002 85.2599C278.087 84.9186 278.183 84.5986 278.29 84.2999C278.397 84.0013 278.546 83.5533 278.738 82.9559C279.271 81.3346 279.73 80.0653 280.114 79.1479C280.519 78.2306 280.882 77.4306 281.202 76.7479C281.437 76.2573 281.671 75.9159 281.906 75.7239C282.141 75.5319 282.343 75.4466 282.514 75.4679C282.749 75.4679 283.037 75.5533 283.378 75.7239C283.741 75.8946 283.975 76.1293 284.082 76.4279C284.167 76.6199 284.199 76.8226 284.178 77.0359C284.178 77.2493 284.114 77.4733 283.986 77.7079C283.709 78.2199 283.378 78.9026 282.994 79.7559C282.631 80.5879 282.258 81.5053 281.874 82.5079C281.511 83.5106 281.17 84.5026 280.85 85.4839C280.53 86.4653 280.263 87.3293 280.05 88.0759C279.922 88.5453 279.815 89.1426 279.73 89.8679C279.666 90.5933 279.613 91.3399 279.57 92.1079C279.549 92.8546 279.549 93.5266 279.57 94.1239C279.591 94.6999 279.623 95.0733 279.666 95.2439C279.794 95.6706 279.794 95.9906 279.666 96.2039C279.538 96.4173 279.357 96.5559 279.122 96.6199C278.887 96.7053 278.653 96.7586 278.418 96.7799ZM273.138 92.9079C273.437 92.8013 273.703 92.6733 273.938 92.5239C274.173 92.3746 274.45 92.1826 274.77 91.9479C275.41 91.4573 275.869 91.0306 276.146 90.6679C276.445 90.3053 276.679 89.8573 276.85 89.3239C276.957 89.0039 276.957 88.7266 276.85 88.4919C276.765 88.2573 276.605 88.0333 276.37 87.8199C276.135 87.6279 275.837 87.5533 275.474 87.5959C275.111 87.6173 274.695 87.8413 274.226 88.2679C273.714 88.7373 273.277 89.2813 272.914 89.8999C272.551 90.5186 272.253 91.4039 272.018 92.5559C271.975 92.7693 272.05 92.9186 272.242 93.0039C272.434 93.0893 272.733 93.0573 273.138 92.9079ZM292.963 97.8679C292.579 97.8893 292.259 97.7079 292.003 97.3239C291.747 96.9399 291.63 96.6199 291.651 96.3639C291.672 96.0226 291.768 95.5319 291.939 94.8919C292.11 94.2519 292.302 93.6013 292.515 92.9399C292.728 92.2786 292.92 91.7559 293.091 91.3719C293.176 91.0306 293.251 90.7319 293.315 90.4759C293.4 90.1986 293.454 90.0173 293.475 89.9319C293.539 89.8466 293.635 89.6226 293.763 89.2599C293.912 88.8973 294.03 88.5453 294.115 88.2039C294.158 88.0333 294.243 87.7133 294.371 87.2439C294.52 86.7533 294.691 86.1879 294.883 85.5479C295.096 84.9079 295.299 84.2786 295.491 83.6599C295.704 83.0413 295.886 82.4973 296.035 82.0279C296.184 81.5586 296.28 81.2493 296.323 81.0999C296.494 80.8439 296.622 80.5986 296.707 80.3639C296.792 80.1293 296.846 79.9693 296.867 79.8839C296.995 79.7986 297.07 79.6919 297.091 79.5639C297.112 79.4146 297.123 79.2973 297.123 79.2119C297.123 79.1053 297.155 79.0199 297.219 78.9559C297.304 78.8919 297.347 78.8173 297.347 78.7319C297.432 78.6679 297.486 78.6573 297.507 78.6999C297.528 78.7426 297.592 78.7106 297.699 78.6039L297.859 77.5159L300.707 77.4839C300.664 77.7399 300.6 78.0599 300.515 78.4439C300.43 78.8066 300.227 79.2973 299.907 79.9159C299.8 80.3426 299.672 80.7266 299.523 81.0679C299.395 81.4093 299.342 81.6333 299.363 81.7399C299.32 81.7826 299.224 81.9959 299.075 82.3799C298.947 82.7639 298.787 83.2333 298.595 83.7879C298.424 84.3426 298.243 84.8973 298.051 85.4519C297.88 86.0066 297.72 86.4973 297.571 86.9239C297.443 87.3293 297.358 87.5853 297.315 87.6919C297.144 88.0333 296.952 88.5346 296.739 89.1959C296.526 89.8573 296.206 90.7533 295.779 91.8839C295.608 92.2253 295.395 92.7373 295.139 93.4199C294.904 94.1026 294.712 94.7213 294.563 95.2759C294.328 96.1079 294.115 96.7053 293.923 97.0679C293.752 97.4306 293.592 97.6439 293.443 97.7079C293.294 97.7933 293.134 97.8466 292.963 97.8679ZM293.251 79.0519C292.376 79.1373 291.779 79.0306 291.459 78.7319C291.16 78.4333 291.054 78.1133 291.139 77.7719C291.203 77.5159 291.352 77.3026 291.587 77.1319C291.843 76.9399 292.302 76.7799 292.963 76.6519C293.198 76.6093 293.496 76.5559 293.859 76.4919C294.243 76.4279 294.606 76.3639 294.947 76.2999C295.651 76.2146 296.227 76.1399 296.675 76.0759C297.144 76.0119 297.624 75.9586 298.115 75.9159C298.606 75.8733 299.224 75.8306 299.971 75.7879C300.59 75.7453 301.112 75.7133 301.539 75.6919C301.987 75.6493 302.211 75.6279 302.211 75.6279C302.275 75.6279 302.499 75.6493 302.883 75.6919C303.267 75.7346 303.683 75.7879 304.131 75.8519C304.579 75.9159 304.91 75.9906 305.123 76.0759C305.614 76.1826 306.008 76.3746 306.307 76.6519C306.606 76.9293 306.798 77.2493 306.883 77.6119C306.947 77.8679 306.947 78.0706 306.883 78.2199C306.819 78.3479 306.702 78.4546 306.531 78.5399C306.04 78.6893 305.635 78.8173 305.315 78.9239C305.016 79.0093 304.718 78.9986 304.419 78.8919C304.312 78.7853 304.184 78.6893 304.035 78.6039C303.907 78.5186 303.672 78.4546 303.331 78.4119C303.011 78.3479 302.499 78.2946 301.795 78.2519C301.198 78.3159 300.675 78.3479 300.227 78.3479C299.779 78.3479 299.555 78.4013 299.555 78.5079L297.667 78.6039L296.099 78.7639C295.886 78.7853 295.587 78.8173 295.203 78.8599C294.819 78.8813 294.446 78.9133 294.083 78.9559C293.72 78.9773 293.443 79.0093 293.251 79.0519ZM305.283 96.1399C304.771 96.1399 304.323 95.8733 303.939 95.3399C303.577 94.7853 303.353 94.1239 303.267 93.3559C303.289 93.1853 303.31 92.9399 303.331 92.6199C303.374 92.2999 303.417 91.9693 303.459 91.6279C303.545 91.2226 303.662 90.6999 303.811 90.0599C303.961 89.4199 304.121 88.7799 304.291 88.1399C304.462 87.4786 304.611 86.9133 304.739 86.4439C304.867 85.9533 304.942 85.6653 304.963 85.5799C305.091 85.2813 305.379 85.2066 305.827 85.3559C306.275 85.5053 306.659 85.8253 306.979 86.3159C307.107 86.4866 307.182 86.6893 307.203 86.9239C307.246 87.1586 307.214 87.4999 307.107 87.9479C307.022 88.3959 306.851 89.0573 306.595 89.9319C306.361 90.7853 306.179 91.4786 306.051 92.0119C305.945 92.5239 305.902 93.0679 305.923 93.6439C305.838 94.6253 305.753 95.2973 305.667 95.6599C305.582 96.0013 305.454 96.1613 305.283 96.1399ZM308.227 82.8599C308.142 82.9239 308.057 82.9559 307.971 82.9559C307.907 82.9346 307.79 82.8706 307.619 82.7639C307.47 82.7426 307.278 82.6466 307.043 82.4759C306.83 82.2839 306.638 82.0919 306.467 81.8999C306.318 81.7079 306.243 81.5906 306.243 81.5479C306.222 81.3346 306.233 80.9933 306.275 80.5239C306.339 80.0546 306.457 79.6173 306.627 79.2119C306.819 78.7853 307.075 78.5613 307.395 78.5399C307.481 78.5399 307.662 78.5826 307.939 78.6679C308.238 78.7533 308.547 78.8599 308.867 78.9879C309.038 79.3079 309.198 79.7239 309.347 80.2359C309.497 80.7479 309.507 81.2493 309.379 81.7399C309.273 82.2093 308.889 82.5826 308.227 82.8599ZM308.365 102.092C308.066 102.177 307.757 102.103 307.437 101.868C307.138 101.633 306.903 101.313 306.733 100.908C306.583 100.503 306.583 100.087 306.733 99.6599C306.775 99.5319 306.839 99.3186 306.925 99.0199C307.01 98.7426 307.063 98.4973 307.085 98.2839C307.106 98.1346 307.17 97.8786 307.277 97.5159C307.383 97.1746 307.501 96.8333 307.629 96.4919C307.778 96.1506 307.895 95.9053 307.981 95.7559C308.109 95.5426 308.194 95.2973 308.237 95.0199C308.301 94.7426 308.333 94.5293 308.333 94.3799C308.375 94.2306 308.429 94.0599 308.493 93.8679C308.578 93.6759 308.663 93.5266 308.749 93.4199C308.791 93.2493 308.855 93.0679 308.941 92.8759C309.026 92.6626 309.122 92.4813 309.229 92.3319C309.271 92.1826 309.303 92.0013 309.325 91.7879C309.367 91.5746 309.431 91.4573 309.517 91.4359C309.538 91.3506 309.549 91.2653 309.549 91.1799C309.57 91.0946 309.613 90.9773 309.677 90.8279C309.719 90.5933 309.815 90.2519 309.965 89.8039C310.114 89.3559 310.295 88.8653 310.509 88.3319C310.743 87.7133 310.903 87.1799 310.989 86.7319C311.074 86.2626 310.957 85.9639 310.637 85.8359C310.466 85.7506 310.359 85.5586 310.317 85.2599C310.274 84.9399 310.295 84.6199 310.381 84.2999C310.466 83.9799 310.594 83.7879 310.765 83.7239C310.957 83.6386 311.191 83.5853 311.469 83.5639C311.746 83.5426 311.991 83.5426 312.205 83.5639C312.439 83.5639 312.546 83.5853 312.525 83.6279C312.525 83.7346 312.578 83.7986 312.685 83.8199C312.727 83.7559 312.813 83.8519 312.941 84.1079C313.09 84.3426 313.229 84.6093 313.357 84.9079C313.485 85.2066 313.549 85.4093 313.549 85.5159C313.506 85.6013 313.485 85.6546 313.485 85.6759C313.485 85.6759 313.527 85.6759 313.613 85.6759C313.613 85.6759 313.73 85.6226 313.965 85.5159C314.199 85.3879 314.445 85.2493 314.701 85.0999C314.978 84.9293 315.159 84.8013 315.245 84.7159C315.245 84.7159 315.298 84.6946 315.405 84.6519C315.533 84.5879 315.639 84.5133 315.725 84.4279C316.151 84.2573 316.61 84.2253 317.101 84.3319C317.613 84.4386 318.018 84.6306 318.317 84.9079C318.743 85.4413 319.063 86.1026 319.277 86.8919C319.511 87.6813 319.479 88.4493 319.181 89.1959C319.138 89.3026 319.042 89.4839 318.893 89.7399C318.765 89.9746 318.637 90.1986 318.509 90.4119C318.381 90.6039 318.317 90.6999 318.317 90.6999C317.826 91.4679 317.282 92.1079 316.685 92.6199C316.109 93.1319 315.479 93.5799 314.797 93.9639C314.583 94.1133 314.285 94.2519 313.901 94.3799C313.538 94.5079 313.197 94.6039 312.877 94.6679C312.578 94.7319 312.397 94.7426 312.333 94.6999C312.098 94.5293 311.885 94.1666 311.693 93.6119C311.586 93.8893 311.479 94.1666 311.373 94.4439C311.287 94.6999 311.234 94.8706 311.213 94.9559C311.191 95.1053 311.17 95.2333 311.149 95.3399C311.127 95.4253 311.074 95.4999 310.989 95.5639C310.989 95.5639 310.978 95.6066 310.957 95.6919C310.935 95.7773 310.861 95.9053 310.733 96.0759C310.519 96.6946 310.349 97.1746 310.221 97.5159C310.093 97.8786 309.986 98.1666 309.901 98.3799C309.837 98.6146 309.773 98.8599 309.709 99.1159C309.666 99.6919 309.527 100.3 309.293 100.94C309.079 101.58 308.77 101.964 308.365 102.092ZM313.133 91.6919C313.218 91.6493 313.367 91.5746 313.581 91.4679C313.815 91.3613 314.071 91.2333 314.349 91.0839C314.626 90.9133 314.882 90.7533 315.117 90.6039C315.373 90.4333 315.554 90.2839 315.661 90.1559C315.831 89.9639 315.927 89.8146 315.949 89.7079C315.97 89.5799 316.023 89.3773 316.109 89.0999C316.173 88.9293 316.247 88.7373 316.333 88.5239C316.418 88.3106 316.493 88.1079 316.557 87.9159C316.642 87.7453 316.674 87.5746 316.653 87.4039C316.653 87.2119 316.589 87.0519 316.461 86.9239C316.375 86.9026 316.173 86.9346 315.853 87.0199C315.554 87.1053 315.202 87.2759 314.797 87.5319C314.413 87.7879 314.029 88.1613 313.645 88.6519C313.197 89.2279 312.898 89.7506 312.749 90.2199C312.599 90.6679 312.567 91.0306 312.653 91.3079C312.738 91.5639 312.898 91.6919 313.133 91.6919ZM318.73 103.948C318.581 103.884 318.346 103.724 318.026 103.468C317.728 103.212 317.45 102.935 317.194 102.636C316.96 102.359 316.842 102.156 316.842 102.028C316.842 101.9 316.896 101.559 317.002 101.004C317.109 100.471 317.248 99.8093 317.418 99.0199C317.61 98.2519 317.813 97.4626 318.026 96.6519C318.261 95.8626 318.496 95.1586 318.73 94.5399C318.773 94.4333 318.912 94.0813 319.146 93.4839C319.402 92.8653 319.648 92.1186 319.882 91.2439C320.053 90.6893 320.277 90.0599 320.554 89.3559C320.832 88.6519 321.12 87.9479 321.418 87.2439C321.717 86.5186 321.962 85.8786 322.154 85.3239C322.346 84.7693 322.56 84.2146 322.794 83.6599C323.029 83.0839 323.157 82.7533 323.178 82.6679C323.221 82.5399 323.338 82.4333 323.53 82.3479C323.744 82.2413 323.957 82.1559 324.17 82.0919C324.384 82.0066 324.522 81.9533 324.586 81.9319C324.97 81.8253 325.301 81.9853 325.578 82.4119C325.685 82.6039 325.706 82.8706 325.642 83.2119C325.6 83.5319 325.493 83.8839 325.322 84.2679L325.098 84.9079L326.25 84.6519C326.442 84.6519 326.709 84.6626 327.05 84.6839C327.392 84.7053 327.722 84.7266 328.042 84.7479C328.384 84.7693 328.618 84.8013 328.746 84.8439C329.258 84.8653 329.61 84.9613 329.802 85.1319C330.016 85.3026 330.197 85.5266 330.346 85.8039C330.453 85.9106 330.581 86.0599 330.73 86.2519C330.88 86.4226 330.965 86.5933 330.986 86.7639C331.072 87.1266 331.04 87.5533 330.89 88.0439C330.762 88.5346 330.56 89.0359 330.282 89.5479C330.026 90.0386 329.717 90.4973 329.354 90.9239C329.013 91.3293 328.682 91.6386 328.362 91.8519C328.149 91.9373 327.957 92.0333 327.786 92.1399C327.616 92.2253 327.53 92.2679 327.53 92.2679C327.509 92.3746 327.285 92.5559 326.858 92.8119C326.453 93.0679 325.973 93.3133 325.418 93.5479C324.885 93.7613 324.405 93.8999 323.978 93.9639C323.829 93.9853 323.616 94.0066 323.338 94.0279C323.061 94.0493 322.848 94.0173 322.698 93.9319C322.464 93.8893 322.304 93.8679 322.218 93.8679C322.133 93.8679 322.09 93.9106 322.09 93.9959C322.069 94.0386 321.92 94.3799 321.642 95.0199C321.365 95.6599 321.077 96.5453 320.778 97.6759C320.373 98.9133 320.042 99.9266 319.786 100.716C319.53 101.527 319.328 102.156 319.178 102.604C319.05 103.052 318.954 103.372 318.89 103.564C318.826 103.777 318.773 103.905 318.73 103.948ZM322.858 91.1799C322.922 91.3079 323.146 91.3506 323.53 91.3079C323.914 91.2439 324.352 91.1159 324.842 90.9239C325.333 90.7319 325.77 90.5079 326.154 90.2519C326.56 89.9746 326.794 89.6866 326.858 89.3879C327.328 88.8546 327.658 88.4706 327.85 88.2359C328.042 87.9799 328.032 87.7773 327.818 87.6279C327.584 87.2866 327.242 87.1266 326.794 87.1479C326.368 87.1693 325.685 87.4359 324.746 87.9479C324.384 88.0759 324.138 88.1933 324.01 88.2999C323.882 88.3853 323.776 88.5239 323.69 88.7159C323.626 88.9079 323.498 89.2173 323.306 89.6439C323.114 90.1133 322.986 90.4653 322.922 90.6999C322.858 90.9346 322.837 91.0946 322.858 91.1799ZM333.256 96.3639C332.531 96.0653 331.997 95.7559 331.656 95.4359C331.336 95.0946 331.208 94.7959 331.272 94.5399C331.315 94.4119 331.389 94.2946 331.496 94.1879C331.603 94.0813 331.837 94.0386 332.2 94.0599C332.584 94.0599 333.171 94.1559 333.96 94.3479C334.195 94.3479 334.429 94.3373 334.664 94.3159C334.899 94.2946 335.112 94.2626 335.304 94.2199C335.517 94.1773 335.688 94.1239 335.816 94.0599C335.923 94.0173 335.955 93.9639 335.912 93.8999C335.869 93.8146 335.795 93.7293 335.688 93.6439C335.603 93.5373 335.507 93.4733 335.4 93.4519C335.293 93.4093 335.197 93.3879 335.112 93.3879C335.069 93.2813 334.973 93.1746 334.824 93.0679C334.696 92.9613 334.536 92.8439 334.344 92.7159C333.875 92.3319 333.448 91.9906 333.064 91.6919C332.68 91.3933 332.531 91.1693 332.616 91.0199C332.616 90.9346 332.616 90.8919 332.616 90.8919C332.616 90.8706 332.616 90.8599 332.616 90.8599C332.467 90.8599 332.328 90.6573 332.2 90.2519C332.072 89.8253 332.008 89.4413 332.008 89.0999C332.008 88.6733 332.093 88.2466 332.264 87.8199C332.456 87.3933 332.691 86.9879 332.968 86.6039C333.267 86.2199 333.565 85.8786 333.864 85.5799C334.269 85.1959 334.696 84.8226 335.144 84.4599C335.613 84.0759 336.115 83.7346 336.648 83.4359C337.203 83.1373 337.811 82.9026 338.472 82.7319C338.771 82.6679 339.112 82.6359 339.496 82.6359C339.88 82.6359 340.157 82.6893 340.328 82.7959C340.499 82.6893 340.712 82.7213 340.968 82.8919C341.224 83.0413 341.48 83.2546 341.736 83.5319C341.992 83.8093 342.184 84.0866 342.312 84.3639C342.312 84.6199 342.301 84.9399 342.28 85.3239C342.28 85.6866 342.259 86.0066 342.216 86.2839C342.173 86.5613 342.077 86.6999 341.928 86.6999C341.928 86.6999 341.896 86.7106 341.832 86.7319C341.789 86.7319 341.768 86.7853 341.768 86.8919C341.768 87.1053 341.608 87.3506 341.288 87.6279C340.883 87.9053 340.499 88.1293 340.136 88.2999C339.773 88.4706 339.496 88.4813 339.304 88.3319C339.176 88.2466 339.059 88.1613 338.952 88.0759C338.845 87.9906 338.749 87.8839 338.664 87.7559C338.664 87.7559 338.632 87.7133 338.568 87.6279C338.525 87.5213 338.504 87.4253 338.504 87.3399C338.504 87.2546 338.536 87.1799 338.6 87.1159C338.664 87.0306 338.696 86.9879 338.696 86.9879C338.995 86.7106 339.219 86.4546 339.368 86.2199C339.539 85.9853 339.656 85.7826 339.72 85.6119C339.784 85.4199 339.816 85.2706 339.816 85.1639C339.816 85.0359 339.784 84.9613 339.72 84.9399C339.677 84.8973 339.571 84.8759 339.4 84.8759C339.293 84.8759 339.059 84.9613 338.696 85.1319C338.355 85.3026 337.992 85.5159 337.608 85.7719C337.224 86.0066 336.925 86.2199 336.712 86.4119C336.627 86.5613 336.563 86.6573 336.52 86.6999C336.499 86.7426 336.445 86.7639 336.36 86.7639C336.36 86.6786 336.307 86.6893 336.2 86.7959C336.093 86.9026 335.965 87.0519 335.816 87.2439C335.667 87.4359 335.517 87.6386 335.368 87.8519C335.219 88.0653 335.101 88.2359 335.016 88.3639C334.995 88.5559 334.941 88.7373 334.856 88.9079C334.792 89.0573 334.771 89.2173 334.792 89.3879C334.813 89.6013 334.92 89.8039 335.112 89.9959C335.304 90.1879 335.581 90.4333 335.944 90.7319C336.691 91.2866 337.245 91.7239 337.608 92.0439C337.992 92.3639 338.259 92.6199 338.408 92.8119C338.557 93.0039 338.653 93.1959 338.696 93.3879C339.059 94.0493 339.101 94.6253 338.824 95.1159C338.547 95.5853 338.12 95.9479 337.544 96.2039C337.331 96.3106 336.957 96.4066 336.424 96.4919C335.891 96.5986 335.325 96.6413 334.728 96.6199C334.152 96.6199 333.661 96.5346 333.256 96.3639Z"
        fill="#373737" />
</svg>
    