<svg viewBox="0 0 461 232" fill="none" xmlns="http://www.w3.org/2000/svg">
    <path d="M145.962 107.637C145.962 103.812 142.978 100.625 139 99.7832C138.949 99.2987 138.924 98.8397 138.873 98.3807C142.162 97.1822 144.483 94.3007 144.483 90.9092C144.483 86.4467 140.454 82.8512 135.507 82.8512C135.226 82.8512 134.971 82.8512 134.691 82.9022C134.155 81.6782 133.569 80.4542 132.931 79.2557C135.048 77.9807 136.399 76.0682 136.399 73.9007C136.399 70.0757 132.192 67.0157 126.99 67.0157C126.021 67.0157 125.103 67.1177 124.21 67.3217C123.573 66.6842 122.935 66.0467 122.298 65.4347C123.292 64.3382 123.904 63.0122 123.904 61.5842C123.904 57.7592 119.697 54.6992 114.495 54.6992C112.302 54.6992 110.287 55.2602 108.681 56.1782C108.502 56.0762 108.298 56.0252 108.12 55.9232C108.349 55.3622 108.451 54.7502 108.451 54.1127C108.451 50.2877 104.244 47.2277 99.0415 47.2277C95.242 47.2277 91.9525 48.8852 90.4735 51.2822C90.2185 51.2567 89.9635 51.2312 89.734 51.2312C89.2495 47.7632 85.246 45.0347 80.3755 45.0347C75.1735 45.0347 70.966 48.1202 70.966 51.9197C70.966 52.3532 71.017 52.7357 71.119 53.1437C70.8385 53.2202 70.558 53.2967 70.2775 53.3732C68.671 51.2312 65.9425 49.8542 62.857 49.8542C57.8845 49.8542 53.8555 53.4752 53.8555 57.9122C53.8555 59.0852 54.136 60.1817 54.6205 61.1762C54.1105 61.5332 53.626 61.9157 53.116 62.2982C51.994 61.8392 50.7445 61.5842 49.444 61.5842C44.4715 61.5842 40.468 65.2052 40.468 69.6422C40.468 71.2742 41.029 72.8297 41.9725 74.1047C41.3605 74.9972 40.774 75.8897 40.213 76.8077C39.7795 76.7567 39.3205 76.7057 38.8615 76.7057C33.889 76.7057 29.86 80.3267 29.86 84.7637C29.86 87.6452 31.543 90.1442 34.0675 91.5977C33.787 92.7452 33.5575 93.8927 33.3535 95.0657C29.197 95.7797 26.0605 99.0437 26.0605 102.971C26.0605 106.898 28.993 109.958 32.9455 110.799C33.022 111.36 33.073 111.947 33.175 112.508C30.8545 113.961 29.3245 116.384 29.3245 119.112C29.3245 123.371 33.022 126.839 37.663 127.145C38.0455 127.986 38.479 128.828 38.938 129.644C37.2805 131.123 36.235 133.137 36.235 135.407C36.235 139.869 40.264 143.465 45.211 143.465C46.5115 143.465 47.761 143.21 48.8575 142.751C58.4455 152.007 71.476 157.719 85.858 157.719C97.9195 157.719 109.038 153.716 117.988 146.958C119.365 147.723 120.972 148.157 122.706 148.157C127.678 148.157 131.682 144.536 131.682 140.099C131.682 138.135 130.891 136.325 129.565 134.922C129.922 134.412 130.279 133.902 130.611 133.367C131.325 133.52 132.064 133.622 132.829 133.622C137.802 133.622 141.831 130.001 141.831 125.564C141.831 122.555 139.995 119.954 137.266 118.551C137.521 117.608 137.776 116.639 137.98 115.67C142.443 115.211 145.936 111.794 145.936 107.663L145.962 107.637Z" fill="#373737"/>
    <path d="M156.747 164.986C156.747 164.986 135.863 145.708 118.217 146.065H106.589L106.283 126.532C106.283 126.532 117.222 123.727 122.169 113.859C126.938 104.296 122.628 87.8489 107.813 79.8674C106.818 79.3319 105.722 79.0769 104.6 79.0769C100.341 79.0004 89.325 78.8219 86.4435 79.1024C86.4435 79.1024 85.4235 93.7649 80.961 98.9669C76.4985 104.169 71.0925 107.254 71.0925 107.254C71.0925 107.254 59.2095 108.555 61.989 117.913C64.7685 127.272 75.3255 118.551 75.3255 118.551C75.3255 118.551 80.4255 125.257 79.89 135.457C79.3545 145.657 78.258 145.326 78.258 145.326C78.258 145.326 53.37 140.098 45.0315 154.761C36.693 169.423 24.4785 202.446 24.4785 202.446L149.403 202.624L161.541 177.303L156.747 164.986Z" fill="white" stroke="#373737" stroke-width="2.55" stroke-miterlimit="10"/>
    <path d="M63.75 144.638C63.75 144.638 68.595 164.145 92.973 164.145C111.358 164.145 118.218 146.091 118.218 146.091" stroke="#373737" stroke-width="2.55" stroke-miterlimit="10"/>
    <path d="M96.1602 103.505C96.1602 103.505 108.069 103.224 111.027 102.714C111.027 102.714 110.262 111.155 103.963 111.741C97.6647 112.328 96.1602 103.505 96.1602 103.505Z" stroke="#373737" stroke-width="2.55" stroke-linejoin="round"/>
    <path d="M112.708 82.1875C112.708 82.1875 103.962 84.814 103.962 91.75C103.962 96.493 109.725 99.145 109.725 99.145" stroke="#373737" stroke-width="2.55" stroke-miterlimit="10" stroke-linecap="round"/>
    <path d="M92.9718 87.8999C92.9718 87.8999 87.2088 87.8999 82.6953 91.7504" stroke="#373737" stroke-width="2.55" stroke-miterlimit="10" stroke-linecap="round"/>
    <path d="M65 115.975C65 115.975 67.55 110.875 71.528 113.858" stroke="#373737" stroke-width="2.55" stroke-miterlimit="10" stroke-linecap="round"/>
    <path d="M89.4806 96.6977C88.8176 95.0402 89.2256 93.3317 90.3986 92.8727C91.5716 92.4137 93.0506 93.3827 93.7136 95.0402C94.3766 96.6977 93.9686 98.4062 92.7956 98.8652C91.6226 99.3242 90.1436 98.3552 89.4806 96.6977Z" fill="#373737"/>
    <path d="M110.391 92.5147C109.779 90.9847 110.161 89.4037 111.232 88.9957C112.303 88.5622 113.68 89.4547 114.292 90.9847C114.904 92.5147 114.522 94.0957 113.451 94.5037C112.38 94.9372 111.003 94.0447 110.391 92.5147Z" fill="#373737"/>
    <path d="M85.4746 120.029C85.4746 120.029 91.4416 129.847 106.308 126.532" stroke="#373737" stroke-width="2.55" stroke-miterlimit="10" stroke-linecap="round"/>
    <path d="M48.9355 202.598H55.7695C55.7695 202.598 56.3305 213.359 69.514 213.002C69.514 213.002 71.9875 218.485 80.8105 215.17C80.8105 215.17 83.641 218.204 88.282 218.434C92.7445 218.485 88.384 208.642 88.384 208.642C88.384 208.642 92.2855 214.303 97.5895 214.201C102.894 214.099 92.566 193.316 89.71 192.857C86.8795 192.398 83.4625 193.903 83.3605 196.351C83.3605 196.351 78.439 189.466 73.0075 196.351C73.0075 196.351 69.973 190.409 64.567 196.453C64.567 196.453 61.5325 191.353 57.274 193.801C53.0155 196.249 48.9355 202.598 48.9355 202.598Z" fill="white" stroke="#373737" stroke-width="2.55" stroke-miterlimit="10"/>
    <path d="M64.5664 196.453C64.5664 196.453 67.0399 204.282 69.5134 213.283" stroke="#373737" stroke-width="2.55" stroke-miterlimit="10"/>
    <path d="M80.8092 215.17L72.7002 195.867" stroke="#373737" stroke-width="2.55" stroke-miterlimit="10"/>
    <path d="M83.3604 196.351L88.7154 209.433" stroke="#373737" stroke-width="2.55" stroke-miterlimit="10"/>
    <path d="M187.961 114.7C181.662 114.547 167.357 114.419 162.333 114.343C161.109 114.343 160.013 115.108 159.63 116.281L144.432 168.326C143.846 170.137 145.197 171.973 147.11 171.973H173.375C174.624 171.973 175.721 171.131 176.078 169.933L190.587 118.219C191.072 116.459 189.797 114.7 187.961 114.674V114.7Z" fill="#373737"/>
    <path d="M188.804 144.101V132.269C188.804 130.433 187.911 128.699 186.432 127.602L177.609 121.151C176.768 120.539 175.569 120.896 175.212 121.89C174.498 123.803 175.059 125.945 176.589 127.271L182.582 132.422L182.786 139.842L165.395 127.5C164.477 126.863 163.202 127.169 162.717 128.163L162.386 128.852C161.748 130.152 162.003 131.708 163.049 132.702L177.533 146.498L161.442 135.762C160.346 135.048 158.867 135.686 158.663 136.986V137.037C158.306 139.23 159.147 141.423 160.881 142.826C164.273 145.605 169.883 150.144 172.254 151.929C169.857 150.552 164.222 147.518 160.652 145.605C159.275 144.866 157.643 145.937 157.745 147.492V147.722C157.847 149.099 158.586 150.323 159.734 151.088L172.662 159.477C173.325 159.911 173.606 160.727 173.351 161.466L170.597 169.703C170.546 170.493 169.832 171.105 169.041 171.054L156.342 171.539L158.816 177.327L146.678 202.649H171.948L178.451 175.721L186.662 161.645C188.192 159.018 188.982 156.009 188.957 152.949L188.829 144.126L188.804 144.101Z" fill="white" stroke="#373737" stroke-width="2.55" stroke-linecap="round" stroke-linejoin="round"/>
    <path d="M170.188 170.494L168.148 175.874" stroke="#373737" stroke-width="2.55" stroke-miterlimit="10" stroke-linecap="round"/>
    <path d="M459.879 65.0736C459.3 64.9433 458.723 65.3093 458.59 65.8855L455.302 80.0419C452.155 65.9273 443.815 53.5133 431.935 45.2691C420.057 37.0214 405.511 33.5447 391.187 35.5316C389.828 35.7352 390.133 37.8575 391.507 37.6651C405.319 35.7384 419.345 39.0947 430.793 47.0626C442.236 55.0312 450.251 67.021 453.238 80.6441L441.92 71.767C441.454 71.4652 440.829 71.5697 440.486 72.0091C440.142 72.4486 440.192 73.076 440.597 73.4603L454.885 84.6598C455.181 84.8786 455.568 84.9291 455.912 84.7962C456.256 84.6633 456.504 84.3655 456.577 84.0045L460.685 66.3716C460.815 65.7931 460.457 65.2176 459.879 65.0736Z" fill="black"/>
    <path d="M164.09 24.6705C163.317 23.8955 162.909 23.1982 162.866 22.5784C162.844 21.9631 163.153 21.5379 163.791 21.3029C163.934 21.2461 164.177 21.2866 164.518 21.4246C164.88 21.5671 165.135 21.7522 165.283 21.9799C165.621 22.4442 166.042 22.7735 166.546 22.9679C167.066 23.1876 167.734 23.2751 168.551 23.2305C169.485 23.1456 170.224 22.9536 170.767 22.6547C171.336 22.3394 171.987 21.8891 172.722 21.3038C173.28 20.8335 173.701 20.3449 173.983 19.8378C174.286 19.3352 174.474 18.8625 174.546 18.4199C174.643 17.9608 174.612 17.5943 174.452 17.3204C174.086 16.4792 173.546 15.8409 172.831 15.4055C172.121 14.9493 171.105 14.755 169.782 14.8227C169.631 14.8126 169.403 14.8077 169.098 14.8082C168.792 14.8087 168.518 14.8159 168.275 14.8297C168.037 14.8227 167.907 14.8169 167.886 14.8125C167.731 14.8232 167.612 14.8196 167.529 14.8019C167.445 14.7841 167.319 14.8663 167.149 15.0484C167.005 15.214 166.752 15.5854 166.389 16.1626C166.031 16.719 165.487 17.5848 164.757 18.7602C164.048 19.9399 163.48 20.7678 163.052 21.2438C162.649 21.7034 162.337 21.8879 162.116 21.7974C161.9 21.686 161.688 21.401 161.48 20.9424C161.375 20.6148 161.256 20.2515 161.123 19.8524C161.01 19.4577 161.098 19.0947 161.387 18.7635C161.531 18.5979 161.65 18.4487 161.744 18.3159C161.842 18.1623 161.985 17.8983 162.174 17.524C162.345 17.2332 162.658 16.7328 163.114 16.0228C163.596 15.2964 164.156 14.4558 164.796 13.5012C165.439 12.5257 166.11 11.5233 166.809 10.494C167.507 9.46479 168.172 8.49371 168.802 7.5808C169.453 6.67232 169.998 5.90482 170.436 5.2783C170.866 4.69351 171.143 4.2617 171.268 3.98287C171.393 3.70404 171.405 3.5431 171.305 3.50005C171.327 3.39572 171.316 3.29516 171.271 3.19839C171.231 3.08074 171.23 2.98241 171.268 2.90337C171.286 2.8199 171.488 2.74284 171.874 2.67217C172.28 2.60594 172.706 2.55457 173.15 2.51808C173.594 2.48159 173.905 2.50417 174.084 2.58582C174.188 2.608 174.313 2.63461 174.46 2.66566C174.61 2.67584 174.694 2.6392 174.712 2.55573C174.774 2.56903 174.977 2.5903 175.32 2.61954C175.663 2.64877 176.028 2.72639 176.415 2.8524C177.787 3.27477 178.848 3.92563 179.599 4.80497C180.354 5.66345 180.564 6.83125 180.228 8.30838C180.132 8.65869 179.888 9.08672 179.497 9.59247C179.106 10.0982 178.642 10.5885 178.105 11.0632C177.589 11.5423 177.057 11.9417 176.509 12.2615C176.189 12.4334 175.846 12.6113 175.48 12.7951C175.139 12.9626 174.836 13.1054 174.571 13.2235C174.331 13.3252 174.211 13.3761 174.211 13.3761C174.211 13.3761 174.288 13.4251 174.442 13.5232C174.595 13.6213 174.759 13.7216 174.934 13.8241C175.818 14.3829 176.474 14.9912 176.901 15.6491C177.35 16.3114 177.586 17.1469 177.612 18.1556C177.629 18.4863 177.547 18.8724 177.366 19.3137C177.206 19.7595 177.014 20.1986 176.791 20.631C176.573 21.0426 176.357 21.3894 176.145 21.6714C175.968 21.7864 175.82 21.9185 175.701 22.0677C175.586 22.196 175.529 22.2602 175.529 22.2602C175.52 22.3019 175.401 22.4511 175.172 22.7078C174.947 22.9436 174.685 23.204 174.384 23.4891C174.084 23.7742 173.803 24.0197 173.541 24.2258C173.297 24.3484 172.945 24.5136 172.487 24.7215C172.045 24.9546 171.563 25.1685 171.042 25.3631C170.541 25.5621 170.078 25.6925 169.65 25.7543C169.013 25.8805 168.32 25.9077 167.572 25.8359C166.84 25.7894 166.16 25.6557 165.53 25.4348C164.897 25.2347 164.417 24.9799 164.09 24.6705ZM169.105 12.1598C169.105 12.1598 169.278 12.164 169.625 12.1723C169.998 12.1643 170.402 12.1628 170.837 12.1681C171.276 12.1525 171.609 12.1251 171.836 12.086C171.953 12.0455 172.117 11.9931 172.327 11.9287C172.558 11.8687 172.8 11.7566 173.053 11.5923C173.403 11.3831 173.78 11.147 174.185 10.8841C174.594 10.6004 174.997 10.2935 175.395 9.96356C175.813 9.63805 176.185 9.27015 176.513 8.85986C177.152 8.21066 177.528 7.72356 177.641 7.39855C177.754 7.07355 177.703 6.74658 177.49 6.41765C177.351 6.14819 177.125 5.92581 176.814 5.75051C176.506 5.55434 176.154 5.41412 175.758 5.32984C175.387 5.22914 175.013 5.19325 174.636 5.22218C174.347 5.24799 174.116 5.30797 173.943 5.40213C173.775 5.47541 173.667 5.62683 173.618 5.85637C173.578 6.04417 173.473 6.2291 173.304 6.41116C173.159 6.57679 173.024 6.70068 172.897 6.78284C172.845 6.92447 172.741 7.05502 172.585 7.17448C172.454 7.2775 172.389 7.32902 172.389 7.32902C172.371 7.41249 172.18 7.64449 171.815 8.02504C171.476 8.38916 171.076 8.93665 170.616 9.6675C170.049 10.485 169.662 11.0786 169.452 11.4485C169.243 11.8183 169.127 12.0554 169.105 12.1598ZM183.277 25.7391C182.576 25.9608 181.863 26.0275 181.141 25.9393C180.443 25.8347 179.816 25.6033 179.26 25.2451C178.708 24.8661 178.295 24.3967 178.022 23.8369C177.871 23.5213 177.763 23.0514 177.7 22.4272C177.64 21.7821 177.782 20.9616 178.125 19.9657C178.454 19.0325 178.952 18.1242 179.62 17.2411C180.308 16.3623 181.077 15.6205 181.925 15.0157C182.773 14.4108 183.633 14.0593 184.505 13.961C184.819 13.9187 185.127 13.9078 185.428 13.9282C185.754 13.9321 186.163 14.0081 186.655 14.1563C187.122 14.321 187.523 14.5371 187.858 14.8047C188.199 15.0515 188.43 15.297 188.553 15.5411C188.815 15.946 188.966 16.316 189.004 16.6512C189.041 16.9863 189.019 17.2978 188.936 17.5855C188.69 18.2311 188.234 18.8867 187.569 19.5523C186.925 20.2224 186.125 20.6521 185.169 20.8414C184.783 20.9121 184.345 20.9172 183.857 20.857C183.368 20.7967 182.724 20.5944 181.925 20.25C181.446 20.0392 181.101 20.0204 180.89 20.1936C180.699 20.3712 180.55 20.7648 180.442 21.3744C180.404 21.7589 180.417 22.1105 180.48 22.4293C180.568 22.7316 180.789 22.9748 181.143 23.159C181.605 23.3445 181.947 23.4281 182.169 23.4099C182.395 23.3708 182.681 23.3114 183.025 23.2319C183.214 23.163 183.395 23.0815 183.567 22.9874C183.761 22.8977 183.944 22.8057 184.117 22.7116C184.31 22.6218 184.466 22.5568 184.584 22.5164C184.706 22.4551 184.821 22.4251 184.93 22.4264C185.039 22.4277 185.145 22.4394 185.249 22.4616C185.475 22.5313 185.667 22.703 185.827 22.9769C185.987 23.2508 186.076 23.4988 186.094 23.7207C186.059 23.8877 185.903 24.1055 185.628 24.3741C185.357 24.6219 185.009 24.875 184.583 25.1335C184.183 25.3756 183.748 25.5774 183.277 25.7391ZM184.354 18.6726C184.513 18.641 184.753 18.5393 185.073 18.3674C185.414 18.2 185.726 18.0154 186.008 17.8138C186.296 17.5913 186.455 17.4071 186.486 17.261C186.535 17.0315 186.42 16.8 186.143 16.5665C185.886 16.3375 185.507 16.2241 185.005 16.2264C184.829 16.2327 184.606 16.3053 184.337 16.4443C184.067 16.5833 183.791 16.7536 183.508 16.9553C183.23 17.136 182.983 17.3234 182.767 17.5175C182.556 17.6907 182.406 17.8332 182.316 17.9451C182.378 18.0672 182.527 18.1861 182.764 18.302C183.001 18.4178 183.266 18.5067 183.558 18.5688C183.871 18.6354 184.136 18.6699 184.354 18.6726ZM187.705 26.4514C187.548 26.2654 187.38 26.0332 187.199 25.7549C187.039 25.481 187.035 25.142 187.186 24.738C187.373 24.167 187.565 23.6735 187.762 23.2575C187.964 22.8206 188.2 22.3255 188.471 21.7723C188.566 21.5307 188.761 21.1251 189.056 20.5555C189.373 19.9902 189.732 19.3795 190.133 18.7232C190.534 18.067 190.937 17.4547 191.341 16.8863C191.75 16.2971 192.092 15.8682 192.367 15.5995C192.641 15.4396 192.997 15.4063 193.435 15.4994C193.894 15.597 194.19 15.747 194.321 15.9494C194.511 16.186 194.513 16.5354 194.327 16.9976C194.146 17.4389 193.701 18.0968 192.992 18.9711C192.834 19.1993 192.641 19.4417 192.412 19.6984C192.208 19.9386 192.055 20.146 191.953 20.3205C191.855 20.4741 191.86 20.5516 191.969 20.5529C192.143 20.35 192.428 20.1379 192.824 19.9167C193.224 19.6747 193.643 19.4475 194.081 19.2352C194.518 19.0229 194.929 18.8375 195.311 18.6789C195.694 18.5204 195.955 18.4231 196.093 18.3871C196.282 18.3182 196.488 18.2747 196.71 18.2564C196.957 18.2218 197.127 18.1924 197.219 18.1684C197.748 18.0409 198.287 18.0683 198.837 18.2507C199.413 18.4166 199.73 18.6694 199.789 19.009C199.774 19.1804 199.81 19.3189 199.897 19.4245C200.004 19.5346 200.058 19.5897 200.058 19.5897C200.141 19.6074 200.176 19.6476 200.163 19.7102C200.171 19.7772 200.174 19.8107 200.174 19.8107C200.143 19.9568 199.953 20.1344 199.603 20.3436C199.274 20.5572 198.94 20.639 198.602 20.5889C198.326 20.5521 198.075 20.5532 197.849 20.5923C197.623 20.6315 197.35 20.6826 197.031 20.7457C196.141 21.0362 195.334 21.2901 194.612 21.5073C193.911 21.729 193.148 22.1341 192.325 22.7225C192.144 22.8584 191.954 22.9816 191.756 23.0922C191.558 23.2028 191.347 23.376 191.122 23.6117C190.996 23.6939 190.843 23.9013 190.663 24.2338C190.483 24.5664 190.316 24.8907 190.162 25.2069C190.032 25.5066 189.961 25.6877 189.948 25.7503C189.948 25.7503 189.894 25.848 189.787 26.0434C189.685 26.2179 189.541 26.3835 189.355 26.5403C189.033 26.8209 188.739 26.9764 188.47 27.0066C188.223 27.0413 187.968 26.8562 187.705 26.4514ZM200.626 30.6699C199.478 30.4259 198.662 29.9035 198.178 29.1027C197.715 28.3063 197.63 27.2195 197.922 25.8423C198.082 25.0911 198.393 24.2957 198.855 23.456C199.338 22.6209 199.9 21.8243 200.54 21.0663C201.202 20.3128 201.881 19.6829 202.578 19.1766C203.279 18.6495 203.938 18.3206 204.554 18.1899C204.785 18.13 205.02 18.1035 205.258 18.1106C205.522 18.1012 205.768 18.1209 205.998 18.1697C206.248 18.2229 206.515 18.3014 206.799 18.4053C207.107 18.4927 207.386 18.6174 207.635 18.7794C208.084 19.0274 208.441 19.3979 208.707 19.8906C208.994 20.3878 209.053 21.0328 208.885 21.8258C208.841 22.0345 208.771 22.2596 208.676 22.5011C208.585 22.7218 208.464 22.9358 208.31 23.1432C207.893 23.7741 207.336 24.3427 206.639 24.849C205.964 25.3597 205.297 25.6759 204.638 25.7977C204.454 25.8457 204.273 25.8728 204.098 25.879C203.947 25.8689 203.788 25.846 203.621 25.8105C203.183 25.7174 202.8 25.5705 202.472 25.3699C202.165 25.1737 201.887 24.9403 201.639 24.6695L201.436 24.3972L201.212 24.6769C200.982 25.0423 200.807 25.354 200.687 25.612C200.587 25.8744 200.524 26.0682 200.498 26.1934C200.444 26.4438 200.399 26.7069 200.363 26.9826C200.33 27.2374 200.348 27.4594 200.417 27.6485C200.479 27.7706 200.565 27.8762 200.677 27.9655C200.81 28.0591 200.981 28.1281 201.189 28.1725C201.314 28.1991 201.429 28.2235 201.534 28.2456C201.663 28.2514 201.772 28.2527 201.86 28.2496C202.253 28.2459 202.585 28.1746 202.854 28.0356C203.149 27.8802 203.447 27.7582 203.75 27.6698L203.888 27.6338L203.877 27.5333C204.271 27.4209 204.536 27.3571 204.67 27.342C204.808 27.306 204.913 27.2738 204.985 27.2454C205.086 27.1796 205.189 27.1579 205.293 27.18C205.594 27.2004 205.858 27.3438 206.085 27.6101C206.337 27.86 206.432 28.131 206.37 28.4232C206.344 28.5484 206.208 28.7266 205.962 28.958C205.738 29.1938 205.461 29.4185 205.132 29.6321C204.828 29.8293 204.525 29.9721 204.223 30.0605C204.156 30.068 204.087 30.086 204.015 30.1145C203.948 30.122 203.879 30.14 203.807 30.1684L203.839 30.1751C203.598 30.3856 203.383 30.4709 203.195 30.4309L202.945 30.3777C202.831 30.506 202.526 30.6049 202.031 30.6742C201.532 30.7645 201.064 30.763 200.626 30.6699ZM203.857 23.4724C204.045 23.5123 204.218 23.5165 204.377 23.4849C204.558 23.4578 204.73 23.418 204.894 23.3656C205.47 23.1173 205.891 22.727 206.157 22.1946C206.422 21.6622 206.461 21.2234 206.273 20.878C206.244 20.8065 206.201 20.7537 206.143 20.7195C206.089 20.6645 206.021 20.6281 205.937 20.6104C205.708 20.5616 205.431 20.5792 205.108 20.6632C204.806 20.7516 204.49 20.9026 204.161 21.1162C203.832 21.3298 203.513 21.6 203.204 21.9268L202.657 22.4977C202.703 22.4857 202.737 22.4819 202.758 22.4863C202.804 22.4743 202.837 22.4705 202.858 22.475C203.046 22.5149 203.158 22.6041 203.194 22.7426C203.23 22.8811 203.276 23.0218 203.333 23.1648C203.411 23.3122 203.585 23.4147 203.857 23.4724ZM208.602 30.6968C208.518 30.6791 208.354 30.5788 208.11 30.3959C207.865 30.213 207.743 30.1216 207.743 30.1216C207.76 30.0381 207.751 29.9271 207.715 29.7886C207.7 29.6546 207.701 29.5458 207.719 29.4623C207.591 29.3478 207.474 29.1811 207.368 28.9623C207.261 28.7434 207.274 28.5281 207.407 28.3163C207.581 28.1134 207.821 27.8045 208.127 27.3898C208.459 26.9587 208.812 26.4776 209.186 25.9465C209.586 25.399 209.961 24.868 210.31 24.3533C210.659 23.8387 210.96 23.4009 211.211 23.0399C211.466 22.6581 211.614 22.4276 211.652 22.3486C211.67 22.2651 211.711 22.1213 211.777 21.917C211.863 21.7172 212.036 21.5687 212.297 21.4714C212.608 21.3413 212.892 21.3907 213.148 21.6197C213.405 21.8488 213.593 22.1941 213.713 22.6558C213.838 23.0967 213.842 23.5883 213.727 24.1309C213.696 24.277 213.512 24.6304 213.174 25.1912C212.842 25.7311 212.411 26.3703 211.884 27.1087C211.377 27.8515 210.826 28.596 210.231 29.3419C209.79 29.8806 209.459 30.2573 209.238 30.4722C209.044 30.6707 208.831 30.7456 208.602 30.6968ZM215.407 19.6135C215.157 19.5602 214.878 19.3811 214.572 19.0762C214.287 18.7757 214.047 18.4192 213.851 18.0068C213.655 17.5944 213.599 17.19 213.684 16.7935C213.706 16.6892 213.84 16.5213 214.085 16.29C214.335 16.0378 214.572 15.7938 214.797 15.558C215.042 15.3266 215.169 15.1901 215.178 15.1483C215.345 15.1838 215.537 15.2573 215.753 15.3687C215.969 15.48 216.142 15.593 216.27 15.7075C216.389 16.278 216.596 16.7909 216.891 17.2464C217.192 17.681 217.293 18.1278 217.195 18.5869C217.098 19.046 216.91 19.3659 216.632 19.5466C216.358 19.7065 215.949 19.7288 215.407 19.6135ZM216.959 33.7491C216.685 33.6035 216.424 33.3953 216.176 33.1246C215.928 32.8538 215.676 32.5495 215.421 32.2117C215.242 31.8246 215.129 31.4843 215.082 31.1909C215.04 30.8766 215.048 30.5294 215.107 30.1493C215.191 29.7529 215.298 29.2521 215.426 28.6469C215.48 28.3965 215.597 28.0506 215.778 27.6093C215.98 27.1724 216.186 26.7146 216.397 26.236C216.629 25.7618 216.836 25.348 217.021 24.9946C217.209 24.6203 217.327 24.3727 217.375 24.252C217.495 23.994 217.424 23.8153 217.162 23.7159C216.899 23.6165 216.599 23.5418 216.26 23.4917C215.947 23.4251 215.745 23.3495 215.654 23.2647C215.575 23.2261 215.556 23.1129 215.596 22.9251C215.64 22.7164 215.662 22.6121 215.662 22.6121C215.68 22.5286 215.649 22.4676 215.57 22.429C215.496 22.3695 215.438 22.2809 215.398 22.1633C215.374 22.0709 215.459 21.9255 215.654 21.727C215.849 21.5285 216.066 21.4328 216.304 21.4399C216.501 21.4381 216.789 21.4666 217.169 21.5256C217.554 21.5637 217.945 21.5705 218.343 21.546C218.766 21.5051 219.108 21.3816 219.37 21.1756C219.655 20.7564 219.968 20.3104 220.309 19.8375C220.654 19.3437 220.972 18.9208 221.265 18.5687C221.563 18.1957 221.764 17.9659 221.87 17.8793C222.265 17.7669 222.645 17.7715 223.012 17.8931C223.383 17.9938 223.638 18.2332 223.775 18.6115C223.849 18.7797 223.91 18.9018 223.959 18.9777C224.029 19.058 224.041 19.1586 223.993 19.2794C223.967 19.4046 223.834 19.6164 223.596 19.9147C223.384 20.1967 223.029 20.6339 222.533 21.2262C222.384 21.4127 222.25 21.5805 222.131 21.7297C222.017 21.8581 221.959 21.9222 221.959 21.9222C222.038 21.9608 222.161 21.9979 222.328 22.0334C222.495 22.0689 222.706 22.1028 222.961 22.1351C223.199 22.1422 223.456 22.1641 223.732 22.2009C224.012 22.2168 224.252 22.2678 224.452 22.3539C224.932 22.4559 225.258 22.667 225.43 22.987C225.602 23.3071 225.654 23.678 225.586 24.0998C225.579 24.3382 225.453 24.5187 225.209 24.6413C224.965 24.7639 224.561 24.7653 223.998 24.6455C223.81 24.6056 223.536 24.5584 223.177 24.5039C222.818 24.4493 222.448 24.3926 222.068 24.3336C221.688 24.2746 221.358 24.2372 221.078 24.2212C220.823 24.1889 220.691 24.1936 220.683 24.2353C220.611 24.2637 220.471 24.4085 220.263 24.6696C220.08 24.9142 219.874 25.2193 219.643 25.5847C219.434 25.9546 219.239 26.3058 219.059 26.6384C218.763 27.3168 218.512 27.9832 218.307 28.6377C218.103 29.2921 217.968 29.8742 217.903 30.3839C217.864 30.8771 217.916 31.248 218.059 31.4966C218.207 31.7244 218.489 31.7842 218.905 31.6763C219.345 31.5519 219.762 31.3895 220.153 31.1892C220.595 30.956 220.939 30.9309 221.183 31.1137C221.432 31.2757 221.551 31.5408 221.538 31.9088C221.55 32.2604 221.379 32.6056 221.023 32.9445C220.689 33.2877 220.263 33.5462 219.746 33.7199C219.229 33.8936 218.72 33.9816 218.218 33.9839C217.711 34.0071 217.292 33.9288 216.959 33.7491ZM230.64 40.2229C230.306 40.152 230.076 39.9504 229.95 39.6184C229.825 39.2863 229.771 39.0786 229.789 38.9951C229.84 38.8535 229.901 38.7245 229.969 38.6081C230.033 38.5127 230.086 38.415 230.129 38.3151C230.215 38.1153 230.29 37.8693 230.352 37.5772C230.409 37.3059 230.551 36.7909 230.778 36.0321C231.018 35.2107 231.217 34.5332 231.374 33.9995C231.552 33.4703 231.716 33.0036 231.868 32.5996C232.019 32.1956 232.181 31.7938 232.353 31.3942C232.529 30.9737 232.757 30.466 233.037 29.871C233.292 29.1837 233.385 28.7455 233.316 28.5564C233.268 28.3717 233.131 28.2445 232.906 28.1749C232.519 28.0489 232.197 27.8713 231.94 27.6423C231.688 27.3924 231.546 27.1334 231.516 26.8652C231.352 26.6122 231.34 26.4133 231.479 26.2686C231.64 26.1282 231.899 26.0414 232.255 26.008C232.615 25.9538 232.981 25.977 233.352 26.0777C233.711 26.1323 233.987 26.169 234.179 26.1881C234.397 26.1907 234.586 26.1219 234.747 25.9815C234.912 25.8204 235.103 25.534 235.322 25.1224C235.403 24.9434 235.527 24.719 235.694 24.449C235.881 24.1835 236.051 23.947 236.205 23.7397C236.358 23.5323 236.434 23.4286 236.434 23.4286C236.653 23.3225 236.787 23.1546 236.836 22.9251C236.919 22.6374 237.136 22.2802 237.489 21.8535C237.866 21.4103 238.443 20.8022 239.218 20.0291C240.122 19.2618 240.981 18.6591 241.794 18.2212C242.632 17.7669 243.451 17.5592 244.249 17.5981C244.342 17.5741 244.534 17.5931 244.826 17.6552C245.118 17.7173 245.316 17.7594 245.421 17.7816C245.854 17.8956 246.203 18.1007 246.468 18.3968C246.757 18.6764 246.958 19.0135 247.071 19.4082C247.18 19.715 247.127 20.1181 246.912 20.6176C246.722 21.1007 246.517 21.4497 246.296 21.6646C246.157 21.8093 245.899 21.9945 245.524 22.2201C245.17 22.4502 244.822 22.6489 244.481 22.8164C244.14 22.9838 243.928 23.0586 243.845 23.0409C243.74 23.0187 243.602 22.902 243.428 22.6907C243.255 22.4794 243.154 22.338 243.126 22.2666C243.096 21.9984 243.165 21.7733 243.335 21.5912C243.53 21.3928 243.723 21.2047 243.913 21.0271C244.188 20.7584 244.347 20.5741 244.39 20.4742C244.433 20.3743 244.43 20.2864 244.381 20.2105C244.336 20.1138 244.305 19.9544 244.286 19.7324L244.508 20.074C244.38 19.9595 244.261 19.9016 244.152 19.9003C244.044 19.8989 243.866 19.9156 243.618 19.9503C243.178 20.0747 242.892 20.1884 242.761 20.2914C242.655 20.378 242.501 20.4871 242.299 20.6185C241.705 20.9503 241.229 21.3943 240.87 21.9507C240.517 22.4862 240.147 22.9964 239.76 23.4812C239.641 23.6304 239.428 23.9124 239.122 24.3271C238.841 24.7254 238.575 25.1051 238.324 25.4661C238.098 25.8106 237.9 26.0739 237.731 26.256C237.566 26.4172 237.476 26.5291 237.463 26.5917C237.369 26.7244 237.385 26.8041 237.51 26.8307C237.656 26.8618 237.94 26.9112 238.362 26.9791C239.411 27.0712 240.119 27.2324 240.484 27.4628C240.875 27.6767 241.076 27.9595 241.089 28.3111C241.337 28.8873 241.166 29.2325 240.574 29.3467C240.008 29.4445 239.113 29.4505 237.888 29.3646C237.549 29.3145 237.284 29.2799 237.092 29.2608C236.904 29.2209 236.756 29.2003 236.647 29.199C236.559 29.2021 236.469 29.2157 236.377 29.2397C236.284 29.2637 236.146 29.4524 235.962 29.8058C235.892 30.0309 235.802 30.2516 235.69 30.4678C235.604 30.6676 235.52 30.9114 235.437 31.1991C235.3 31.4317 235.182 31.6793 235.083 31.9417C235.004 32.2085 234.891 32.4352 234.742 32.6217C234.373 33.7428 234.048 34.8079 233.768 35.8171C233.493 36.8054 233.225 37.6536 232.966 38.3618C232.727 39.0744 232.432 39.5897 232.081 39.9076C231.899 40.0435 231.634 40.1617 231.286 40.2621C230.958 40.3669 230.743 40.3539 230.64 40.2229ZM245.779 39.6132C245.615 39.3602 245.508 39.043 245.458 38.6617C245.413 38.2595 245.378 37.8051 245.355 37.2985C245.349 37.1227 245.368 36.9305 245.412 36.7218C245.478 36.5176 245.513 36.3506 245.519 36.221C245.425 36.3537 245.281 36.5194 245.086 36.7179C244.912 36.9208 244.751 37.0611 244.604 37.1388C244.503 37.2046 244.279 37.3316 243.934 37.5199C243.593 37.6873 243.261 37.813 242.938 37.897C242.156 38.1889 241.496 38.2667 240.958 38.1305C240.445 37.9779 240.044 37.609 239.754 37.0239C239.478 36.6817 239.28 36.2797 239.16 35.818C239.04 35.3563 239.104 34.8466 239.354 34.289C239.551 33.5675 239.806 32.8802 240.119 32.2271C240.437 31.5531 240.981 30.6872 241.751 29.6295C242.371 28.8671 242.847 28.2704 243.178 27.8392C243.51 27.408 243.716 27.1574 243.796 27.0872C244.131 27.0494 244.515 27.1419 244.948 27.3647C245.385 27.5666 245.593 27.8181 245.572 28.1191C245.653 28.3544 245.569 28.7508 245.32 29.3085C245.075 29.8453 244.687 30.439 244.156 31.0895C243.713 31.7369 243.285 32.3656 242.872 32.9757C242.479 33.5902 242.203 34.1204 242.043 34.5661C241.904 35.0163 241.969 35.3247 242.239 35.4911C242.404 35.6353 242.678 35.6826 243.059 35.6328C243.462 35.5874 243.98 35.3049 244.613 34.7854C245.247 34.2658 245.99 33.3877 246.842 32.1511C247.098 31.7693 247.3 31.4307 247.45 31.1354C247.605 30.8193 247.735 30.4652 247.84 30.0732C247.851 29.8139 247.969 29.5664 248.194 29.3306C248.439 29.0992 248.703 28.9371 248.984 28.8443C249.09 28.7577 249.225 28.6882 249.388 28.6358C249.557 28.5625 249.651 28.5824 249.67 28.6956L250.178 28.7708C250.265 28.7677 250.342 28.8711 250.406 29.0811C250.47 29.2911 250.546 29.4489 250.633 29.5545C250.822 29.7911 250.84 30.2202 250.686 30.8418C250.532 31.4634 250.095 32.2865 249.376 33.3114C248.798 34.0826 248.389 34.6719 248.15 35.079C247.931 35.4906 247.767 35.9029 247.658 36.3158C247.578 36.6914 247.541 37.0215 247.545 37.3061C247.555 37.5698 247.687 37.8705 247.943 38.2083C248.141 38.4032 248.213 38.6802 248.158 39.0394C248.129 39.3821 248.078 39.6765 248.004 39.9225C247.922 40.1014 247.728 40.1911 247.423 40.1916C247.134 40.2174 246.827 40.174 246.502 40.0613C246.198 39.953 245.957 39.8037 245.779 39.6132ZM245.803 25.6491C245.63 25.4378 245.516 25.1519 245.462 24.7914C245.433 24.4145 245.453 24.1678 245.521 24.0515C245.594 23.9143 245.743 23.6734 245.969 23.3289C246.22 22.9679 246.531 22.685 246.902 22.4803C246.999 22.4354 247.1 22.3697 247.205 22.2831C247.336 22.1801 247.456 22.1292 247.565 22.1305C247.906 21.9631 248.205 21.9939 248.461 22.2229C248.743 22.4355 248.955 22.7749 249.096 23.241C249.223 23.7697 249.201 24.1795 249.031 24.4703C248.881 24.7656 248.518 25.1357 247.944 25.5807C247.437 26.0181 247.009 26.2326 246.662 26.2243C246.34 26.1995 246.054 26.0077 245.803 25.6491ZM250.655 26.6803C250.481 26.469 250.368 26.1831 250.314 25.8226C250.285 25.4457 250.304 25.1991 250.373 25.0827C250.445 24.9455 250.595 24.7047 250.821 24.3601C251.072 23.9991 251.383 23.7162 251.753 23.5115C251.85 23.4666 251.951 23.4009 252.057 23.3143C252.188 23.2113 252.308 23.1604 252.417 23.1618C252.758 22.9943 253.056 23.0251 253.313 23.2541C253.595 23.4667 253.806 23.8061 253.947 24.2722C254.075 24.801 254.053 25.2108 253.882 25.5016C253.732 25.7969 253.37 26.167 252.796 26.6119C252.288 27.0493 251.861 27.2639 251.514 27.2555C251.192 27.2307 250.906 27.039 250.655 26.6803ZM250.112 39.7164C249.955 39.5304 249.787 39.2982 249.606 39.0199C249.446 38.746 249.442 38.407 249.593 38.003C249.78 37.432 249.972 36.9385 250.169 36.5225C250.371 36.0856 250.607 35.5905 250.878 35.0373C250.973 34.7958 251.168 34.3902 251.464 33.8205C251.78 33.2553 252.139 32.6445 252.54 31.9883C252.941 31.332 253.344 30.7197 253.748 30.1514C254.157 29.5621 254.499 29.1332 254.774 28.8645C255.048 28.7047 255.404 28.6713 255.842 28.7644C256.302 28.862 256.597 29.012 256.728 29.2144C256.918 29.451 256.92 29.8004 256.734 30.2626C256.553 30.704 256.108 31.3618 255.399 32.2361C255.241 32.4643 255.048 32.7068 254.819 32.9634C254.615 33.2037 254.462 33.411 254.36 33.5855C254.262 33.7391 254.267 33.8166 254.376 33.8179C254.55 33.615 254.835 33.4029 255.231 33.1818C255.631 32.9397 256.05 32.7126 256.488 32.5003C256.926 32.288 257.336 32.1025 257.718 31.944C258.101 31.7854 258.362 31.6881 258.5 31.6521C258.689 31.5833 258.895 31.5397 259.117 31.5215C259.364 31.4868 259.534 31.4574 259.626 31.4335C260.155 31.3059 260.694 31.3333 261.244 31.5157C261.82 31.6816 262.137 31.9344 262.196 32.274C262.181 32.4454 262.217 32.5839 262.304 32.6896C262.411 32.7996 262.465 32.8547 262.465 32.8547C262.548 32.8724 262.583 32.9126 262.57 32.9752C262.578 33.0422 262.581 33.0757 262.581 33.0757C262.55 33.2218 262.36 33.3994 262.01 33.6086C261.681 33.8222 261.347 33.904 261.009 33.8539C260.733 33.8171 260.482 33.8183 260.256 33.8574C260.03 33.8965 259.757 33.9476 259.438 34.0107C258.548 34.3012 257.741 34.5551 257.019 34.7724C256.318 34.994 255.555 35.3991 254.732 35.9875C254.551 36.1234 254.361 36.2466 254.163 36.3572C253.965 36.4678 253.754 36.641 253.529 36.8768C253.403 36.9589 253.25 37.1663 253.07 37.4989C252.89 37.8314 252.723 38.1558 252.569 38.4719C252.439 38.7716 252.368 38.9528 252.355 39.0154C252.355 39.0154 252.301 39.113 252.195 39.3084C252.092 39.4829 251.948 39.6485 251.762 39.8053C251.44 40.0859 251.146 40.2414 250.877 40.2716C250.63 40.3063 250.375 40.1212 250.112 39.7164ZM275.936 46.0559C275.618 46.0103 275.324 45.9586 275.053 45.9009C274.802 45.8477 274.613 45.7638 274.484 45.6493C274.175 45.2565 273.978 44.9528 273.893 44.7384C273.829 44.5284 273.821 44.3087 273.87 44.0791C273.952 43.7914 274.025 43.5015 274.087 43.2094C274.154 42.8964 274.205 42.6564 274.24 42.4895C274.174 42.3883 273.988 42.4467 273.679 42.6647C273.371 42.8828 273.024 43.0815 272.637 43.2609C271.835 43.8538 271.148 44.2639 270.576 44.4914C270.008 44.6979 269.512 44.7777 269.086 44.7307C268.655 44.7046 268.235 44.6263 267.827 44.4959C267.46 44.3743 267.166 44.1156 266.945 43.7196C266.745 43.3281 266.622 42.8768 266.578 42.3658C266.555 41.8592 266.613 41.3809 266.753 40.9307C267.039 40.0973 267.391 39.3651 267.808 38.7342C268.23 38.0823 268.795 37.428 269.501 36.7713C269.823 36.4906 270.234 36.1964 270.736 35.8887C271.258 35.5853 271.806 35.3199 272.377 35.0925C272.954 34.8442 273.455 34.6892 273.883 34.6274C274.546 34.4847 275.073 34.466 275.465 34.5711C275.878 34.6807 276.272 34.8298 276.646 35.0184C276.907 35.2266 277.121 35.3484 277.288 35.3839C277.476 35.4238 277.634 35.3483 277.762 35.1574C277.922 35.017 278.06 34.8283 278.176 34.5912C278.292 34.3541 278.447 34.1363 278.642 33.9379L279.763 32.0497C280.113 31.5351 280.521 30.9458 280.99 30.282C281.458 29.6182 281.986 28.8798 282.573 28.0668C283.226 27.355 283.724 27.0137 284.066 27.0429C284.43 27.0766 284.755 27.342 285.042 27.8392C285.239 28.1428 285.308 28.4847 285.249 28.8647C285.216 29.2283 285.033 29.6257 284.702 30.0568C284.507 30.2553 284.288 30.5142 284.046 30.8335C283.808 31.1319 283.525 31.4862 283.198 31.8965C282.853 32.3902 282.498 32.8818 282.132 33.3711C281.788 33.8649 281.421 34.4086 281.033 35.0022C280.879 35.3184 280.682 35.68 280.443 36.0872C280.224 36.4988 280.036 36.8731 279.877 37.2101C279.743 37.5306 279.604 37.8281 279.458 38.1025C279.338 38.3605 279.236 38.4806 279.153 38.4628C278.955 38.5734 278.732 38.8532 278.484 39.3021C278.24 39.7301 278.01 40.1939 277.795 40.6934C277.601 41.1973 277.437 41.6096 277.303 41.9301C277.208 42.1717 277.102 42.5197 276.983 42.9744C276.869 43.4082 276.768 43.8337 276.679 44.2511C276.595 44.6475 276.537 44.9188 276.506 45.0649C276.422 45.4614 276.331 45.7364 276.233 45.89C276.16 46.0272 276.061 46.0825 275.936 46.0559ZM269.387 42.0795C269.867 42.1816 270.358 42.0787 270.86 41.7709C271.387 41.4467 271.96 41.1105 272.579 40.7623C272.958 40.5159 273.355 40.2403 273.769 39.9357C274.187 39.6102 274.572 39.2884 274.923 38.9705C275.295 38.657 275.593 38.3823 275.818 38.1465C276.042 37.9107 276.163 37.7511 276.181 37.6676C276.203 37.5633 276.14 37.4517 275.991 37.3327C275.862 37.2182 275.698 37.1179 275.498 37.0318C275.303 36.9248 275.117 36.8745 274.942 36.8807C274.41 36.9204 273.956 37.053 273.581 37.2786C273.227 37.5086 272.702 37.8768 272.005 38.383C271.295 38.9519 270.707 39.5138 270.24 40.0689C269.773 40.6239 269.456 41.0908 269.288 41.4696C269.146 41.8319 269.179 42.0352 269.387 42.0795ZM285.087 47.3796C284.386 47.6013 283.674 47.668 282.951 47.5798C282.254 47.4752 281.627 47.2438 281.07 46.8856C280.518 46.5066 280.106 46.0372 279.832 45.4774C279.681 45.1618 279.574 44.6919 279.51 44.0677C279.451 43.4226 279.593 42.6021 279.935 41.6062C280.264 40.673 280.763 39.7647 281.43 38.8816C282.119 38.0028 282.887 37.261 283.735 36.6562C284.584 36.0513 285.444 35.6998 286.315 35.6015C286.629 35.5592 286.937 35.5483 287.238 35.5687C287.564 35.5726 287.974 35.6486 288.465 35.7968C288.932 35.9614 289.333 36.1776 289.669 36.4452C290.009 36.692 290.24 36.9375 290.363 37.1816C290.626 37.5865 290.776 37.9565 290.814 38.2916C290.852 38.6268 290.829 38.9383 290.746 39.226C290.5 39.8716 290.044 40.5272 289.38 41.1928C288.736 41.8629 287.935 42.2926 286.979 42.4819C286.593 42.5525 286.156 42.5577 285.667 42.4975C285.178 42.4372 284.534 42.2349 283.735 41.8905C283.257 41.6797 282.912 41.6609 282.7 41.8341C282.51 42.0117 282.361 42.4053 282.253 43.0149C282.215 43.3994 282.227 43.751 282.29 44.0698C282.379 44.3721 282.6 44.6153 282.953 44.7995C283.415 44.985 283.758 45.0686 283.98 45.0504C284.206 45.0112 284.491 44.9519 284.835 44.8724C285.024 44.8035 285.205 44.722 285.378 44.6279C285.571 44.5381 285.755 44.4462 285.927 44.3521C286.121 44.2623 286.276 44.1973 286.394 44.1568C286.516 44.0955 286.632 44.0656 286.74 44.0669C286.849 44.0682 286.956 44.0799 287.06 44.1021C287.285 44.1718 287.478 44.3435 287.637 44.6174C287.797 44.8913 287.886 45.1393 287.905 45.3612C287.869 45.5282 287.714 45.746 287.439 46.0146C287.168 46.2624 286.82 46.5155 286.394 46.774C285.994 47.016 285.558 47.2179 285.087 47.3796ZM286.164 40.3131C286.324 40.2815 286.563 40.1798 286.883 40.0079C287.224 39.8405 287.536 39.6559 287.819 39.4543C288.106 39.2318 288.265 39.0476 288.296 38.9015C288.345 38.672 288.231 38.4404 287.953 38.207C287.697 37.9779 287.317 37.8646 286.815 37.8669C286.639 37.8732 286.417 37.9458 286.147 38.0848C285.878 38.2238 285.602 38.3941 285.319 38.5958C285.04 38.7765 284.793 38.9639 284.578 39.158C284.366 39.3311 284.216 39.4737 284.127 39.5856C284.188 39.7077 284.337 39.8266 284.575 39.9424C284.812 40.0583 285.076 40.1472 285.368 40.2093C285.681 40.2759 285.947 40.3104 286.164 40.3131ZM290.97 49.2516C290.469 49.1452 290.087 48.7912 289.822 48.1897C289.583 47.5717 289.501 46.8783 289.577 46.1093C289.634 45.9468 289.705 45.7113 289.793 45.4027C289.901 45.0986 290.012 44.784 290.124 44.459C290.292 44.0803 290.515 43.5934 290.795 42.9984C291.074 42.4035 291.363 41.8107 291.663 41.2202C291.968 40.6088 292.231 40.0869 292.454 39.6544C292.681 39.2011 292.814 38.9349 292.853 38.8559C293.04 38.5903 293.337 38.5772 293.745 38.8164C294.152 39.0556 294.461 39.4484 294.672 39.9949C294.761 40.1885 294.792 40.4022 294.764 40.6362C294.757 40.8746 294.655 41.2018 294.458 41.6179C294.281 42.0383 293.977 42.6497 293.544 43.4521C293.137 44.238 292.816 44.8784 292.58 45.3735C292.369 45.8521 292.214 46.3754 292.115 46.9432C291.828 47.8854 291.605 48.525 291.446 48.862C291.291 49.1781 291.133 49.308 290.97 49.2516ZM296.611 36.8739C296.514 36.9188 296.424 36.9323 296.341 36.9146C296.282 36.8804 296.181 36.7934 296.036 36.6536C295.895 36.6017 295.727 36.4679 295.533 36.2521C295.364 36.02 295.216 35.7923 295.089 35.569C294.983 35.3501 294.934 35.2198 294.943 35.1781C294.967 34.965 295.048 34.6333 295.187 34.1831C295.348 33.7374 295.553 33.334 295.804 32.973C296.081 32.5956 296.378 32.4297 296.695 32.4753C296.779 32.4931 296.947 32.5725 297.201 32.7136C297.475 32.8592 297.756 33.0279 298.042 33.2196C298.142 33.5681 298.212 34.0083 298.252 34.5401C298.292 35.072 298.198 35.5646 297.971 36.0179C297.769 36.4548 297.316 36.7401 296.611 36.8739ZM296.113 49.2652C296.03 49.2474 295.847 49.1323 295.565 48.9197C295.287 48.6862 295.116 48.5188 295.05 48.4176C294.939 48.2197 294.883 48.0223 294.881 47.8256C294.884 47.6081 294.948 47.2072 295.072 46.6229C295.214 45.9552 295.509 45.2328 295.958 44.4558C296.411 43.6579 297.112 42.6182 298.06 41.3367L299.896 39.0115C300.031 38.8876 300.152 38.7824 300.257 38.6958C300.367 38.5883 300.486 38.4935 300.612 38.4114C300.654 38.4202 300.706 38.4313 300.769 38.4446C300.852 38.4624 300.912 38.4861 300.95 38.5159C301.133 38.5766 301.401 38.7535 301.753 39.0465C302.126 39.3438 302.31 39.7101 302.305 40.1452C302.247 40.4164 302.136 40.731 301.973 41.0889C301.814 41.4259 301.464 41.8421 300.922 42.3377C300.711 42.5109 300.48 42.778 300.229 43.139C299.998 43.5044 299.783 43.8512 299.582 44.1793C299.553 44.2166 299.468 44.3077 299.328 44.4524C299.213 44.5807 299.097 44.7195 298.978 44.8687C298.863 44.997 298.802 45.0821 298.793 45.1238L298.608 45.3789L300.233 44.3503C301.372 43.6109 302.306 43.1117 303.038 42.8527C303.769 42.5938 304.347 42.5421 304.772 42.6979C305.217 42.8581 305.527 43.1965 305.701 43.7133C305.803 43.953 305.858 44.2047 305.868 44.4684C305.881 44.7113 305.865 44.9914 305.82 45.3088C305.774 45.6263 305.679 46.0205 305.536 46.4916L305.156 48.2758C305.575 48.2557 305.895 48.2365 306.117 48.2183C306.344 48.1792 306.568 48.1505 306.79 48.1323C306.966 48.126 307.142 48.1198 307.317 48.1135C307.514 48.1117 307.75 48.1292 308.026 48.166C307.947 48.4328 307.762 48.7423 307.469 49.0944C307.176 49.4465 306.831 49.7876 306.433 50.1175C306.057 50.4519 305.663 50.717 305.25 50.9129C304.859 51.1132 304.517 51.1823 304.225 51.1202C303.953 51.0625 303.658 50.9125 303.339 50.6702C303.024 50.407 302.797 49.9879 302.657 49.413C302.632 49.124 302.615 48.7933 302.607 48.4208C302.598 48.0483 302.637 47.6638 302.721 47.2673L303.014 45.8901C303.04 45.7649 303.048 45.6792 303.036 45.6331C303.049 45.5705 303.045 45.5369 303.024 45.5325C302.941 45.5148 302.623 45.6762 302.071 46.0168C301.539 46.3619 300.993 46.7256 300.432 47.108C299.259 47.9056 298.298 48.4756 297.549 48.818C296.821 49.1649 296.343 49.314 296.113 49.2652ZM317.111 54.5464C316.369 54.0395 315.92 53.3772 315.767 52.5595C315.614 51.7417 315.743 50.7224 316.155 49.5014C316.335 48.8634 316.405 48.4312 316.366 48.2047C316.331 47.9575 316.221 47.7051 316.036 47.4476C315.991 47.3509 315.874 47.1842 315.684 46.9476C315.499 46.6901 315.428 46.5114 315.471 46.4115C315.481 46.261 315.55 46.0903 315.678 45.8994C315.81 45.6876 315.91 45.5779 315.977 45.5703C316.136 45.5388 316.298 45.4968 316.462 45.4444C316.646 45.3964 316.776 45.4021 316.851 45.4616C316.934 45.4794 317.048 45.5581 317.193 45.698C317.359 45.8422 317.432 45.9561 317.415 46.0395C317.467 46.2034 317.606 46.1674 317.83 45.9316C318.076 45.7002 318.347 45.3981 318.645 45.0251C318.924 44.7355 319.252 44.478 319.627 44.2524C320.002 44.0268 320.37 43.8325 320.732 43.6694C321.119 43.49 321.441 43.3621 321.697 43.2857C321.81 43.2661 322.022 43.2456 322.332 43.2243C322.662 43.2073 322.999 43.2135 323.342 43.2427C323.689 43.2511 323.944 43.2834 324.106 43.3398C324.477 43.4405 324.841 43.6813 325.196 44.0621C325.551 44.443 325.817 44.783 325.993 45.0822C326.225 45.3277 326.34 45.6575 326.339 46.0717C326.364 46.4695 326.321 46.8749 326.211 47.2878C326.102 47.7007 325.943 48.0377 325.735 48.2988C325.628 48.4941 325.347 48.7397 324.891 49.0355C324.436 49.3312 323.941 49.6077 323.406 49.8649C322.897 50.1056 322.473 50.2553 322.133 50.314C321.849 50.3189 321.514 50.3023 321.13 50.2642C320.75 50.2052 320.395 50.1298 320.065 50.038C319.761 49.9297 319.553 49.831 319.441 49.7418C319.313 49.6273 319.181 49.632 319.046 49.7559C318.936 49.8633 318.787 50.2025 318.6 50.7735C318.531 50.9986 318.489 51.1968 318.474 51.3682C318.48 51.544 318.495 51.6781 318.519 51.7704C318.612 52.0519 318.718 52.2707 318.838 52.427C318.962 52.5624 319.226 52.6513 319.632 52.6939C320.037 52.7364 320.484 52.5807 320.974 52.2268C321.489 51.8564 321.942 51.5711 322.334 51.3708C322.448 51.2424 322.646 51.1862 322.926 51.2022C323.231 51.2017 323.571 51.2957 323.945 51.4843C324.144 51.6792 324.199 51.9309 324.112 52.2395C324.046 52.5525 323.781 52.9761 323.318 53.5103C323.225 53.643 323.001 53.8244 322.647 54.0545C322.318 54.2681 321.955 54.4855 321.559 54.7066C321.189 54.9114 320.886 55.0542 320.65 55.135C319.953 55.3358 319.305 55.3615 318.704 55.212C318.103 55.0625 317.572 54.8406 317.111 54.5464ZM320.925 47.9961C321.255 47.9791 321.534 47.9511 321.76 47.912C322.008 47.8773 322.256 47.7882 322.504 47.6448C322.753 47.5013 323.053 47.2706 323.404 46.9527C323.536 46.7409 323.62 46.5515 323.655 46.3846C323.712 46.2221 323.723 46.1155 323.691 46.0649C323.559 45.8625 323.382 45.7704 323.16 45.7887C322.964 45.7905 322.733 45.8505 322.468 45.9686C322.309 46.0002 322.071 46.0914 321.755 46.2425C321.465 46.377 321.168 46.5429 320.864 46.7401C320.586 46.9208 320.352 47.1 320.161 47.2777C319.996 47.4388 319.951 47.5492 320.026 47.6087C319.966 47.6832 320.07 47.7598 320.337 47.8383C320.624 47.9213 320.82 47.9739 320.925 47.9961ZM325.557 55.7526C325.4 55.5666 325.231 55.3345 325.05 55.0561C324.891 54.7822 324.886 54.4433 325.038 54.0392C325.224 53.4683 325.417 52.9748 325.614 52.5587C325.816 52.1218 326.052 51.6268 326.322 51.0735C326.417 50.832 326.612 50.4264 326.908 49.8567C327.224 49.2915 327.583 48.6808 327.985 48.0245C328.386 47.3682 328.789 46.7559 329.193 46.1876C329.602 45.5984 329.944 45.1694 330.219 44.9008C330.493 44.7409 330.849 44.7075 331.287 44.8007C331.746 44.8983 332.041 45.0483 332.173 45.2507C332.362 45.4873 332.364 45.8367 332.179 46.2989C331.998 46.7402 331.553 47.398 330.843 48.2723C330.686 48.5006 330.493 48.743 330.264 48.9997C330.06 49.2399 329.907 49.4472 329.804 49.6217C329.706 49.7754 329.711 49.8528 329.82 49.8542C329.994 49.6512 330.279 49.4392 330.675 49.218C331.076 48.976 331.495 48.7488 331.932 48.5365C332.37 48.3242 332.78 48.1388 333.163 47.9802C333.546 47.8216 333.806 47.7243 333.945 47.6883C334.134 47.6195 334.339 47.5759 334.561 47.5577C334.809 47.523 334.978 47.4937 335.071 47.4697C335.599 47.3422 336.139 47.3696 336.689 47.5519C337.264 47.7179 337.581 47.9706 337.64 48.3103C337.625 48.4816 337.661 48.6201 337.748 48.7258C337.856 48.8359 337.909 48.8909 337.909 48.8909C337.993 48.9086 338.028 48.9488 338.015 49.0114C338.022 49.0785 338.026 49.112 338.026 49.112C337.995 49.258 337.804 49.4357 337.455 49.6448C337.126 49.8585 336.792 49.9402 336.454 49.8901C336.178 49.8533 335.927 49.8545 335.701 49.8936C335.474 49.9327 335.202 49.9838 334.883 50.0469C333.992 50.3375 333.186 50.5913 332.464 50.8086C331.762 51.0303 331 51.4353 330.177 52.0237C329.995 52.1596 329.806 52.2829 329.608 52.3934C329.41 52.504 329.198 52.6772 328.974 52.913C328.847 52.9952 328.694 53.2025 328.514 53.5351C328.335 53.8677 328.168 54.192 328.013 54.5081C327.884 54.8078 327.813 54.989 327.799 55.0516C327.799 55.0516 327.746 55.1493 327.639 55.3446C327.537 55.5191 327.392 55.6848 327.206 55.8415C326.885 56.1222 326.59 56.2776 326.322 56.3079C326.075 56.3425 325.82 56.1575 325.557 55.7526ZM338.338 59.5489C337.67 59.407 337.086 59.1301 336.584 58.7182C336.108 58.2899 335.75 57.8211 335.509 57.3119C335.273 56.7819 335.199 56.3082 335.288 55.8908C335.328 55.703 335.388 55.5741 335.468 55.5039C335.569 55.4382 335.693 55.4208 335.839 55.4519C335.939 55.4949 336.053 55.5737 336.182 55.6882C336.31 55.8027 336.436 55.9277 336.56 56.0631C336.845 56.3636 337.179 56.5873 337.562 56.7341C337.945 56.881 338.305 56.9356 338.64 56.8978C338.979 56.8391 339.197 56.689 339.292 56.4474C339.309 56.364 339.305 56.1777 339.28 55.8887C339.254 55.5997 339.205 55.3167 339.133 55.0397C338.775 54.1567 338.607 53.3576 338.628 52.6424C338.654 51.9063 338.721 51.179 338.83 50.4607C338.892 50.1686 339.097 49.8739 339.443 49.5769C339.795 49.2589 340.206 48.9647 340.678 48.6942C341.196 48.4118 341.751 48.159 342.344 47.9361C342.957 47.7175 343.549 47.5489 344.12 47.4303C344.69 47.3116 345.157 47.2691 345.521 47.3028C345.897 47.3826 346.289 47.4878 346.697 47.6182C347.131 47.7322 347.408 47.8673 347.527 48.0236C347.77 48.3152 347.962 48.7485 348.101 49.3234C348.241 49.8983 348.273 50.3631 348.197 50.7179C348.162 50.8848 348.024 51.0735 347.783 51.284C347.567 51.4781 347.355 51.7056 347.147 51.9667C347.032 52.0951 346.926 52.236 346.828 52.3897C346.73 52.5433 346.621 52.6947 346.502 52.8439C346.315 53.1094 346.059 53.1858 345.734 53.0731C345.434 52.944 345.178 52.715 344.964 52.386C344.755 52.0362 344.69 51.6735 344.77 51.2979C344.837 50.9849 344.988 50.7336 345.225 50.544C345.461 50.3544 345.588 50.2178 345.606 50.1344C345.615 50.0926 345.601 50.0569 345.564 50.0271C345.526 49.9974 345.455 49.9715 345.351 49.9493C345.205 49.9182 344.952 49.9298 344.591 49.9841C344.256 50.0219 343.889 50.1074 343.49 50.2407C343.091 50.3739 342.714 50.5556 342.36 50.7856C342.102 50.9708 341.872 51.1835 341.668 51.4237C341.49 51.6475 341.369 51.9055 341.307 52.1976C341.245 52.4898 341.224 52.8452 341.244 53.2638C341.29 53.6661 341.359 54.0079 341.452 54.2894C341.484 54.34 341.523 54.468 341.566 54.6736C341.635 54.8627 341.705 55.0958 341.777 55.3728C342.212 57.1228 342.087 58.3284 341.401 58.9896C340.736 59.6552 339.715 59.8417 338.338 59.5489ZM348.264 63.4255C347.246 63.1873 346.651 62.7554 346.479 62.1299C346.323 61.5297 346.396 60.8256 346.699 60.0175C346.908 59.6476 347.057 59.3084 347.144 58.9998C347.257 58.6748 347.395 58.4861 347.559 58.4337C347.559 58.4337 347.576 58.4046 347.61 58.3464C347.665 58.2927 347.668 58.2279 347.619 58.152C347.676 57.8807 347.85 57.5251 348.14 57.085C348.208 56.9687 348.291 56.8337 348.39 56.6801C348.513 56.51 348.575 56.425 348.575 56.425C348.506 56.2359 348.535 56.1003 348.661 56.0181C348.788 55.9359 348.912 55.8642 349.034 55.8029C349.181 55.7252 349.216 55.6126 349.139 55.4653C349.115 55.3729 349.207 55.1962 349.415 54.9351C349.627 54.6532 349.863 54.3652 350.122 54.0712C350.381 53.7773 350.561 53.5431 350.664 53.3686C350.673 53.3268 350.756 53.1919 350.913 52.9636C351.071 52.7354 351.258 52.4699 351.475 52.167C351.692 51.8642 351.892 51.5905 352.075 51.3458C352.279 51.1056 352.411 50.9482 352.47 50.8736C352.701 50.8136 352.633 50.7228 352.266 50.6012C351.899 50.4797 351.505 50.385 351.083 50.3171C350.441 50.1588 349.926 50.0166 349.538 49.8906C349.172 49.769 348.879 49.6086 348.659 49.4093C348.471 49.0639 348.513 48.7129 348.785 48.3564C349.061 47.979 349.41 47.8242 349.832 47.892C350.108 47.9288 350.319 47.9627 350.465 47.9938C350.632 48.0293 350.843 48.0632 351.098 48.0955C351.378 48.1115 351.806 48.148 352.383 48.2052L354.006 48.4193L354.213 47.9071C354.437 47.6713 354.59 47.5183 354.67 47.4482C354.751 47.378 354.81 47.3034 354.849 47.2244C354.892 47.1245 354.961 46.9538 355.056 46.7122C355.056 46.7122 355.185 46.5653 355.444 46.2713C355.707 45.9565 355.899 45.6157 356.021 45.249C356.36 44.8848 356.659 44.5558 356.918 44.2619C357.181 43.947 357.342 43.7523 357.402 43.6777C357.867 43.2314 358.272 43.0229 358.614 43.0522C358.978 43.0858 359.294 43.2403 359.563 43.5155C359.728 43.6597 359.877 43.8331 360.008 44.0355C360.144 44.217 360.207 44.4374 360.195 44.6967C360.188 44.9351 360.03 45.2177 359.72 45.5446C359.661 45.6192 359.565 45.7624 359.433 45.9742C359.305 46.1651 359.205 46.3292 359.132 46.4664C358.976 46.5858 358.768 46.7925 358.509 47.0865C358.276 47.364 358.092 47.663 357.959 47.9836C357.716 48.3029 357.566 48.4998 357.506 48.5744C357.447 48.649 357.375 48.6774 357.292 48.6597C357.289 48.8772 357.392 49.0082 357.601 49.0525C357.814 49.076 358.163 49.1283 358.647 49.2095C359.052 49.252 359.332 49.2679 359.487 49.2573C359.668 49.2301 359.851 49.2909 360.037 49.4396C360.111 49.6079 360.116 49.8381 360.054 50.1302C360.017 50.4059 359.929 50.6705 359.787 50.9241C359.651 51.1567 359.503 51.2888 359.343 51.3204C359.239 51.2982 359.007 51.3142 358.646 51.3685C358.311 51.4063 357.901 51.3846 357.417 51.3035L355.725 51.1073L354.966 52.0585C354.762 52.2987 354.584 52.5225 354.431 52.7298C354.282 52.9163 354.183 53.026 354.132 53.0589C354.105 53.1841 353.992 53.3564 353.793 53.5757C353.615 53.7995 353.421 54.042 353.213 54.303C353.013 54.6312 352.798 54.9236 352.569 55.1802C352.361 55.4413 352.256 55.5719 352.256 55.5719C352.173 55.5541 352.118 55.6078 352.091 55.7331C352.142 56.0056 352.071 56.1868 351.878 56.2765C351.76 56.3169 351.646 56.3909 351.536 56.4983C351.451 56.5894 351.409 56.6349 351.409 56.6349C351.475 56.7361 351.463 56.8426 351.374 56.9545C351.305 57.0709 351.214 57.1932 351.099 57.3215C351.064 57.4885 350.961 57.7173 350.79 58.0082C350.64 58.3034 350.484 58.5756 350.322 58.8247C350.263 59.2048 350.233 59.4492 350.231 59.5579C350.23 59.6667 350.273 59.7195 350.361 59.7164C350.461 59.7595 350.607 59.7905 350.8 59.8096C350.992 59.8286 351.13 59.847 351.213 59.8647C351.557 59.7852 351.256 60.4845 350.309 61.9627C349.864 62.4134 349.44 62.7702 349.035 63.0331C348.626 63.3169 348.369 63.4477 348.264 63.4255ZM361.663 63.6562C360.962 63.8779 360.249 63.9446 359.527 63.8564C358.829 63.7518 358.202 63.5204 357.646 63.1622C357.094 62.7832 356.681 62.3138 356.408 61.754C356.257 61.4384 356.149 60.9685 356.086 60.3443C356.026 59.6992 356.168 58.8787 356.511 57.8829C356.84 56.9496 357.338 56.0414 358.006 55.1582C358.694 54.2794 359.463 53.5376 360.311 52.9328C361.159 52.328 362.019 51.9764 362.891 51.8781C363.205 51.8359 363.513 51.8249 363.814 51.8453C364.14 51.8492 364.549 51.9253 365.041 52.0734C365.508 52.2381 365.909 52.4542 366.244 52.7218C366.585 52.9686 366.816 53.2141 366.939 53.4582C367.201 53.8631 367.352 54.2331 367.39 54.5683C367.427 54.9035 367.405 55.2149 367.322 55.5026C367.076 56.1482 366.62 56.8038 365.955 57.4694C365.311 58.1395 364.511 58.5692 363.555 58.7585C363.169 58.8292 362.731 58.8344 362.243 58.7741C361.754 58.7138 361.11 58.5115 360.311 58.1671C359.832 57.9563 359.487 57.9375 359.276 58.1107C359.085 58.2883 358.936 58.682 358.828 59.2915C358.79 59.676 358.803 60.0276 358.866 60.3464C358.954 60.6487 359.175 60.892 359.529 61.0761C359.991 61.2616 360.333 61.3452 360.555 61.327C360.781 61.2879 361.067 61.2285 361.411 61.149C361.6 61.0802 361.781 60.9986 361.953 60.9045C362.147 60.8148 362.33 60.7228 362.503 60.6287C362.696 60.539 362.852 60.4739 362.97 60.4335C363.092 60.3722 363.207 60.3422 363.316 60.3435C363.425 60.3448 363.531 60.3565 363.635 60.3787C363.861 60.4484 364.053 60.6202 364.213 60.8941C364.373 61.1679 364.462 61.4159 364.48 61.6379C364.445 61.8048 364.289 62.0226 364.014 62.2912C363.743 62.539 363.395 62.7922 362.969 63.0506C362.569 63.2927 362.134 63.4945 361.663 63.6562ZM362.74 56.5897C362.899 56.5581 363.139 56.4564 363.459 56.2845C363.8 56.1171 364.112 55.9326 364.394 55.7309C364.682 55.5085 364.841 55.3242 364.872 55.1781C364.921 54.9486 364.806 54.7171 364.529 54.4836C364.272 54.2546 363.893 54.1412 363.391 54.1435C363.215 54.1498 362.992 54.2224 362.723 54.3614C362.453 54.5004 362.177 54.6708 361.894 54.8724C361.616 55.0531 361.369 55.2405 361.153 55.4346C360.942 55.6078 360.792 55.7503 360.702 55.8622C360.764 55.9843 360.913 56.1032 361.15 56.2191C361.387 56.3349 361.652 56.4239 361.944 56.486C362.257 56.5525 362.522 56.5871 362.74 56.5897ZM366.936 65.6276C366.288 65.1847 365.831 64.7712 365.564 64.3872C365.322 63.9868 365.259 63.6681 365.374 63.431C365.443 63.3146 365.54 63.2154 365.667 63.1332C365.793 63.0511 366.032 63.0581 366.382 63.1544C366.758 63.2342 367.311 63.4501 368.044 63.802C368.273 63.8508 368.505 63.8892 368.739 63.9171C368.973 63.945 369.188 63.9581 369.385 63.9563C369.602 63.9589 369.78 63.9422 369.919 63.9062C370.032 63.8866 370.075 63.8411 370.046 63.7697C370.022 63.6773 369.967 63.5783 369.88 63.4727C369.819 63.3506 369.738 63.268 369.638 63.225C369.543 63.1611 369.453 63.1203 369.37 63.1025C369.35 62.9893 369.279 62.865 369.155 62.7296C369.052 62.5987 368.92 62.4507 368.759 62.2855C368.379 61.8123 368.033 61.3898 367.719 61.0178C367.406 60.6458 367.306 60.3956 367.421 60.2673C367.439 60.1839 367.447 60.1421 367.447 60.1421C367.452 60.1212 367.454 60.1108 367.454 60.1108C367.308 60.0798 367.215 59.8527 367.174 59.4296C367.137 58.9857 367.154 58.5967 367.225 58.2629C367.314 57.8455 367.486 57.4459 367.742 57.0641C368.018 56.6866 368.332 56.339 368.683 56.021C369.055 55.7075 369.418 55.4357 369.773 55.2057C370.249 54.9143 370.744 54.6379 371.258 54.3763C371.796 54.0982 372.358 53.8686 372.942 53.6873C373.546 53.5105 374.19 53.4074 374.872 53.378C375.178 53.3775 375.518 53.4171 375.894 53.497C376.269 53.5768 376.529 53.6866 376.674 53.8264C376.863 53.7576 377.065 53.8333 377.28 54.0534C377.5 54.2527 377.706 54.5146 377.898 54.8391C378.091 55.1636 378.221 55.4748 378.289 55.7727C378.236 56.0231 378.159 56.3339 378.058 56.705C377.983 57.0598 377.895 57.3684 377.796 57.6308C377.696 57.8932 377.574 58.0088 377.428 57.9778C377.428 57.9778 377.394 57.9816 377.327 57.9891C377.285 57.9803 377.253 58.028 377.231 58.1323C377.187 58.341 376.979 58.5477 376.609 58.7525C376.154 58.9395 375.732 59.0787 375.342 59.1703C374.952 59.2618 374.678 59.2146 374.522 59.0286C374.414 58.9185 374.317 58.8106 374.231 58.705C374.144 58.5993 374.072 58.475 374.015 58.3321C374.015 58.3321 373.993 58.2837 373.948 58.1869C373.929 58.0737 373.928 57.9754 373.945 57.8919C373.963 57.8085 374.01 57.7421 374.086 57.6928C374.166 57.6226 374.206 57.5875 374.206 57.5875C374.556 57.3784 374.828 57.1745 375.023 56.976C375.239 56.782 375.396 56.6081 375.494 56.4545C375.597 56.28 375.659 56.1406 375.681 56.0363C375.708 55.911 375.692 55.8314 375.634 55.7972C375.601 55.7466 375.501 55.7035 375.334 55.6681C375.23 55.6459 374.982 55.6806 374.592 55.7721C374.223 55.8681 373.824 56.0013 373.395 56.1719C372.971 56.3216 372.634 56.4682 372.385 56.6116C372.271 56.7399 372.188 56.8205 372.138 56.8534C372.108 56.8907 372.051 56.9005 371.968 56.8827C371.986 56.7993 371.931 56.7986 371.805 56.8808C371.678 56.9629 371.522 57.0824 371.336 57.2392C371.15 57.3959 370.962 57.5631 370.771 57.7407C370.581 57.9183 370.431 58.0609 370.321 58.1683C370.26 58.3517 370.17 58.518 370.051 58.6672C369.957 58.8 369.903 58.952 369.889 59.1234C369.865 59.3365 369.927 59.5569 370.075 59.7846C370.223 60.0124 370.443 60.31 370.736 60.6775C371.351 61.3753 371.803 61.9184 372.091 62.3068C372.4 62.6997 372.608 63.0055 372.714 63.2244C372.82 63.4432 372.874 63.651 372.876 63.8477C373.093 64.57 373.015 65.1422 372.642 65.5645C372.273 65.9659 371.78 66.232 371.163 66.3626C370.933 66.4226 370.547 66.4389 370.008 66.4115C369.464 66.4049 368.902 66.3291 368.322 66.1841C367.759 66.0643 367.297 65.8788 366.936 65.6276ZM197.511 76.5038C197.179 76.2153 197.02 75.9414 197.031 75.6821C197.063 75.4273 197.303 75.0201 197.749 74.4606C198.195 73.9012 198.891 73.0351 199.839 71.8624C200.539 71.0298 201.028 70.3704 201.306 69.8842C201.609 69.3816 201.795 69.0177 201.865 68.7926C201.935 68.5675 201.976 68.4237 201.99 68.3611C201.988 68.1644 202.04 68.0228 202.145 67.9362C202.255 67.8287 202.413 67.7532 202.619 67.7097C202.745 67.6275 203.025 67.4907 203.458 67.2993C203.892 67.1078 204.253 66.8465 204.541 66.5152C204.822 66.1169 205.126 65.7126 205.453 65.3024C205.801 64.8965 206.247 64.3914 206.789 63.7871C207.337 63.1619 208.064 62.3568 208.971 61.3719C209.544 60.7303 210.209 60.0103 210.968 59.2119C211.747 58.4179 212.499 57.7052 213.222 57.0737C213.513 56.8304 213.802 56.6518 214.088 56.5381C214.374 56.4244 214.611 56.3875 214.799 56.4274C215.258 56.525 215.69 56.7478 216.096 57.0958C216.506 57.4229 216.851 57.8015 217.13 58.2317C217.41 58.6618 217.579 59.0467 217.637 59.3863C217.706 59.5754 217.673 59.9391 217.536 60.4772C217.4 61.0153 217.219 61.6637 216.992 62.4225C216.765 63.1813 216.517 63.99 216.247 64.8487C216.003 65.6909 215.694 66.683 215.32 67.825C214.947 68.9669 214.562 70.161 214.166 71.4073C213.791 72.658 213.446 73.8715 213.131 75.0476C212.82 76.2028 212.602 77.2253 212.479 78.1151C212.46 78.3073 212.422 78.4847 212.366 78.6472C212.309 78.8097 212.27 78.9431 212.248 79.0474C212.096 79.146 211.814 79.1405 211.401 79.0309C210.983 78.9422 210.59 78.7931 210.22 78.5837C209.85 78.3742 209.664 78.1711 209.662 77.9744C209.613 77.8985 209.583 77.8375 209.571 77.7913C209.559 77.7452 209.601 77.5469 209.697 77.1966C209.798 76.8254 209.973 76.1539 210.223 75.182L211.398 70.4263L210.984 70.3711C210.796 70.3312 210.448 70.2789 209.938 70.2141C209.449 70.1539 208.904 70.1034 208.302 70.0626C207.725 70.0055 207.188 69.9676 206.69 69.9491C206.197 69.9097 205.85 69.9013 205.649 69.924C205.461 69.8841 205.205 69.9605 204.88 70.1532C204.576 70.3504 204.268 70.6228 203.954 70.9705C203.808 71.2449 203.585 71.5247 203.285 71.8097C203.01 72.0784 202.861 72.2649 202.839 72.3692C202.67 72.4425 202.519 72.5411 202.383 72.665C202.269 72.7933 202.212 72.8575 202.212 72.8575C202.185 72.9827 202.024 73.2757 201.73 73.7366C201.44 74.1767 201.096 74.6704 200.696 75.2179C200.3 75.7445 199.91 76.1959 199.525 76.572L198.427 77.5818L197.511 76.5038ZM207.28 67.3265C207.28 67.3265 207.399 67.33 207.638 67.3371C207.876 67.3441 208.156 67.36 208.478 67.3848C208.825 67.3932 209.124 67.424 209.375 67.4772C209.881 67.454 210.298 67.4444 210.624 67.4483C210.971 67.4567 211.249 67.4831 211.458 67.5274C211.671 67.5509 211.833 67.6072 211.945 67.6965C212.007 67.8185 212.066 67.8967 212.124 67.9308C212.203 67.9694 212.243 67.9888 212.243 67.9888C212.273 67.9515 212.361 67.7412 212.508 67.3581C212.655 66.9749 212.832 66.5 213.04 65.9335C213.247 65.367 213.459 64.7795 213.676 64.1713C213.897 63.5421 214.096 62.9629 214.274 62.4337C214.457 61.8836 214.592 61.4543 214.679 61.1457C214.784 60.7536 214.849 60.3967 214.874 60.0748C214.903 59.7321 214.918 59.5607 214.918 59.5607C214.793 59.5341 214.504 59.7126 214.051 60.0963C213.624 60.4635 213.102 60.974 212.483 61.6276C211.889 62.2648 211.283 62.9646 210.663 63.727C210.37 64.0791 210.105 64.35 209.868 64.5396C209.652 64.7337 209.492 64.8196 209.388 64.7975C209.338 64.8303 209.187 64.9729 208.937 65.2251C208.713 65.4609 208.458 65.734 208.174 66.0443C207.916 66.3383 207.682 66.6158 207.474 66.8769C207.291 67.1216 207.227 67.2714 207.28 67.3265ZM224.323 80.9925C224.01 80.926 223.727 80.7678 223.475 80.5179C223.227 80.2471 223.047 79.9144 222.935 79.5197C222.827 79.1042 222.826 78.646 222.933 78.1452C222.999 77.8322 223.145 77.4051 223.369 76.8638C223.618 76.3062 223.951 75.6135 224.366 74.7859C224.47 74.5026 224.542 74.3215 224.58 74.2424C224.64 74.1678 224.678 74.0888 224.696 74.0053C224.705 73.9636 224.701 73.9301 224.685 73.9048C224.693 73.8631 224.677 73.8378 224.635 73.8289C224.468 73.7934 224.214 73.8594 223.874 74.0268C223.558 74.1778 223.192 74.3617 222.775 74.5784C222.703 74.6069 222.619 74.6435 222.522 74.6884C222.447 74.7377 222.36 74.7847 222.263 74.8296C222.188 74.8789 222.101 74.926 222.004 74.9708C221.769 75.0517 221.395 75.2229 220.881 75.4845C220.388 75.7505 219.87 76.033 219.327 76.3319C218.804 76.6352 218.347 76.8871 217.956 77.0874C217.762 77.1771 217.594 77.2504 217.451 77.3072C217.329 77.3685 217.247 77.3947 217.205 77.3858C217.164 77.377 217.008 77.2893 216.738 77.1229C216.493 76.94 216.257 76.7154 216.031 76.4491C215.829 76.1663 215.759 75.8789 215.821 75.5867C215.861 75.3989 216.014 75.0389 216.28 74.5065C216.567 73.9786 216.938 73.3596 217.394 72.6496C217.851 71.9396 218.351 71.2281 218.895 70.515C219.018 70.3449 219.134 70.1078 219.242 69.8037C219.351 69.4995 219.457 69.2058 219.561 68.9226C219.69 68.6229 219.843 68.4155 220.02 68.3005C220.105 68.2094 220.193 68.1519 220.286 68.1279C220.403 68.0875 220.514 68.0784 220.619 68.1006C220.827 68.1449 221.014 68.2392 221.18 68.3835C221.35 68.5069 221.496 68.6906 221.619 68.9348C221.861 69.3352 221.944 69.7672 221.867 70.2307C221.816 70.6778 221.693 71.0989 221.5 71.494C221.307 71.8892 221.119 72.2091 220.936 72.4538C220.758 72.6776 220.673 72.7686 220.682 72.7269C220.774 72.7029 220.911 72.6229 221.093 72.487C221.295 72.3556 221.619 72.2172 222.064 72.072C222.696 71.7699 223.175 71.5665 223.503 71.4617C223.835 71.336 224.083 71.2469 224.247 71.1945C224.431 71.1465 224.597 71.0836 224.745 71.0059C224.867 70.9446 224.951 70.908 224.997 70.896C225.064 70.8884 225.098 70.8846 225.098 70.8846C225.16 70.898 225.273 70.8784 225.437 70.826C225.622 70.778 225.787 70.7695 225.933 70.8006C226.142 70.8449 226.35 70.9437 226.557 71.0968C226.769 71.2291 226.941 71.3964 227.072 71.5988C227.208 71.7804 227.258 71.9546 227.223 72.1215C227.21 72.1842 227.219 72.2408 227.252 72.2914C227.285 72.342 227.316 72.403 227.344 72.4745C227.422 72.6219 227.499 72.8236 227.575 73.0798C227.677 73.3195 227.677 73.6793 227.575 74.1593C227.504 74.4931 227.327 74.968 227.043 75.5838C226.759 76.1997 226.468 76.8028 226.168 77.3934C225.863 78.0048 225.669 78.5087 225.585 78.9052C225.526 79.2852 225.505 79.5862 225.524 79.8082C225.546 80.0093 225.544 80.1725 225.518 80.2977C225.482 80.4646 225.357 80.6451 225.141 80.8392C224.93 81.0124 224.657 81.0635 224.323 80.9925ZM228.072 82.9016C227.822 82.7396 227.639 82.5261 227.521 82.2611C227.398 82.0169 227.371 81.6839 227.439 81.2622C227.475 80.9864 227.57 80.5922 227.723 80.0794C227.88 79.5457 228.068 79.0187 228.288 78.4983C228.297 78.4566 228.306 78.4148 228.314 78.3731C228.349 78.3149 228.368 78.2754 228.372 78.2546C228.411 78.1755 228.458 78.0548 228.515 77.8923C228.576 77.7089 228.627 77.5673 228.671 77.4674C228.739 77.351 228.762 77.345 228.74 77.4494L229.107 76.6442C229.271 76.2863 229.446 75.9202 229.635 75.5459C229.824 75.1716 229.991 74.8473 230.136 74.5729C230.307 74.282 230.408 74.118 230.437 74.0807C230.437 74.0807 230.493 73.9726 230.604 73.7563C230.741 73.5237 230.878 73.291 231.014 73.0583C231.57 72.0859 232.067 71.2865 232.506 70.66C232.965 70.0379 233.343 69.5947 233.639 69.3305C233.673 69.2724 233.72 69.206 233.779 69.1314C233.843 69.0359 233.892 68.9591 233.926 68.9009C233.975 68.6714 234.021 68.5067 234.064 68.4068C234.128 68.3113 234.2 68.2285 234.281 68.1583C234.34 68.0837 234.425 67.9927 234.535 67.8852C234.649 67.7569 234.781 67.5995 234.93 67.413L235.128 67.0953C235.311 66.8506 235.534 66.5709 235.797 66.2561C236.065 65.9204 236.26 65.6675 236.384 65.4975C236.486 65.323 236.658 65.1305 236.899 64.92C237.145 64.6886 237.391 64.5556 237.638 64.5209L237.614 64.483C237.758 64.3174 237.987 64.2134 238.301 64.1712C238.62 64.1081 238.873 64.0965 239.061 64.1364C239.353 64.1985 239.555 64.3285 239.665 64.5265C239.797 64.7289 239.831 64.9762 239.769 65.2684C239.703 65.5814 239.644 65.8087 239.592 65.9503C239.565 66.0755 239.461 66.2061 239.279 66.342L239.311 66.3486C239.361 66.3158 239.338 66.3761 239.24 66.5298C239.141 66.6834 239.065 66.7871 239.01 66.8408C238.946 66.9363 238.869 67.04 238.78 67.1518C238.712 67.2682 238.64 67.351 238.564 67.4003C238.483 67.4705 238.254 67.7271 237.877 68.1703C237.503 68.5925 237.079 69.1021 236.603 69.6989C236.132 70.2748 235.673 70.8425 235.227 71.402C234.806 71.945 234.498 72.3702 234.301 72.6774L234.045 73.1137C234.007 73.1927 233.983 73.2531 233.974 73.2948C233.88 73.4276 233.787 73.5603 233.693 73.6931C233.599 73.8259 233.51 73.9378 233.425 74.0288L232.512 75.863L232.247 76.4937L231.812 77.1537L231.498 77.7085C231.43 77.8249 231.37 77.9538 231.318 78.0955C231.266 78.2371 231.202 78.3326 231.126 78.3819C231.122 78.4027 231.105 78.4318 231.075 78.4691C231.07 78.49 231.066 78.5109 231.061 78.5317C230.907 78.8479 230.661 79.2863 230.324 79.8471C230.007 80.4123 229.751 81.0557 229.554 81.7772C229.549 81.798 229.534 81.8167 229.509 81.8331C229.505 81.854 229.5 81.8749 229.496 81.8957C229.34 82.3206 229.133 82.6257 228.876 82.8109C228.635 83.0213 228.367 83.0516 228.072 82.9016ZM235.868 83.1193C235.692 83.1256 235.469 83.0999 235.198 83.0422C234.931 82.9637 234.697 82.8814 234.498 82.7953C234.323 82.6928 234.243 82.6102 234.256 82.5476C234.278 82.4433 234.237 82.38 234.133 82.3579C234.133 82.3579 234.036 82.25 233.842 82.0343C233.652 81.7977 233.472 81.6177 233.302 81.4943C233.176 81.1622 233.122 80.8017 233.139 80.4128C233.182 80.0075 233.453 79.3455 233.954 78.4268C234.117 77.7635 234.453 77.1044 234.963 76.4494C235.478 75.7736 236.081 75.1386 236.775 74.5445C237.468 73.9503 238.165 73.444 238.864 73.0257C239.568 72.5865 240.179 72.28 240.695 72.1063C241.05 71.8763 241.469 71.8018 241.953 71.883C242.459 71.9686 242.877 72.1556 243.208 72.4441C243.395 72.5928 243.58 72.8503 243.764 73.2165C243.948 73.5827 244.117 73.9676 244.271 74.3711C244.429 74.7538 244.542 75.0941 244.61 75.392C244.624 75.6348 244.631 75.8546 244.633 76.0513C244.66 76.2315 244.658 76.449 244.625 76.7039C244.593 76.9587 244.492 77.3299 244.323 77.8174C244.139 78.1708 243.963 78.5369 243.795 78.9156C243.653 79.278 243.54 79.6573 243.455 80.0538C243.329 80.4414 243.311 80.732 243.401 80.9255C243.511 81.1235 243.718 81.1783 244.02 81.0899C244.297 81.0179 244.56 81.0629 244.809 81.2249C245.063 81.3661 245.215 81.5729 245.266 81.8455C245.343 82.1017 245.247 82.3976 244.98 82.7333C244.797 82.9779 244.543 83.1966 244.219 83.3894C243.894 83.5821 243.547 83.7265 243.178 83.8225C242.813 83.8976 242.474 83.9018 242.161 83.8353C241.931 83.7865 241.72 83.6543 241.525 83.4385C241.336 83.2019 241.18 82.9072 241.059 82.5543C240.938 82.2013 240.855 81.8238 240.809 81.4215L240.774 80.6617L239.428 81.4551C239.095 81.6896 238.766 81.9032 238.441 82.0959C238.142 82.2723 237.95 82.4059 237.865 82.497C237.721 82.6626 237.477 82.7852 237.133 82.8647C236.81 82.9487 236.388 83.0336 235.868 83.1193ZM237.352 80.2941C237.751 80.1608 238.107 79.9748 238.419 79.7358C238.753 79.5014 239.082 79.2334 239.408 78.9318C239.738 78.6095 240.094 78.2706 240.475 77.9154C240.932 77.5109 241.264 77.178 241.472 76.9169C241.701 76.6603 241.893 76.3739 242.047 76.0578C242.013 75.8105 241.949 75.5461 241.856 75.2647C241.768 74.9623 241.653 74.7852 241.511 74.7333C241.219 74.6712 240.826 74.7732 240.334 75.0392C239.862 75.3097 239.315 75.7278 238.693 76.2935C238.587 76.3801 238.448 76.5249 238.274 76.7278C238.1 76.9307 237.928 77.1232 237.758 77.3053C237.614 77.4709 237.514 77.5806 237.459 77.6343C237.379 77.7045 237.243 77.8828 237.051 78.1691C236.885 78.4391 236.727 78.7217 236.577 79.017C236.431 79.2914 236.345 79.4912 236.318 79.6164C236.292 79.7416 236.273 79.8794 236.263 80.03C236.274 80.1849 236.358 80.301 236.516 80.3782C236.674 80.4554 236.953 80.4274 237.352 80.2941ZM247.439 92.5798C246.806 92.6852 246.199 92.5126 245.619 92.0621C245.055 91.6369 244.612 91.052 244.291 90.3076C244.234 90.1646 244.157 89.9085 244.061 89.5391C243.961 89.1906 243.867 88.8108 243.78 88.3997C243.714 87.9931 243.668 87.6453 243.642 87.3562C243.637 87.0717 243.67 86.9152 243.742 86.8867C243.874 86.6749 244.091 86.5792 244.392 86.5996C244.693 86.6199 244.983 86.6925 245.262 86.8172C245.536 86.9627 245.681 87.1025 245.696 87.2366C245.727 87.396 245.759 87.5554 245.791 87.7147C245.818 87.895 245.86 88.0566 245.917 88.1995C245.99 88.3678 246.057 88.5129 246.118 88.635C246.273 89.0386 246.472 89.3317 246.717 89.5146C246.957 89.7183 247.161 89.7836 247.329 89.7103C247.742 89.5144 248.071 89.2464 248.318 88.9063C248.581 88.5915 248.957 88.006 249.444 87.15C249.837 86.4267 250.178 85.8011 250.464 85.2731C250.751 84.7452 251.039 84.2612 251.329 83.8212C251.445 83.5841 251.562 83.3909 251.681 83.2418C251.826 83.0761 251.948 82.9604 252.049 82.8947L252.237 82.9346C251.716 83.1292 251.268 83.3393 250.893 83.5649C250.518 83.7905 250.035 83.9604 249.443 84.0746C249.287 84.1941 248.954 84.2215 248.444 84.1567C247.96 84.0756 247.504 83.9132 247.076 83.6695C246.819 83.4405 246.615 83.2226 246.462 83.0157C246.335 82.7924 246.234 82.5527 246.157 82.2966C246.102 82.0448 246.044 81.7492 245.986 81.4095C245.906 81.0655 245.994 80.5498 246.249 79.8625C246.504 79.1752 246.843 78.5056 247.265 77.8538C247.626 77.3854 248.111 76.8996 248.72 76.3964C249.328 75.8933 249.955 75.4594 250.6 75.0948C251.248 74.7093 251.805 74.5005 252.27 74.4685C252.455 74.4205 252.767 74.3887 253.207 74.3731C253.65 74.3366 254.049 74.4104 254.403 74.5946C254.748 74.7117 255.002 74.8528 255.163 75.018C255.329 75.1622 255.583 75.4561 255.925 75.8995C256.138 76.2285 256.397 76.6542 256.7 77.1767C257.008 77.6783 257.183 78.0862 257.225 78.4006C257.305 78.7446 257.263 79.0956 257.099 79.4534C256.94 79.7904 256.728 80.0724 256.462 80.2993C256.216 80.5307 255.96 80.7598 255.694 80.9867C255.427 81.2136 255.191 81.556 254.985 82.0138C254.747 82.6176 254.398 83.2849 253.938 84.0158C253.481 84.7258 253.099 85.3969 252.79 86.0292L251.877 87.8634C250.978 89.5262 250.131 90.6875 249.337 91.3474C248.538 92.0282 247.905 92.439 247.439 92.5798ZM249.07 81.6726C249.492 81.7405 249.856 81.7742 250.161 81.7736C250.492 81.7567 250.82 81.6519 251.144 81.4591C251.473 81.2455 251.873 80.9051 252.343 80.438C252.804 80.0126 253.152 79.6067 253.387 79.2204C253.621 78.8341 253.773 78.3757 253.843 77.8452C253.893 77.5069 253.845 77.2678 253.701 77.128C253.556 76.9882 253.343 76.9103 253.063 76.8944C252.653 76.8727 252.263 76.9642 251.893 77.169C251.526 77.3528 251.077 77.6717 250.544 78.1255C250.142 78.4763 249.775 78.9217 249.442 79.4616C249.101 80.0433 248.9 80.5241 248.841 80.9042C248.803 81.2887 248.88 81.5448 249.07 81.6726ZM258.134 88.0157C257.391 87.5088 256.943 86.8465 256.79 86.0288C256.636 85.211 256.766 84.1916 257.178 82.9707C257.357 82.3327 257.427 81.9004 257.388 81.674C257.354 81.4267 257.244 81.1744 257.058 80.9169C257.014 80.8201 256.896 80.6535 256.707 80.4169C256.522 80.1594 256.45 79.9807 256.493 79.8808C256.504 79.7303 256.573 79.5596 256.7 79.3687C256.833 79.1569 256.932 79.0472 256.999 79.0396C257.159 79.0081 257.32 78.9661 257.484 78.9137C257.669 78.8657 257.799 78.8714 257.873 78.9309C257.957 78.9486 258.071 79.0274 258.215 79.1672C258.381 79.3115 258.455 79.4254 258.437 79.5088C258.49 79.6726 258.628 79.6367 258.853 79.4009C259.098 79.1695 259.37 78.8673 259.667 78.4944C259.947 78.2048 260.274 77.9473 260.649 77.7217C261.024 77.4961 261.393 77.3017 261.755 77.1387C262.142 76.9593 262.463 76.8314 262.719 76.755C262.833 76.7354 263.044 76.7149 263.354 76.6936C263.685 76.6766 264.022 76.6828 264.364 76.712C264.711 76.7204 264.966 76.7527 265.129 76.8091C265.5 76.9098 265.863 77.1506 266.218 77.5314C266.574 77.9123 266.839 78.2523 267.016 78.5515C267.247 78.7969 267.362 79.1268 267.362 79.541C267.386 79.9388 267.344 80.3441 267.234 80.757C267.124 81.17 266.966 81.507 266.757 81.768C266.65 81.9634 266.369 82.209 265.914 82.5047C265.458 82.8005 264.963 83.077 264.429 83.3341C263.92 83.5749 263.495 83.7246 263.156 83.7832C262.871 83.7882 262.537 83.7716 262.152 83.7335C261.772 83.6745 261.417 83.5991 261.088 83.5073C260.784 83.399 260.576 83.3003 260.464 83.2111C260.336 83.0966 260.204 83.1012 260.068 83.2251C259.958 83.3326 259.81 83.6718 259.623 84.2428C259.553 84.4679 259.511 84.6661 259.497 84.8375C259.503 85.0133 259.518 85.1474 259.542 85.2397C259.635 85.5212 259.741 85.74 259.86 85.8963C259.984 86.0317 260.249 86.1206 260.654 86.1632C261.06 86.2057 261.507 86.05 261.997 85.6961C262.512 85.3257 262.965 85.0404 263.356 84.8401C263.471 84.7117 263.668 84.6555 263.948 84.6715C264.254 84.671 264.594 84.765 264.968 84.9536C265.166 85.1485 265.222 85.4002 265.135 85.7088C265.068 86.0218 264.804 86.4454 264.341 86.9795C264.247 87.1123 264.023 87.2937 263.669 87.5238C263.34 87.7374 262.978 87.9548 262.582 88.1759C262.211 88.3807 261.908 88.5235 261.673 88.6043C260.976 88.8051 260.327 88.8308 259.726 88.6813C259.126 88.5318 258.595 88.3099 258.134 88.0157ZM261.947 81.4653C262.278 81.4484 262.557 81.4204 262.783 81.3813C263.03 81.3466 263.278 81.2575 263.527 81.1141C263.775 80.9706 264.075 80.7399 264.426 80.422C264.559 80.2102 264.642 80.0208 264.678 79.8539C264.734 79.6914 264.746 79.5848 264.713 79.5342C264.582 79.3318 264.405 79.2397 264.183 79.258C263.986 79.2598 263.755 79.3197 263.49 79.4379C263.331 79.4694 263.094 79.5607 262.778 79.7117C262.488 79.8463 262.191 80.0122 261.887 80.2094C261.609 80.3901 261.374 80.5693 261.184 80.7469C261.019 80.9081 260.974 81.0185 261.048 81.0779C260.989 81.1525 261.092 81.2291 261.359 81.3076C261.647 81.3906 261.843 81.4432 261.947 81.4653ZM268.707 90.7538C268.04 90.6119 267.455 90.335 266.954 89.9231C266.478 89.4947 266.119 89.026 265.879 88.5168C265.642 87.9868 265.568 87.5131 265.657 87.0957C265.697 86.9079 265.757 86.7789 265.838 86.7088C265.939 86.643 266.062 86.6257 266.208 86.6568C266.308 86.6998 266.422 86.7786 266.551 86.8931C266.679 87.0076 266.805 87.1326 266.929 87.2679C267.214 87.5684 267.548 87.7921 267.932 87.939C268.315 88.0859 268.674 88.1404 269.009 88.1026C269.349 88.0439 269.566 87.8938 269.661 87.6523C269.679 87.5688 269.675 87.3826 269.649 87.0936C269.623 86.8046 269.574 86.5216 269.502 86.2445C269.145 85.3616 268.976 84.5625 268.998 83.8472C269.023 83.1111 269.09 82.3839 269.2 81.6656C269.262 81.3734 269.466 81.0788 269.813 80.7817C270.164 80.4638 270.575 80.1696 271.047 79.8991C271.565 79.6166 272.121 79.3639 272.713 79.1409C273.327 78.9224 273.919 78.7538 274.489 78.6351C275.06 78.5165 275.527 78.474 275.89 78.5076C276.266 78.5875 276.658 78.6926 277.066 78.8231C277.5 78.9371 277.777 79.0722 277.896 79.2285C278.14 79.5201 278.331 79.9534 278.471 80.5283C278.61 81.1032 278.642 81.568 278.567 81.9227C278.531 82.0897 278.393 82.2784 278.152 82.4889C277.936 82.6829 277.724 82.9105 277.516 83.1716C277.402 83.2999 277.295 83.4409 277.197 83.5945C277.099 83.7482 276.991 83.8996 276.872 84.0488C276.684 84.3143 276.428 84.3907 276.103 84.278C275.804 84.1489 275.547 83.9198 275.333 83.5909C275.124 83.2411 275.059 82.8784 275.139 82.5028C275.206 82.1898 275.357 81.9385 275.594 81.7489C275.831 81.5592 275.958 81.4227 275.975 81.3392C275.984 81.2975 275.97 81.2618 275.933 81.232C275.896 81.2023 275.825 81.1763 275.72 81.1541C275.574 81.1231 275.321 81.1347 274.961 81.1889C274.625 81.2267 274.258 81.3123 273.859 81.4455C273.46 81.5788 273.083 81.7605 272.729 81.9905C272.472 82.1757 272.241 82.3884 272.037 82.6286C271.859 82.8524 271.739 83.1104 271.677 83.4025C271.614 83.6947 271.593 84.0501 271.614 84.4687C271.659 84.8709 271.728 85.2128 271.821 85.4942C271.854 85.5448 271.892 85.6729 271.935 85.8784C272.004 86.0676 272.075 86.3006 272.147 86.5776C272.582 88.3277 272.456 89.5333 271.77 90.1945C271.106 90.8601 270.084 91.0465 268.707 90.7538ZM273.159 99.4535C273.027 99.3599 272.83 99.1546 272.57 98.8377C272.332 98.5252 272.118 98.1962 271.93 97.8509C271.758 97.5308 271.685 97.3082 271.712 97.183C271.738 97.0578 271.861 96.735 272.081 96.2146C272.296 95.7151 272.569 95.0971 272.901 94.3605C273.248 93.6492 273.61 92.9192 273.988 92.1706C274.381 91.4473 274.757 90.8075 275.115 90.2511C275.179 90.1557 275.388 89.8402 275.742 89.3047C276.121 88.7528 276.516 88.0734 276.927 87.2667C277.21 86.7596 277.56 86.1906 277.977 85.5596C278.395 84.9287 278.823 84.2999 279.261 83.6734C279.704 83.026 280.077 82.451 280.381 81.9484C280.684 81.4458 281.008 80.9476 281.353 80.4538C281.702 79.9392 281.896 79.6424 281.934 79.5634C282.003 79.447 282.14 79.3671 282.345 79.3235C282.576 79.2635 282.803 79.2244 283.025 79.2062C283.251 79.1671 283.398 79.1437 283.465 79.1362C283.862 79.1117 284.153 79.3369 284.335 79.8119C284.4 80.0219 284.365 80.2872 284.231 80.6078C284.123 80.9119 283.946 81.234 283.699 81.5742L283.347 82.1536L284.527 82.1427C284.715 82.1826 284.973 82.2485 285.303 82.3403C285.632 82.4322 285.951 82.5218 286.26 82.6092C286.589 82.701 286.812 82.7811 286.928 82.8495C287.425 82.9768 287.749 83.1439 287.901 83.3507C288.075 83.562 288.205 83.8188 288.294 84.1211C288.376 84.2476 288.47 84.4203 288.576 84.6392C288.687 84.8372 288.735 85.0218 288.72 85.1932C288.728 85.5657 288.608 85.9764 288.36 86.4253C288.133 86.8786 287.83 87.3269 287.453 87.77C287.1 88.1967 286.702 88.5811 286.259 88.923C285.841 89.2485 285.453 89.4823 285.096 89.6245C284.869 89.6636 284.662 89.7176 284.472 89.7864C284.288 89.8344 284.195 89.8584 284.195 89.8584C284.152 89.9583 283.896 90.0891 283.425 90.2508C282.975 90.4169 282.455 90.5571 281.863 90.6713C281.297 90.7691 280.799 90.8049 280.368 90.7788C280.218 90.7687 280.005 90.7452 279.729 90.7084C279.453 90.6716 279.251 90.5959 279.123 90.4814C278.902 90.3909 278.75 90.3368 278.667 90.319C278.583 90.3013 278.533 90.3341 278.515 90.4176C278.485 90.4549 278.268 90.7577 277.864 91.3261C277.46 91.8944 276.994 92.7005 276.467 93.7444C275.813 94.8704 275.279 95.7929 274.864 96.5117C274.445 97.2514 274.116 97.8249 273.877 98.2321C273.659 98.6437 273.498 98.9367 273.396 99.1112C273.289 99.3066 273.21 99.4207 273.159 99.4535ZM279.852 87.8228C279.888 87.9613 280.098 88.0496 280.482 88.0877C280.871 88.105 281.326 88.0707 281.846 87.9849C282.365 87.8991 282.84 87.7709 283.269 87.6004C283.723 87.4134 284.012 87.1805 284.137 86.9016C284.707 86.4775 285.11 86.1707 285.347 85.981C285.588 85.7706 285.619 85.5701 285.442 85.3797C285.283 84.997 284.983 84.7695 284.54 84.6973C284.118 84.6294 283.395 84.7483 282.37 85.054C281.989 85.1038 281.725 85.1675 281.577 85.2453C281.434 85.3021 281.301 85.4156 281.178 85.5856C281.075 85.7601 280.886 86.0361 280.609 86.4135C280.324 86.8327 280.125 87.1504 280.014 87.3666C279.903 87.5828 279.849 87.7349 279.852 87.8228ZM287.532 94.0028C287.401 93.8003 287.329 93.5233 287.316 93.1717C287.325 92.8245 287.373 92.4967 287.46 92.1881C287.552 91.8586 287.657 91.6193 287.776 91.4701C287.812 91.3032 287.859 91.1824 287.919 91.1078C288.003 91.0168 288.044 90.9273 288.041 90.8394C288.038 90.7515 288.09 90.6099 288.197 90.4145C288.304 90.2192 288.409 90.0342 288.511 89.8597C288.728 89.5569 288.986 89.1646 289.285 88.6828C289.588 88.1802 289.891 87.6776 290.194 87.175C290.502 86.6515 290.76 86.2048 290.97 85.8349C291.184 85.4442 291.31 85.2093 291.348 85.1303C291.402 84.8799 291.597 84.7797 291.936 84.8298C292.204 84.7996 292.484 84.9682 292.777 85.3358C293.07 85.7033 293.285 86.0762 293.422 86.4544C293.554 86.6569 293.57 86.8893 293.471 87.1517C293.371 87.4141 293.153 87.7713 292.817 88.2233C292.699 88.3725 292.534 88.632 292.325 89.0019C292.141 89.3553 292.001 89.6528 291.906 89.8943C291.787 90.0435 291.632 90.2613 291.44 90.5477C291.274 90.8177 291.12 91.0794 290.979 91.333C290.915 91.4284 290.831 91.6178 290.727 91.9011C290.628 92.1635 290.516 92.4341 290.391 92.7129C290.266 92.9918 290.134 93.2036 289.994 93.3483C289.625 94.1639 289.184 94.5938 288.673 94.6378C288.183 94.6863 287.803 94.4746 287.532 94.0028ZM293.581 82.1697C293.387 81.954 293.251 81.7181 293.175 81.4619C293.124 81.1893 293.108 80.9569 293.127 80.7647C293.167 80.5769 293.212 80.4665 293.263 80.4337C293.52 80.2485 293.762 79.9836 293.988 79.639C294.235 79.2989 294.485 78.9923 294.739 78.7192C294.795 78.6655 294.864 78.5931 294.949 78.5021C295.059 78.3946 295.158 78.3393 295.246 78.3362C295.532 78.2225 295.874 78.3061 296.272 78.5871C296.692 78.8724 296.97 79.2043 297.108 79.5825C297.211 80.0189 297.177 80.4369 297.005 80.8365C296.853 81.2405 296.541 81.6322 296.068 82.0114C295.666 82.3622 295.212 82.5492 294.706 82.5724C294.204 82.5747 293.829 82.4405 293.581 82.1697ZM295.885 96.9232C294.737 96.6792 293.921 96.1569 293.437 95.356C292.974 94.5597 292.889 93.4729 293.182 92.0956C293.341 91.3444 293.652 90.549 294.114 89.7094C294.597 88.8742 295.159 88.0776 295.8 87.3196C296.462 86.5661 297.141 85.9362 297.837 85.4299C298.538 84.9028 299.197 84.5739 299.814 84.4433C300.044 84.3833 300.279 84.3568 300.517 84.3639C300.781 84.3545 301.028 84.3742 301.257 84.423C301.508 84.4762 301.775 84.5548 302.058 84.6586C302.366 84.746 302.645 84.8707 302.894 85.0327C303.343 85.2808 303.701 85.6512 303.967 86.1439C304.254 86.6411 304.313 87.2862 304.144 88.0791C304.1 88.2878 304.03 88.5129 303.935 88.7544C303.845 88.9751 303.723 89.1891 303.57 89.3965C303.152 90.0274 302.595 90.596 301.899 91.1023C301.223 91.613 300.556 91.9292 299.898 92.051C299.713 92.099 299.533 92.1261 299.357 92.1324C299.206 92.1222 299.048 92.0993 298.881 92.0639C298.443 91.9707 298.059 91.8238 297.731 91.6232C297.424 91.4271 297.146 91.1936 296.899 90.9228L296.695 90.6505L296.472 90.9302C296.241 91.2957 296.066 91.6074 295.946 91.8653C295.846 92.1277 295.783 92.3215 295.757 92.4467C295.704 92.6971 295.659 92.9602 295.622 93.2359C295.589 93.4907 295.608 93.7127 295.677 93.9018C295.738 94.0239 295.824 94.1296 295.936 94.2188C296.069 94.3124 296.24 94.3814 296.449 94.4258C296.574 94.4524 296.689 94.4768 296.793 94.499C296.922 94.5047 297.031 94.506 297.119 94.5029C297.513 94.4993 297.844 94.4279 298.113 94.2889C298.408 94.1335 298.707 94.0116 299.009 93.9231L299.147 93.8872L299.136 93.7866C299.531 93.6742 299.795 93.6104 299.929 93.5953C300.068 93.5593 300.173 93.5271 300.244 93.4987C300.345 93.433 300.448 93.4112 300.553 93.4334C300.854 93.4537 301.118 93.5971 301.344 93.8634C301.597 94.1133 301.692 94.3843 301.63 94.6765C301.603 94.8017 301.467 94.98 301.222 95.2113C300.997 95.4471 300.72 95.6718 300.391 95.8854C300.088 96.0826 299.785 96.2254 299.482 96.3138C299.415 96.3214 299.346 96.3393 299.275 96.3678C299.207 96.3753 299.138 96.3933 299.067 96.4218L299.098 96.4284C298.857 96.6389 298.643 96.7242 298.455 96.6843L298.204 96.631C298.09 96.7594 297.785 96.8582 297.291 96.9276C296.792 97.0178 296.323 97.0163 295.885 96.9232ZM299.116 89.7257C299.304 89.7656 299.477 89.7698 299.637 89.7382C299.817 89.7111 299.989 89.6713 300.153 89.6189C300.729 89.3706 301.15 88.9803 301.416 88.4479C301.682 87.9156 301.721 87.4767 301.532 87.1313C301.504 87.0599 301.46 87.007 301.402 86.9729C301.349 86.9178 301.28 86.8814 301.197 86.8637C300.967 86.8149 300.691 86.8325 300.367 86.9165C300.065 87.0049 299.749 87.1559 299.421 87.3695C299.092 87.5831 298.772 87.8533 298.463 88.1802L297.916 88.751C297.963 88.739 297.996 88.7352 298.017 88.7396C298.063 88.7276 298.097 88.7239 298.118 88.7283C298.305 88.7682 298.417 88.8574 298.453 88.9959C298.489 89.1344 298.536 89.2752 298.593 89.4181C298.67 89.5655 298.845 89.668 299.116 89.7257ZM303.913 98.4005C303.494 98.4206 303.164 98.2304 302.922 97.83C302.675 97.4505 302.556 96.9344 302.564 96.2818C302.572 95.6291 302.741 94.9345 303.072 94.1979C303.23 93.9697 303.364 93.7475 303.476 93.5312C303.591 93.2941 303.665 93.1026 303.696 92.9565C303.782 92.7567 303.93 92.4718 304.139 92.102C304.353 91.7113 304.58 91.3123 304.819 90.9051C305.058 90.498 305.276 90.1408 305.472 89.8335C305.693 89.5098 305.834 89.3107 305.893 89.2361C305.977 89.2538 306.065 89.1963 306.159 89.0635C306.253 88.9308 306.315 88.7914 306.346 88.6453C306.382 88.4784 306.453 88.2972 306.56 88.1018C306.688 87.9109 306.802 87.7826 306.903 87.7169C306.926 87.6125 306.971 87.5022 307.039 87.3859C307.133 87.2531 307.188 87.145 307.206 87.0615C307.224 86.978 307.263 86.899 307.322 86.8244C307.402 86.7542 307.451 86.6774 307.469 86.594C307.673 86.3537 307.952 85.9659 308.305 85.4304C308.684 84.8785 309.087 84.2662 309.514 83.5935C309.961 82.9252 310.385 82.263 310.787 81.6067C311.188 80.9504 311.512 80.3979 311.761 79.949C312.034 79.4836 312.182 79.1988 312.204 79.0945C312.239 78.9275 312.335 78.7843 312.491 78.6649C312.648 78.5454 312.809 78.5034 312.976 78.5389C313.052 78.4896 313.207 78.4789 313.441 78.5069C313.679 78.5139 313.84 78.5263 313.924 78.5441C313.924 78.5441 313.957 78.5947 314.022 78.6959C314.088 78.7971 314.187 78.9489 314.318 79.1513C314.454 79.3329 314.575 79.5331 314.681 79.7519C314.808 79.9752 314.845 80.2121 314.792 80.4625C314.734 80.7337 314.637 80.9857 314.5 81.2184C314.385 81.4555 314.186 81.7732 313.905 82.1715C313.629 82.5489 313.204 83.1128 312.63 83.8632C312.374 84.2451 312.112 84.6039 311.845 84.9395C311.582 85.2544 311.441 85.4535 311.423 85.537C311.406 85.6204 311.337 85.7368 311.218 85.886C311.12 86.0396 311.003 86.2328 310.866 86.4654C310.747 86.6146 310.579 86.8406 310.362 87.1434C310.15 87.4254 309.92 87.7364 309.673 88.0766C309.452 88.4003 309.26 88.6867 309.098 88.9358C308.94 89.164 308.857 89.299 308.848 89.3407C308.83 89.4242 308.802 89.5054 308.764 89.5845C308.746 89.6679 308.686 89.7425 308.585 89.8082C308.502 89.7905 308.436 89.842 308.389 89.9628C308.367 90.0671 308.356 90.1193 308.356 90.1193C308.311 90.328 308.027 90.8455 307.502 91.6718C306.924 92.7485 306.387 93.7358 305.891 94.6336C305.416 95.5358 305.116 96.279 304.992 96.8633C304.885 97.3641 304.72 97.7324 304.495 97.9682C304.292 98.2084 304.097 98.3525 303.913 98.4005ZM313.427 94.0762C313.102 93.9635 312.891 93.7769 312.794 93.5163C312.701 93.2348 312.681 92.9689 312.734 92.7185C312.743 92.6768 312.749 92.5471 312.752 92.3296C312.754 92.112 312.794 91.9242 312.871 91.7662C312.898 91.641 313.003 91.456 313.186 91.2114C313.368 90.9667 313.573 90.6721 313.799 90.3275C314.117 89.959 314.572 89.5649 315.162 89.1452C315.753 88.7256 316.242 88.426 316.629 88.2466C316.848 88.1404 317.004 88.0753 317.096 88.0513C317.193 88.0065 317.241 87.9841 317.241 87.9841C317.259 87.9006 317.438 87.7751 317.779 87.6077C318.125 87.4194 318.41 87.3057 318.637 87.2666C318.637 87.2666 318.792 87.2015 319.104 87.0713C319.415 86.9412 319.659 86.8186 319.836 86.7036C320.418 86.3257 320.866 85.9629 321.18 85.6152C321.498 85.2466 321.775 84.8148 322.011 84.3197C322.247 83.8247 322.521 83.2066 322.831 82.4656C323.007 81.7397 323.071 81.2844 323.023 81.0997C322.979 80.8941 322.852 80.6709 322.642 80.4298C322.142 80.2146 321.627 80.1268 321.095 80.1664C320.588 80.1896 320.084 80.3551 319.583 80.6629C319.106 80.9542 318.636 81.4213 318.172 82.0643C317.972 82.3924 317.848 82.6169 317.8 82.7376C317.774 82.8628 317.769 83.0364 317.788 83.2584C317.752 83.4253 317.731 83.628 317.724 83.8664C317.738 84.1093 317.733 84.2829 317.711 84.3872C317.623 84.3903 317.445 84.407 317.177 84.4372C316.914 84.4466 316.636 84.4203 316.343 84.3582C316.077 84.2796 315.842 84.099 315.641 83.8162C315.641 83.8162 315.579 83.6942 315.457 83.45C315.334 83.2058 315.261 83.0376 315.237 82.9453C315.147 82.7517 315.118 82.5819 315.149 82.4358C315.205 82.2733 315.267 82.0356 315.333 81.7226C315.568 81.3363 315.866 80.9089 316.227 80.4404C316.589 79.972 317.019 79.5399 317.517 79.1443C318.016 78.7486 318.555 78.4706 319.134 78.3102C319.612 78.2155 320.061 78.1038 320.481 77.9749C320.926 77.8297 321.149 77.757 321.149 77.757C321.149 77.757 321.222 77.7726 321.368 77.8036C321.539 77.8182 321.817 77.8446 322.202 77.8827C322.323 77.9302 322.458 77.959 322.609 77.9692C322.78 77.9838 322.855 78.0433 322.833 78.1476C322.895 78.1609 323.02 78.1875 323.208 78.2274C323.396 78.2674 323.573 78.3051 323.74 78.3405C323.977 78.4564 324.251 78.6563 324.561 78.9404C324.876 79.2036 325.166 79.4832 325.43 79.7793C325.694 80.0754 325.882 80.3224 325.992 80.5204C326.041 81.0105 325.981 81.5977 325.814 82.2819C325.651 82.9452 325.396 83.6325 325.049 84.3438C324.701 85.0551 324.298 85.7218 323.838 86.3438C323.404 86.9495 322.93 87.4375 322.415 87.8079C322.263 87.9065 321.989 88.0663 321.593 88.2875C321.197 88.5087 320.774 88.7567 320.323 89.0316C319.897 89.2901 319.543 89.5202 319.26 89.7218C318.466 89.9674 317.714 90.4291 317.003 91.1067C316.292 91.7843 315.721 92.4699 315.29 93.1635C314.954 93.6155 314.632 93.8962 314.326 94.0054C314.019 94.1147 313.719 94.1383 313.427 94.0762ZM311.53 99.4634C311.056 99.5372 310.675 99.5326 310.388 99.4497C310.095 99.3876 309.801 99.1832 309.504 98.8365C309.175 98.3305 309.128 97.8843 309.363 97.498C309.602 97.0908 310.056 96.7511 310.725 96.4788C311.2 96.2963 311.531 96.2249 311.719 96.2649C311.932 96.2883 312.229 96.4279 312.611 96.6836C313.207 97.2681 313.405 97.8228 313.206 98.3476C313.012 98.8516 312.453 99.2235 311.53 99.4634Z" fill="#373737"/>
    </svg>
    