<svg viewBox="0 0 65 64" fill="none" xmlns="http://www.w3.org/2000/svg">
    <path d="M38.3021 36.1195C36.6629 37.984 34.6677 39.5173 32.4228 40.6234V46.992C32.4228 47.555 32.1992 48.095 31.8011 48.4929C31.403 48.8911 30.863 49.1149 30.3 49.1149H17.5628C16.9999 49.1149 16.4599 48.8911 16.0618 48.4929C15.6636 48.095 15.44 47.555 15.44 46.992V40.6234C12.385 39.1075 9.7914 36.8016 7.92847 33.945C6.06556 31.0883 5.00123 27.7851 4.84598 24.3783C4.69074 20.9714 5.45023 17.5851 7.04561 14.5708C8.64103 11.5566 11.0141 9.02438 13.9186 7.23701C16.8231 5.44962 20.1531 4.47227 23.5629 4.4064C26.4076 4.35144 29.2212 4.93257 31.8011 6.09866" stroke="#373737" stroke-width="2.5" stroke-linecap="round" stroke-linejoin="round"/>
    <path d="M15.4395 59.5972H32.4223" stroke="#373737" stroke-width="2.5" stroke-linecap="round" stroke-linejoin="round"/>
    <path d="M34.0081 18.9824C32.5181 18.7232 32.5181 16.5843 34.0081 16.3251C39.4059 15.386 43.6991 11.2746 44.8707 5.92246L44.9605 5.5122C45.2827 4.03965 47.3797 4.03048 47.7147 5.50016L47.8238 5.97827C49.0389 11.3052 53.333 15.3819 58.7162 16.3183C60.2136 16.5789 60.2136 18.7286 58.7162 18.9892C53.333 19.9256 49.0389 24.0023 47.8238 29.3292L47.7147 29.8073C47.3797 31.277 45.2827 31.2678 44.9605 29.7953L44.8707 29.385C43.6991 24.0329 39.4059 19.9215 34.0081 18.9824Z" stroke="#373737" stroke-width="2.5" stroke-linecap="round" stroke-linejoin="round"/>
    </svg>
    