<svg width="auto" height="auto" viewBox="0 0 64 64" fill="none" xmlns="http://www.w3.org/2000/svg">
    <path d="M5.00879 5.00928V58.9909H58.9904" stroke="#373737" stroke-width="2.5"
        stroke-linecap="round" stroke-linejoin="round" />
    <path
        d="M21.7293 18.6451C25.8935 18.6451 29.2692 22.0209 29.2692 26.185C29.2692 30.3492 25.8935 33.7249 21.7293 33.7249C17.5651 33.7249 14.1895 30.3492 14.1895 26.185C14.1895 22.0209 17.5651 18.6451 21.7293 18.6451Z"
        stroke="#373737" stroke-width="2.5" stroke-linecap="round" stroke-linejoin="round" />
    <path
        d="M51.4492 6.04065C55.613 6.04065 58.9888 9.41637 58.9888 13.5805C58.9888 17.7447 55.613 21.1204 51.4492 21.1204C47.285 21.1204 43.9092 17.7447 43.9092 13.5805C43.9092 9.41637 47.285 6.04065 51.4492 6.04065Z"
        stroke="#373737" stroke-width="2.5" stroke-linecap="round" stroke-linejoin="round" />
    <path
        d="M40.9676 33.7249C45.1318 33.7249 48.5075 37.1006 48.5075 41.2647C48.5075 45.4288 45.1318 48.8046 40.9676 48.8046C36.8034 48.8046 33.4277 45.4288 33.4277 41.2647C33.4277 37.1006 36.8034 33.7249 40.9676 33.7249Z"
        stroke="#373737" stroke-width="2.5" stroke-linecap="round" stroke-linejoin="round" />
    <path d="M5.00781 42.2918L15.7672 30.8018" stroke="#373737" stroke-width="2.5"
        stroke-linecap="round" stroke-linejoin="round" />
    <path d="M28.3057 29.9435L35.205 36.3784" stroke="#373737" stroke-width="2.5"
        stroke-linecap="round" stroke-linejoin="round" />
    <path d="M44.293 34.4545L49.2685 20.7887" stroke="#373737" stroke-width="2.5"
        stroke-linecap="round" stroke-linejoin="round" />
</svg>
    