<svg width="auto" height="auto" viewBox="0 0 65 64" fill="none" xmlns="http://www.w3.org/2000/svg">
    <path
        d="M32.6589 4.65992C27.7134 4.66146 22.8609 6.00439 18.6182 8.54569C14.3756 11.087 10.9017 14.7315 8.56657 19.091C6.23142 23.4505 5.12248 28.3618 5.35785 33.3016C5.59322 38.2416 7.16409 43.0251 9.90316 47.1428L5.31836 59.3411L20.6711 56.5648C24.368 58.3714 28.425 59.3203 32.5396 59.3407C36.6543 59.3611 40.7204 58.4525 44.435 56.6824C48.1496 54.9128 51.4171 52.3272 53.9929 49.1187C56.5692 45.9106 58.3885 42.1621 59.3141 38.1529C60.2401 34.1438 60.2494 29.9773 59.3408 25.9642C58.4323 21.951 56.63 18.1947 54.0677 14.9751C51.5054 11.7556 48.2493 9.15592 44.5426 7.36988C40.8357 5.58382 36.7736 4.65749 32.6589 4.65992Z"
        stroke="#373737" stroke-width="2.5" stroke-linecap="round" stroke-linejoin="round" />
    <path
        d="M18.6553 36.2457C20.7781 43.888 29.2696 48.5583 36.9118 46.4354C41.5821 44.7372 45.4033 40.916 46.6772 36.2457"
        stroke="#373737" stroke-width="2.5" stroke-linecap="round" stroke-linejoin="round" />
    <path
        d="M23.1142 25.6314C22.528 25.6314 22.0527 25.1562 22.0527 24.57C22.0527 23.9838 22.528 23.5085 23.1142 23.5085"
        stroke="#373737" stroke-width="2.5" stroke-linecap="round" stroke-linejoin="round" />
    <path
        d="M23.1143 25.6314C23.7005 25.6314 24.1757 25.1562 24.1757 24.57C24.1757 23.9838 23.7005 23.5085 23.1143 23.5085"
        stroke="#373737" stroke-width="2.5" stroke-linecap="round" stroke-linejoin="round" />
    <path
        d="M42.2196 25.6314C41.6334 25.6314 41.1582 25.1562 41.1582 24.57C41.1582 23.9838 41.6334 23.5085 42.2196 23.5085"
        stroke="#373737" stroke-width="2.5" stroke-linecap="round" stroke-linejoin="round" />
    <path
        d="M42.2197 25.6314C42.8059 25.6314 43.2812 25.1562 43.2812 24.57C43.2812 23.9838 42.8059 23.5085 42.2197 23.5085"
        stroke="#373737" stroke-width="2.5" stroke-linecap="round" stroke-linejoin="round" />
</svg>
    