<svg width="144" height="44" viewBox="0 0 144 44" fill="none" xmlns="http://www.w3.org/2000/svg">
    <path d="M11.5055 27.3157H7.6342L4.711 22.8148V27.3157H1.55078V15.5979H6.21211C8.58227 15.5979 10.3204 16.6843 10.3204 19.1676C10.3204 20.7972 9.37233 22.194 7.71321 22.5044L11.5055 27.3157ZM4.711 20.8748H5.02703C6.0541 20.8748 7.16017 20.7196 7.16017 19.4004C7.16017 18.1587 6.0541 17.9259 5.02703 17.9259H4.711V20.8748Z" fill="black"/>
    <path d="M21.0656 27.3157H18.1424V26.4621C17.6684 27.2381 16.6413 27.6261 15.6933 27.6261C13.3231 27.6261 11.585 25.6861 11.585 23.358C11.585 21.1076 13.2441 19.09 15.6142 19.09C16.5623 19.09 17.5104 19.4004 18.1424 20.0988V19.3228H20.9866V27.3157H21.0656ZM14.5872 23.358C14.5872 24.3669 15.2982 25.1429 16.4043 25.1429C17.5104 25.1429 18.2214 24.3669 18.2214 23.358C18.2214 22.3492 17.5104 21.5732 16.4043 21.5732C15.2982 21.5732 14.5872 22.3492 14.5872 23.358Z" fill="black"/>
    <path d="M25.9639 16.2963C25.9639 17.1499 25.2529 17.8483 24.3838 17.8483C23.5148 17.8483 22.8037 17.1499 22.8037 16.2963C22.8037 15.4427 23.5148 14.7443 24.3838 14.7443C25.2529 14.7443 25.9639 15.4427 25.9639 16.2963ZM25.7269 27.3157H22.8827V19.3227H25.7269V27.3157Z" fill="black"/>
    <path d="M30.7043 27.3157H27.8601V21.6508H26.833V19.3228H27.8601V18.314C27.8601 17.2275 27.8601 16.3739 28.6501 15.5203C29.3612 14.6667 30.3883 14.2787 31.4943 14.2787C31.9684 14.2787 32.3634 14.3563 32.7584 14.5891V16.9947C32.4424 16.8395 32.1264 16.7619 31.7313 16.7619C31.0203 16.7619 30.7043 17.2275 30.7043 18.0812V19.4004H32.6794V21.7284H30.7043V27.3157Z" fill="black"/>
    <path d="M36.6291 27.3157H33.7849V21.6508H32.7578V19.3228H33.7849V18.314C33.7849 17.2275 33.7849 16.3739 34.5749 15.5203C35.286 14.6667 36.3131 14.2787 37.4191 14.2787C37.8932 14.2787 38.2882 14.3563 38.6832 14.5891V16.9947C38.3672 16.8395 38.0512 16.7619 37.6562 16.7619C36.9451 16.7619 36.6291 17.2275 36.6291 18.0812V19.4004H38.6042V21.7284H36.6291V27.3157Z" fill="black"/>
    <path d="M47.6903 23.8237H41.6069C41.6069 24.9877 42.2389 25.6085 43.424 25.6085C44.0561 25.6085 44.4511 25.3757 44.7671 24.9101H47.5323C47.0583 26.7725 45.2411 27.6261 43.424 27.6261C40.7378 27.6261 38.7627 26.1517 38.7627 23.358C38.7627 20.7196 40.5798 19.09 43.266 19.09C46.1102 19.09 47.6903 20.7972 47.6903 23.5132V23.8237ZM45.0041 22.194C44.8461 21.418 44.1351 20.9524 43.345 20.9524C42.476 20.9524 41.8439 21.418 41.6069 22.194H45.0041Z" fill="black"/>
    <path d="M51.9561 16.2963C51.9561 17.1499 51.2451 17.8483 50.376 17.8483C49.5069 17.8483 48.7959 17.1499 48.7959 16.2963C48.7959 15.4427 49.5069 14.7443 50.376 14.7443C51.2451 14.7443 51.9561 15.4427 51.9561 16.2963ZM51.7981 27.3157H48.9539V19.3227H51.7981V27.3157Z" fill="black"/>
    <path d="M58.988 21.418C58.514 21.1852 57.9609 21.03 57.4079 21.03C57.0919 21.03 56.5388 21.1852 56.5388 21.5732C56.5388 22.1164 57.4079 22.194 57.8029 22.2716C59.146 22.5044 60.1731 23.1252 60.1731 24.5997C60.1731 26.6949 58.1979 27.5485 56.3808 27.5485C55.1957 27.5485 54.0897 27.2381 53.1416 26.6173L54.1687 24.6773C54.7217 25.0653 55.7488 25.4533 56.4598 25.4533C56.8549 25.4533 57.3289 25.2981 57.3289 24.8325C57.3289 24.2117 56.4598 24.2117 55.5118 23.9789C54.6427 23.746 53.6946 23.2804 53.6946 21.8836C53.6946 19.9436 55.5118 19.09 57.2499 19.09C58.198 19.09 59.067 19.2452 59.9361 19.6332L58.988 21.418Z" fill="black"/>
    <path d="M69.9696 23.8237H63.8862C63.8862 24.9877 64.5182 25.6085 65.7033 25.6085C66.3354 25.6085 66.7304 25.3757 67.0464 24.9101H69.8116C69.3376 26.7725 67.5204 27.6261 65.7033 27.6261C63.0171 27.6261 61.042 26.1517 61.042 23.358C61.042 20.7196 62.8591 19.09 65.5453 19.09C68.3895 19.09 69.9696 20.7972 69.9696 23.5132V23.8237ZM67.2834 22.194C67.1254 21.418 66.4144 20.9524 65.6243 20.9524C64.7553 20.9524 64.1232 21.418 63.8862 22.194H67.2834Z" fill="black"/>
    <path d="M74.0777 20.4092C74.7887 19.478 75.5788 19.09 76.6849 19.09C78.897 19.09 79.7661 20.4092 79.7661 22.4268V27.3157H76.9219V23.4356C76.9219 22.6596 77.0799 21.3404 75.6578 21.3404C74.4727 21.3404 74.1567 22.194 74.1567 23.2028V27.3157H71.3125V19.3228H74.1567V20.4092H74.0777Z" fill="black"/>
    <path d="M8.10845 34.1446C7.55541 33.679 6.84436 33.3686 6.0543 33.3686C5.50127 33.3686 4.71121 33.679 4.71121 34.3774C4.71121 35.0758 5.58027 35.3086 6.0543 35.4638L6.84436 35.6966C8.50348 36.1622 9.76757 37.0159 9.76757 38.8783C9.76757 40.0423 9.45155 41.2063 8.50348 42.0599C7.55541 42.836 6.29132 43.1464 5.10624 43.1464C3.60514 43.1464 2.10403 42.6808 0.918945 41.8271L2.26204 39.3439C3.0521 40.0423 3.92116 40.5855 5.02724 40.5855C5.73829 40.5855 6.52834 40.1975 6.52834 39.4215C6.52834 38.5679 5.34326 38.2575 4.63221 38.1023C2.65707 37.5591 1.39298 37.0935 1.39298 34.7654C1.39298 32.3598 3.1311 30.8077 5.50127 30.8077C6.68635 30.8077 8.18745 31.1957 9.21453 31.739L8.10845 34.1446Z" fill="black"/>
    <path d="M14.3499 42.836H11.5057V37.1711H10.5576V34.843H11.5057V32.4374H14.3499V34.843H16.009V37.1711H14.3499V42.836Z" fill="black"/>
    <path d="M25.0946 39.3439H19.0112C19.0112 40.5079 19.6432 41.1287 20.8283 41.1287C21.4604 41.1287 21.8554 40.8959 22.1714 40.4303H24.9366C24.4626 42.2928 22.6454 43.1464 20.8283 43.1464C18.1421 43.1464 16.167 41.672 16.167 38.8783C16.167 36.2399 17.9841 34.6102 20.6703 34.6102C23.5145 34.6102 25.0946 36.3175 25.0946 39.0335V39.3439ZM22.4084 37.7143C22.2504 36.9383 21.5394 36.4727 20.7493 36.4727C19.8803 36.4727 19.2482 36.9383 19.0112 37.7143H22.4084Z" fill="black"/>
    <path d="M29.3614 31.8166C29.3614 32.6702 28.6503 33.3686 27.7813 33.3686C26.9122 33.3686 26.2012 32.6702 26.2012 31.8166C26.2012 30.9629 26.9122 30.2645 27.7813 30.2645C28.6503 30.2645 29.3614 30.9629 29.3614 31.8166ZM29.2034 42.836H26.3592V34.843H29.2034V42.836Z" fill="black"/>
    <path d="M39.3944 39.3439H33.311C33.311 40.5079 33.943 41.1287 35.1281 41.1287C35.7602 41.1287 36.1552 40.8959 36.4712 40.4303H39.2364C38.7624 42.2928 36.9453 43.1464 35.1281 43.1464C32.4419 43.1464 30.4668 41.672 30.4668 38.8783C30.4668 36.2399 32.2839 34.6102 34.9701 34.6102C37.8143 34.6102 39.3944 36.3175 39.3944 39.0335V39.3439ZM36.7082 37.7143C36.5502 36.9383 35.8392 36.4727 35.0491 36.4727C34.1801 36.4727 33.548 36.9383 33.311 37.7143H36.7082Z" fill="black"/>
    <path d="M43.5025 36.1623C44.0555 35.1535 45.0036 34.7655 46.1887 34.7655H46.7417V37.4816C46.3467 37.2487 45.9517 37.2487 45.5566 37.2487C43.9765 37.2487 43.5815 38.2576 43.5815 39.6544V42.836H40.7373V34.8431H43.5815V36.1623H43.5025Z" fill="black"/>
    <path d="M50.5348 35.8519C51.2459 34.9982 52.1149 34.6102 53.142 34.6102C54.3271 34.6102 55.3542 35.0758 55.9072 36.1623C56.4602 35.1534 57.5663 34.6102 58.6724 34.6102C60.7265 34.6102 61.4376 35.9295 61.4376 37.7919V42.836H58.5934V39.0335C58.5934 38.1799 58.5934 36.8607 57.4083 36.8607C56.0652 36.8607 56.0652 38.1023 56.0652 39.0335V42.836H53.221V39.0335C53.221 38.1799 53.221 36.7831 51.9569 36.7831C50.6928 36.7831 50.6928 38.1023 50.6928 39.0335V42.836H47.8486V34.843H50.6928V35.8519H50.5348Z" fill="black"/>
    <path d="M72.1028 42.836H69.2586V41.9824C68.7846 42.7584 67.7575 43.1464 66.8095 43.1464C64.4393 43.1464 62.7012 41.2063 62.7012 38.8783C62.7012 36.6279 64.3603 34.6102 66.7305 34.6102C67.6785 34.6102 68.6266 34.9206 69.2586 35.6191V34.843H72.1028V42.836ZM65.6244 38.8783C65.6244 39.8871 66.3354 40.6631 67.4415 40.6631C68.6266 40.6631 69.2586 39.8871 69.2586 38.8783C69.2586 37.8695 68.5476 37.0935 67.4415 37.0935C66.2564 37.0935 65.6244 37.8695 65.6244 38.8783Z" fill="black"/>
    <path d="M76.7642 36.1623C77.3173 35.1535 78.2653 34.7655 79.4504 34.7655H80.0034V37.4816C79.6084 37.2487 79.2134 37.2487 78.8184 37.2487C77.2383 37.2487 76.8432 38.2576 76.8432 39.6544V42.836H73.999V34.8431H76.8432V36.1623H76.7642Z" fill="black"/>
    <path d="M83.8746 37.7144L86.8768 34.8431H90.8271L86.7978 38.4904L91.1431 42.7585H87.1138L83.9536 39.4992V42.7585H81.1094V29.9542H83.9536V37.7144H83.8746Z" fill="black"/>
    <path d="M142.879 0.62085H99.2676V43.4568H142.879V0.62085Z" fill="#FFED00"/>
    <path d="M142.247 1.16402V42.836H99.8208V1.16402H142.247ZM143.432 0H98.6357V44H143.432V0Z" fill="#FFED00"/>
    <path d="M120.995 27.0053L134.425 40.1975L139.64 35.0758L126.209 21.8836L128.816 19.3227V14.201L130.712 12.3386V16.6067L132.529 18.3915L139.087 11.9506L140.825 13.6578C140.825 12.5714 140.509 8.69135 137.349 5.7425C133.951 2.32803 130.475 4.26807 129.29 5.43209L122.97 11.6402L124.55 13.1922L121.074 16.6067L117.597 13.1922L119.177 11.6402L112.857 5.43209C111.672 4.26807 108.117 2.32803 104.64 5.66489C101.48 8.69135 101.243 12.4938 101.243 13.5802L102.981 11.873L109.539 18.3139L111.356 16.5291V12.261L113.252 14.1234V19.2451L115.859 21.806L102.428 34.9206L107.722 40.1199L120.995 27.0053Z" fill="black"/>
    </svg>
    