<svg width="40" height="40" viewBox="0 0 40 40" fill="none" xmlns="http://www.w3.org/2000/svg">
    <circle cx="20" cy="20" r="20" fill="#373737"/>
    <g clip-path="url(#clip0_2722_24014)">
    <path d="M10 28.4616V11.5385C10 11.1304 10.1621 10.7391 10.4506 10.4506C10.7391 10.1621 11.1304 10 11.5385 10H28.4616C28.8696 10 29.2609 10.1621 29.5494 10.4506C29.8379 10.7391 30 11.1304 30 11.5385V28.4616C30 28.8696 29.8379 29.2609 29.5494 29.5494C29.2609 29.8379 28.8696 30 28.4616 30H23.8462V22.7077H24.9384C25.1874 22.7077 25.426 22.6088 25.602 22.4328C25.778 22.2568 25.8769 22.0181 25.8769 21.7692V20.5846C25.8769 20.4614 25.8527 20.3393 25.8054 20.2255C25.7583 20.1116 25.6891 20.0082 25.602 19.921C25.5149 19.8339 25.4114 19.7648 25.2976 19.7176C25.1837 19.6704 25.0617 19.6462 24.9384 19.6462H23.9077V18.2C23.9077 16.9077 24.4923 16.9077 25.0769 16.9077H25.8307C25.9546 16.9128 26.078 16.8906 26.1923 16.8428C26.3066 16.7949 26.409 16.7226 26.4923 16.6308C26.5817 16.5457 26.6524 16.4429 26.7001 16.329C26.7479 16.2152 26.7713 16.0927 26.7693 15.9692V14.8308C26.7733 14.7055 26.7527 14.5806 26.7086 14.4633C26.6643 14.346 26.5974 14.2386 26.5117 14.1471C26.426 14.0557 26.3231 13.9821 26.2089 13.9304C26.0947 13.8788 25.9714 13.8501 25.8461 13.8462H24.0769C23.5607 13.8267 23.0464 13.9196 22.5696 14.1184C22.0927 14.3172 21.6647 14.6171 21.3151 14.9974C20.9655 15.3777 20.7026 15.8294 20.5446 16.3212C20.3866 16.8131 20.3373 17.3334 20.4 17.8462V19.6462H19.4154C19.2909 19.6441 19.1672 19.6669 19.0515 19.7131C18.9359 19.7594 18.8306 19.8282 18.7418 19.9155C18.653 20.0029 18.5825 20.107 18.5344 20.2219C18.4863 20.3368 18.4615 20.4601 18.4615 20.5846V21.7692C18.4615 21.8938 18.4863 22.0171 18.5344 22.132C18.5825 22.2468 18.653 22.351 18.7418 22.4383C18.8306 22.5257 18.9359 22.5945 19.0515 22.6407C19.1672 22.687 19.2909 22.7097 19.4154 22.7077H20.4V30H11.5385C11.1304 30 10.7391 29.8379 10.4506 29.5494C10.1621 29.2609 10 28.8696 10 28.4616Z" fill="white"/>
    </g>
    <defs>
    <clipPath id="clip0_2722_24014">
    <rect width="20" height="20" fill="white" transform="translate(10 10)"/>
    </clipPath>
    </defs>
    </svg>
    