<svg width="40" height="40" viewBox="0 0 40 40" fill="none" xmlns="http://www.w3.org/2000/svg">
    <circle cx="20" cy="20" r="20" fill="#373737"/>
    <g clip-path="url(#clip0_2722_24020)">
    <path fill-rule="evenodd" clip-rule="evenodd" d="M14.1621 13.3737C14.5324 12.992 14.7376 12.48 14.7335 11.9483C14.7142 11.4325 14.4986 10.9435 14.1308 10.5814C13.763 10.2193 13.2708 10.0113 12.7547 10C12.2372 10.0111 11.7432 10.2185 11.3729 10.5803C11.0026 10.9421 10.7838 11.4311 10.7607 11.9483C10.7682 12.4791 10.9793 12.9868 11.3504 13.3664C11.7215 13.746 12.2242 13.9685 12.7547 13.9879C13.2863 13.976 13.7919 13.7553 14.1621 13.3737ZM12.3842 16.6157C11.5463 16.5967 10.9738 16.5838 10.9738 17.6106V29.0264C10.9738 30.032 11.5197 30.0111 12.3064 29.9813C12.4486 29.9759 12.5986 29.9701 12.7547 29.9701C12.9111 29.9701 13.0611 29.9759 13.2029 29.9813C13.9857 30.0111 14.5204 30.0316 14.5204 29.0264V17.6106C14.5204 16.584 13.9598 16.5967 13.1252 16.6157C13.0069 16.6184 12.8832 16.6212 12.7547 16.6212C12.6265 16.6212 12.5027 16.6184 12.3842 16.6157ZM18.2191 16.6364C17.8386 16.7125 17.595 16.9561 17.595 17.6106V29.0264C17.595 30.031 18.1181 30.0113 18.9062 29.9813C19.0494 29.9759 19.2015 29.9701 19.3607 29.9701C19.5196 29.9701 19.6717 29.9759 19.8154 29.9813C20.6072 30.0113 21.1416 30.0314 21.1416 29.0264V22.938C21.1113 22.6269 21.1474 22.3129 21.2476 22.0168C21.3478 21.7207 21.5097 21.4492 21.7227 21.2204C21.9357 20.9916 22.1948 20.8107 22.483 20.6895C22.7712 20.5684 23.0818 20.5099 23.3943 20.5178C23.7082 20.4992 24.0225 20.5484 24.3158 20.662C24.6091 20.7756 24.8744 20.951 25.0939 21.1762C25.3134 21.4015 25.4818 21.6713 25.5878 21.9674C25.6936 22.2635 25.7346 22.579 25.7079 22.8923V28.9807C25.7079 29.9854 26.2311 29.9656 27.0191 29.9357C27.1624 29.9303 27.3144 29.9244 27.4735 29.9244C27.6328 29.9244 27.7848 29.9303 27.9281 29.9357C28.7161 29.9656 29.2392 29.9854 29.2392 28.9807V21.1876C29.2682 20.5477 29.1622 19.9089 28.9281 19.3127C28.6941 18.7164 28.3372 18.1761 27.8808 17.7268C27.4242 17.2775 26.8784 16.9292 26.2785 16.7047C25.6786 16.4801 25.0382 16.3843 24.3989 16.4233C23.7478 16.3641 23.0925 16.473 22.4955 16.7395C21.8985 17.006 21.3799 17.4212 20.9893 17.9455C21.0046 17.3823 20.8219 16.6364 20.3653 16.6364C20.2343 16.6364 20.0333 16.6302 19.8042 16.623C19.2343 16.6053 18.4905 16.5822 18.2191 16.6364Z" fill="white"/>
    </g>
    <defs>
    <clipPath id="clip0_2722_24020">
    <rect width="20" height="20" fill="white" transform="translate(10 10)"/>
    </clipPath>
    </defs>
    </svg>
    