<svg width="40" height="40" viewBox="0 0 40 40" fill="none" xmlns="http://www.w3.org/2000/svg">
    <circle cx="20" cy="20" r="20" fill="#373737"/>
    <g clip-path="url(#clip0_2722_24017)">
    <path fill-rule="evenodd" clip-rule="evenodd" d="M14.4002 10.2002C12.0806 10.2002 10.2002 12.0806 10.2002 14.4002V25.6002C10.2002 27.9198 12.0806 29.8002 14.4002 29.8002H25.6003C27.9198 29.8002 29.8002 27.9198 29.8002 25.6002V14.4002C29.8002 12.0806 27.9198 10.2002 25.6003 10.2002H14.4002ZM26.8092 14.4063C26.8092 15.0745 26.2676 15.6161 25.5995 15.6161C24.9313 15.6161 24.3896 15.0745 24.3896 14.4063C24.3896 13.7381 24.9313 13.1965 25.5995 13.1965C26.2676 13.1965 26.8092 13.7381 26.8092 14.4063ZM20.0005 16.6449C18.1473 16.6449 16.6452 18.1471 16.6452 20.0001C16.6452 21.8531 18.1473 23.3553 20.0005 23.3553C21.8536 23.3553 23.3556 21.8531 23.3556 20.0001C23.3556 18.1471 21.8535 16.6449 20.0005 16.6449ZM15.0322 20.0001C15.0322 17.2562 17.2565 15.0318 20.0005 15.0318C22.7445 15.0318 24.9686 17.2562 24.9686 20.0001C24.9686 22.7439 22.7443 24.9683 20.0005 24.9683C17.2566 24.9683 15.0322 22.7439 15.0322 20.0001Z" fill="white"/>
    </g>
    <defs>
    <clipPath id="clip0_2722_24017">
    <rect width="20" height="20" fill="white" transform="translate(10 10)"/>
    </clipPath>
    </defs>
    </svg>
    