<svg width="53" height="44" viewBox="0 0 53 44" fill="none" xmlns="http://www.w3.org/2000/svg">
    <g clip-path="url(#clip0_2722_23938)">
    <path d="M0.946289 44H52.0814V0H0.946289V44Z" fill="#C6C6C6"/>
    <path d="M18.4307 2.26599H49.8408V34.1407H18.4307V2.26599Z" fill="#FFD500"/>
    <path d="M36.7624 29.9686V25.3495H34.4916V29.6272C34.4916 30.6392 33.8963 31.3159 33.0309 31.3159C32.1656 31.3159 31.5642 30.6826 31.5642 29.6272V25.3495H29.3057V29.9686C29.3057 31.9926 31.0364 33.5324 33.0371 33.5324C35.0378 33.5324 36.7624 31.9926 36.7624 29.9686Z" fill="#1D1D1B"/>
    <path d="M44.2015 33.4828H44.8888V25.3496H42.6365V28.9754L38.5123 25.2006H37.8802L37.874 33.3772H40.1325V29.7514L44.2015 33.4828Z" fill="#1D1D1B"/>
    <path d="M46.1104 33.3771H48.3627V25.3495H46.1104V33.3771Z" fill="#1D1D1B"/>
    <path d="M49.8408 34.1407H18.4307V41.7276H49.8408V34.1407Z" fill="#1D1D1B"/>
    <path d="M3.18652 2.26599H18.4313V41.7275H3.18652V2.26599Z" fill="white"/>
    <path d="M48.3631 39.4305H44.5273V39.0704L46.5281 35.873H44.558V34.7803H48.3631V35.0472L46.2764 38.3378H48.3631V39.4305Z" fill="#FFD500"/>
    <path d="M41.8573 34.7367H41.5566L39.1692 39.3062L38.0768 37.7416C38.6108 37.5181 38.8808 37.0587 38.8808 36.4254C38.8808 35.5003 38.2057 34.7802 37.1747 34.7802H34.9775V39.4366H36.2602V38.0831H36.9537L37.8436 39.4366H40.4396L40.8202 38.6295H42.5202L42.9007 39.4366H44.2386L41.8512 34.7367H41.8573ZM37.0519 36.9842H36.2602V35.8791H37.0519C37.5429 35.8791 37.6902 36.1274 37.6902 36.4254C37.6902 36.7234 37.5429 36.9842 37.0519 36.9842ZM41.1577 37.6733L41.6794 36.4565L42.1826 37.6733H41.1638H41.1577Z" fill="#FFD500"/>
    <path d="M34.0814 37.2887C34.0814 37.6922 34.0384 38.0833 33.8789 38.3938C33.5168 39.1016 32.676 39.5237 31.7861 39.5237C30.3377 39.5237 29.3496 38.4434 29.3496 37.1086C29.3496 35.7738 30.4604 34.6935 31.7861 34.6935C32.5778 34.6935 33.2836 35.0846 33.7193 35.6806L32.7803 36.3512C32.5348 36.0097 32.2341 35.8172 31.7861 35.8172C31.0312 35.8172 30.528 36.345 30.528 37.1024C30.528 37.8598 31.0496 38.3565 31.8045 38.3565C32.455 38.3565 32.8171 38.0833 32.9092 37.7481H32.1298V36.8975H34.0814V37.2824V37.2887Z" fill="#FFD500"/>
    </g>
    <defs>
    <clipPath id="clip0_2722_23938">
    <rect width="51.1351" height="44" fill="white" transform="translate(0.946289)"/>
    </clipPath>
    </defs>
    </svg>
    